<svg xmlns="http://www.w3.org/2000/svg" id="Layer_1" version="1.1" viewBox="0 0 455.9 454.2"><defs><style>.st0{fill:#fff}.st2{opacity:.2;fill:#0ad0bc}</style></defs><path d="m308 411.6-12-26.9c-18.7-3.1-35.8-15.9-35.8-15.9 10.9 4.2 36.7 5.9 36.7 5.9v.2c49.3.8 96.6-22.1 126.3-62 3.2-4.4 1.5-10.6-3.6-12.5l-43-16.4c35.2-34.2 52.2-83.7 45-132.7-.8-5.4-6.4-8.5-11.4-6.3l-30 13.4c-.9 19-11.8 37.8-11.8 37.8 2.3-8.6 2.1-25.7 1.8-33.3-2.5-45.3-24.9-87.9-61.8-115.4-4.3-3.2-10.6-1.4-12.5 3.6l-13.5 35.5c-34.1-33-82.1-48.8-129.5-41.8-5.4.8-8.5 6.4-6.3 11.4l11.8 26.4c18.8 3 36 16 36 16-7.8-3-23.2-4.7-31.3-5.4-51.2-2.7-100.9 20.5-131.6 61.8-3.2 4.4-1.5 10.6 3.6 12.5l43 16.4c-35.2 34.2-52.2 83.7-45 132.7.8 5.4 6.4 8.5 11.4 6.3l30-13.4c.7-19.2 11.9-38.2 11.9-38.2-2.3 8.9-2.1 26.7-1.8 33.9 2.5 45.2 24.9 87.7 61.8 115.1 4.3 3.2 10.6 1.4 12.5-3.6l13.5-35.5c34.1 33 82.1 48.8 129.5 41.8 5.4-.8 8.5-6.4 6.3-11.4Z" style="fill:#c6d1db"/><path d="m110.2 164.2-44 59.3s-9.4 10-8.2 16.2c1.2 6.1 6.4 10.2 6.4 10.2l56.3 52.4 7.3-35.2-24-32.5s-1.8-.1 1.2-2.7c3-2.5 17.7-15.7 17.7-15.7s1.2 0 1.2 1.3 8.8 47.9 8.8 47.9l105.1 2.8.7-5.8s4.6-1.6 4.9-4.8c.3-3.1 1.2-13-.4-14.1l-1.6-1s-2.5-1.6-2.5-3.4 1-16.5 1-16.5l85.5 60s6.3 2.7 8.8.9c2.5-1.8 3.7-10.2 3.7-10.2l18.9-86.8s2.1-6.1-1.9-9.7-16.3-10-16.3-10-9-2.2-11.7-1.5-5.1 2.5-6.4 5.7c-1.3 3.1-13.2 36.4-13.2 36.4s.4 2.5-2.2 1.2c-2.7-1.3-45.1-33.7-45.1-33.7l-10.9-9s-28.3-15-47.8-18.6c-19.5-3.6-68.3 4.3-68.3 4.3l-18 3.7-5.1 8.8Z" class="st0"/><path d="M296.8 374.8c7.1.1 14.1-.3 21-1.1L255 286.4s-19-19.8-16.7-33.7c2.3-14-96.9-27.5-96.9-27.5l-5 31.4s-10.9 28.7-12.4 40.7c-1.5 11.5-7.9 60.6-8.1 93 8.6 11.2 18.7 21.3 30.3 30 4.3 3.2 10.6 1.4 12.5-3.6l13.5-35.5c34.1 33 82.1 48.8 129.5 41.8 5.4-.8 8.5-6.4 6.3-11.4l-12-26.9c-18.7-3.1-35.8-15.9-35.8-15.9 10.9 4.2 36.7 5.9 36.7 5.9v.2Z" class="st0"/><path d="M296.8 374.8c7.1.1 14.1-.3 21-1.1-69 7.7-194-53.6-177.5-89.9 12.8-28.4 62.7-30 90.3-28.6-16.4-2.6-39.8-4.7-62.1-.3-15 2.9-26.1 5.6-34.2 7.8-3.3 9.1-9.1 26.1-10.2 34.6-1.5 11.5-7.9 60.6-8.1 93 8.6 11.2 18.7 21.3 30.3 30 4.3 3.2 10.6 1.4 12.5-3.6l13.5-35.5c34.1 33 82.1 48.8 129.5 41.8 5.4-.8 8.5-6.4 6.3-11.4l-12-26.9c-18.7-3.1-35.8-15.9-35.8-15.9 10.9 4.2 36.7 5.9 36.7 5.9v.2Z" class="st2"/><path d="m129.5 71.3 18-4.5 5.3 6.9 39.2-6.3s10.6 7.5 13.3 17.7c2.7 10.2 4.5 16.3 4.5 16.3l2.2 4.8s.5 1.3-.9 2.3c-1.5 1-2.1 2.7-2.4 4.5-.3 1.8-4 14.7-8 17.2s-6.4 2.5-7.7 2.4-6.1-1.9-6.1.3-.9 10.6-.9 10.6l-34.1-3v-27.4c-.1 0-10.6-17.4-10.6-17.4l-9.7-2.7-1.9-21.7Z" class="st0"/><path d="m113.3 193.2-26.5 55.4 32.9-30.2s6.2-1 3-9.9-8.4-18.6-9.4-15.3Zm115.8-4.3s77.2 69.9 90.5 74 29.6-39 29.6-39L337.7 277s1.1 12.3-12 5.6c-13.1-6.7-94-64.9-94-64.9s-9.3-3.7-2.7-28.8Z" class="st2"/><path d="m308 411.6-12-26.9h-.2c5.1 12 9.4 22.9 12.7 31.9.3-1.6.2-3.3-.5-5Z" style="opacity:.7;fill:#0ad0bc"/><path d="m122.7 304.7-63-58.3c-3.1-3.7-3.7-8.9-1.5-13.2l55.7-76.8h.1c.3-.2 27.9-10.7 70.9-10.7 46.2 0 82.9 34.9 83.3 35.2l49.5 36.1-.6.9-49.6-36.2c-.4-.4-36.8-35-82.6-35-41.2 0-68.1 9.7-70.4 10.5L59 233.7c-1.9 3.8-1.4 8.5 1.4 11.9l63 58.3-.7.8Zm115.61-41.16.893-.642 79.011 109.956-.893.642z"/><path d="M331.4 285c-1 0-1.9-.1-2.6-.3h-.2l-100.4-69 .6-.9 100.3 68.8c.7.2 5.7 1.2 7.1-2.5 1.6-4.4 20.5-98.7 20.7-99.7 0-.1 1.4-4.8-14.2-12.5-8.3-4.1-13.5-4-16.5-3.2-2.9.8-4.2 2.4-4.4 2.7l-14.6 40.8-1-.4 14.7-41c.2-.3 5.6-8.1 22.3 0 16 7.9 15 12.9 14.7 13.7-.9 4.5-19.1 95.3-20.7 99.8-1 2.7-3.6 3.5-5.8 3.5Z"/><path d="m238.897 241.79 1.055-17.77 1.098.066-1.055 17.769zm-.706 22.338.445-7.487 1.098.065-.445 7.487zm-120.567-79.935 1.08-.202 14.754 78.831-1.081.203zM138.1 150.7l.8-14.2s31.2-13.6 70.2 12.2l-71 1.9Z"/><circle cx="127.9" cy="73.8" r="24.9"/><path d="M151.2 120.9h1.1v12.5h-1.1zM208 96.2c-.9-4.9-2.5-10.1-4.8-15.5 0 0-4-7.4-7.7-9.8l.6-.9c4 2.5 7.9 10 8.1 10.3 2.4 5.5 4 10.7 4.9 15.8l-1.1.2Z"/><path d="m209.3 109.8-.4-1 2-.8c.3-.1.5-.3.6-.6.1-.3.1-.6 0-.9-2.3-5-2.7-6-3.5-10.3l1.1-.2c.7 4.1 1.1 4.9 3.4 10 .3.6.3 1.2 0 1.8-.2.6-.7 1-1.3 1.2l-2 .8Z"/><path d="M187.1 138.4H186v-7.8l.7.3c.1 0 10.2 3.5 13.6-1 2.2-3 7.5-9.9 8.4-21.4h1.1c-.9 11.8-6.3 18.9-8.6 21.9-3.3 4.5-11.6 2.4-14.1 1.7v6.3Zm70.1 34.4s-1.3-28-18.2-28.3c-21.5-.5-11.3 69.1-11.3 69.1s.9-61.9 29.5-40.8Zm-134-19.3s-13.1-17.2-20.8-6.4C93.9 159 123 210.8 123 210.8s-3.7-19.2-4.1-37.6c-.4-18.3 4.3-19.8 4.3-19.8Zm9.5 110-.4-1c.2 0 21.9-7.5 46.1-9.1 12.8-.8 27.2-1 38.6-.4 14.6.7 23.4 2.5 26.2 5.4l.9-13.4c-8.9-7.8-44.2-6.5-44.5-6.5-43.7 1.1-68.4 13.2-68.7 13.3l-.5-1c.2-.1 25.2-12.3 69.1-13.4 1.5 0 36.6-1.4 45.5 7l.2.2-1 15.7v1.1l-1.1-.2v-.8c0-.3-.2-.7-.4-1-4.9-5.9-40.5-6.3-64.1-4.8-24 1.6-45.6 9-45.8 9Z"/><path d="M243.7 261.5s.1 2.4-4.7 3.3l.7-7.9s4 2.3 4 4.5ZM94.106 241.153l29.428-26.498.736.817-29.428 26.498z"/><path d="m102.43 233.913.877-.665 26.784 35.286-.876.665zM351.7 203c-11.2-20.2-36-16.3-36.3-16.3l-.2-1.1c.3 0 25.9-4.1 37.4 16.8l-1 .5Zm-3-14.3c-1.7 0-3-1.8-3-4.1s1.3-4.1 3-4.1 3 1.8 3 4.1-1.3 4.1-3 4.1Zm0-7.1c-1.1 0-1.9 1.4-1.9 3s.9 3 1.9 3 1.9-1.4 1.9-3-.9-3-1.9-3Zm-183.9-68.3c-2.6 0-6.3-3.6-6.7-4.1l.8-.8c1.7 1.7 4.9 4.2 6.3 3.7 1.2-.5 1.4-2.3 1.4-2.3h1.2c0 .2-.2 2.7-2.2 3.4-.3.1-.5.1-.8.1Zm-1.7-8.3-1.2-.2c.3-1.7-.1-1.8-1.1-2.2-.8-.3-1.9-.7-2.6-2.1-.7-1.6-.8-2.8-.3-3.8.6-1.2 1.9-1.4 2-1.4.8-.3 2.8-.4 3.5 1.4l-1.1.4c-.5-1.2-2-.8-2.1-.7 0 0-.9.2-1.2.8-.3.6-.2 1.6.3 2.7.4 1 1.1 1.2 1.9 1.5 1.1.4 2.4.8 1.9 3.5Z"/><path d="M147.6 70.9s-10.7 8.9-9.1 22.5c0 0-8.9-16.6 9.1-22.5Z" class="st0"/><path d="m147.864 244.822 1.096-.098 1.235 13.845-1.095.098zm36.789 8.792.184-15.1 1.1.014-.184 15.1zm36.164.098.707-14.984 1.099.052-.707 14.984zM116.5 389.6h-1.1c0-11.9.3-20.5.5-25.6 1.6-33.9 6-59.6 9.5-75.2 3.7-16.9 7.2-25.9 7.2-26l1 .4s-3.4 9.1-7.2 25.9c-3.4 15.5-7.9 41.2-9.4 75-.2 5.1-.4 13.7-.5 25.6Z"/><path d="M350.5 170.8s6.2-12.1 9.7-17.4c2.7-4 9.7-12.7 9.1-13.5s-1.3-.9-2.2-.1c-1 .8-6.7 6.2-6.7 6.2s-1.5.5-1.9-.7c-.5-1.2 8.6-10.2 8.6-10.2s1.4-1.3.9-2.2c-.9-1.3-3.1.2-4.1 1.2-.6.6-8.3 7.6-8.3 7.6s-1.5.8-2 0c-.5-.9 3-5.3 3-5.3l6.9-8.3s.7-.9.2-1.6c-.5-.6-1.1-.7-2.6.4-1.4 1.1-11.5 11.2-11.5 11.2s-1 .8-1.3 0 8-13.3 8-13.3 0-1.1-1.2-.9c-1.2.3-7.6 6.9-10.8 11.3-3.1 4.4-6 11.2-8.3 8-2.4-3.1-6.5-4.4-8.2-4.2-1.7.2-2.6.3-2.7 1.3 0 0 1.2 1.1 2.2 2.1 1 1 4.2 4.4 5.7 9.1 1.5 4.8.8 11.9.8 11.9" class="st0"/><path d="m350.6 172.4-.9-.4c0-.1 6.7-13.6 10.2-18.9.9-1.3 2.2-3.1 3.6-5 2.1-2.8 5.2-7.1 5.4-8-.2-.2-.3-.3-.5-.4-.3 0-.7.2-.9.4-.9.8-6.6 6.1-6.6 6.2h-.2c-.7.3-2.1.4-2.6-.9s4.5-6.5 8.7-10.7c.5-.4 1-1.2.8-1.5-.1-.2-.3-.2-.5-.3-.8 0-2 .7-2.9 1.5-.6.6-8.3 7.6-8.3 7.6-.1.1-1.1.7-1.9.4-.3 0-.6-.3-.8-.6-.6-1 1.4-3.7 3.1-5.8l6.9-8.3s.5-.6.2-.9c-.2-.3-.5-.6-1.9.5s-11.4 11.1-11.5 11.2c-.2.1-.8.6-1.4.5-.2 0-.5-.2-.7-.6-.1-.3-.5-1 8-13.7 0 0 0-.2-.1-.2h-.4c-1 .3-7.3 6.7-10.5 11.1-.8 1-1.5 2.2-2.2 3.4-1.8 3-3.4 5.6-5.2 5.6-.7 0-1.3-.3-1.8-1-2.3-3-6.2-4.2-7.7-4-1.5.2-2 .3-2.2.6.4.4 1.3 1.2 2 1.9 1.3 1.2 4.3 4.7 5.8 9.3 1.5 4.8.8 13.5.7 13.8h-1c0-.2.8-8.9-.7-13.5-1.4-4.5-4.4-7.7-5.6-8.9-1-1-2.2-2.1-2.2-2.1l-.2-.2v-.2c0-1.4 1.4-1.6 3.1-1.8 1.7-.2 6.1 1.1 8.7 4.4.5.6.8.6.9.6 1.2 0 2.9-2.8 4.3-5.2.7-1.2 1.5-2.4 2.2-3.4 2.9-4 9.5-11.1 11-11.5.6-.2 1 0 1.3.2.5.4.5 1.1.5 1.1v.3c-3.6 5.4-7.5 11.6-7.9 12.9.2 0 .3 0 .5-.2.4-.4 10.1-10.1 11.6-11.2 1.3-1 2.3-1.4 3.2-.3.6.7.2 1.7-.2 2.2l-6.9 8.3c-1.7 2.1-3 4.3-3 4.8l.2.1c.3 0 .8-.1 1.1-.2.6-.6 7.6-7 8.2-7.5.2-.2 2.2-1.9 3.7-1.8.5 0 .9.3 1.2.7.8 1.1-.8 2.6-.9 2.8-4.1 4.1-8.4 8.8-8.5 9.7.2.6.9.5 1.2.4.8-.7 5.7-5.4 6.6-6.1.6-.5 1.1-.7 1.7-.6.5 0 .9.4 1.3.9.5.7-.4 2.2-5.5 9.1-1.4 1.9-2.7 3.7-3.6 5-3.5 5.2-10.1 18.7-10.1 18.8Zm-227.4 88.4-6.1 37.9 5.9 5.7s6.8-31.1 8-34.5l-7.8-9.1Z"/><path d="M351.2 106.8c-6.8-1.5-12.1-6.9-13.6-13.7h-.7c-1.4 6.8-6.7 12.1-13.4 13.7v.7c6.6 1.5 11.7 6.7 13.3 13.3h.9c1.6-6.6 6.8-11.8 13.5-13.3v-.7Zm-32.4 10.6c-11.1-2.5-19.9-11.3-22.2-22.5h-1.2c-2.4 11.1-10.9 19.8-21.9 22.4v1.2c10.8 2.5 19.3 11 21.8 21.7h1.4c2.6-10.9 11.2-19.4 22.1-21.8v-1.1Z" class="st0"/><path d="M338.1 121.3h-1.7v-.4c-1.6-6.3-6.7-11.4-13-12.9h-.4v-1.7h.4c6.5-1.6 11.6-6.8 13-13.3v-.4h1.7v.4c1.5 6.6 6.7 11.8 13.2 13.3h.4v1.6h-.4c-6.4 1.5-11.6 6.6-13.1 13v.4Zm-.9-1c1.7-6.3 6.7-11.4 13-13.1-6.4-1.7-11.3-6.8-13-13.2-1.6 6.4-6.6 11.5-13 13.2 6.3 1.7 11.3 6.8 13 13.1Zm-40.1 20.5h-2.3v-.4c-2.6-10.5-11-18.9-21.5-21.3h-.4v-2.2h.4c10.8-2.6 19.2-11.2 21.5-22.1v-.4h2.1v.4c2.4 11 11 19.6 21.9 22h.4v2h-.4c-10.7 2.5-19.2 10.9-21.7 21.5v.4Zm-1.4-1.1h.6c2.7-10.7 11.3-19.2 22-21.7v-.2c-11-2.6-19.6-11.3-22.1-22.3h-.3c-2.5 10.9-11 19.6-21.8 22.3v.4c10.6 2.6 19 11.1 21.7 21.6Zm-101.1-25.6c-5.1 0-9.2-6.5-9.2-14.6s4.1-14.6 9.2-14.6 9.2 6.5 9.2 14.6-4.1 14.6-9.2 14.6Zm0-28c-4.4 0-8.1 6-8.1 13.4s3.6 13.4 8.1 13.4 8.1-6 8.1-13.4-3.6-13.4-8.1-13.4Zm19.1 28.1c-1.8 0-3.5-1.3-4.8-3.7l1-.6c1.1 2 2.4 3.1 3.8 3.1 3.2 0 6-6.1 6-13.4s-2.7-13.4-6-13.4-4 2.5-5.1 6.6l-1.1-.3c1.3-4.7 3.6-7.5 6.3-7.5 4 0 7.2 6.4 7.2 14.6s-3.1 14.6-7.2 14.6Zm-49.7-2.6c-.8.6-.7-.4-3.3-1.9-6.5-4-9.6-15.3-3.1-18.3 6.4-3 9.1 4 9.1 4 19.9-11 28.4-21.1 30.4-25.3-5.8-6.3-25.2-15.3-42.2-3.5-26.3 18.2-17.4 47-3 55l12.1-10Z"/><path d="m204 97.3-1.1-.5c.1-.3 1.4-3.2 3.4-3.5.9-.1 1.7.2 2.5 1.1l-.9.8c-.5-.5-.9-.8-1.4-.7-1.1.2-2.2 2.1-2.5 2.8ZM190.5 96h3.3v3.7h-3.3zM167 94.1h19.1v1.2H167z"/></svg>