<svg xmlns="http://www.w3.org/2000/svg" id="Layer_1" version="1.1" viewBox="0 0 758.5 362.4"><defs><style>.st0{fill:#dbe2ea}.st2{fill:#0ad0bc}.st9{fill:#fff}</style></defs><path d="M142.7 68.8h616.1v261.3H142.7c-72.1 0-130.6-58.5-130.6-130.6S70.6 68.9 142.7 68.9Z" style="fill:#0ad0bc;isolation:isolate;opacity:.2"/><path d="M94.8 14h472.1v136.3H94.8z" class="st9"/><path d="M567.5 151.6H93.9V13.3h385.2v1.1H95v136.1h471.5V14h-47.6v-1.1h48.6v138.7z"/><path d="M585.3 30.6v137.2l-17.9-17V14.2l17.9 16.4z" style="fill:#c6d1db"/><path d="m585.8 167.7-19-16.7V13l19 17.4v137.3Zm-17.9-17.2 16.8 14.8V30.9l-16.8-15.4v135Z"/><path d="m94.3 151.4 16.3 15.6h474.7l-17.9-16.2-473.1.6z"/><path d="m243.1 61.8-6.1 10s-2.6 2.8-.3 4.5c2.3 1.7 5.1 2 5.1 2s1.2.4 1.2-1.6.1-15 .1-15Zm28.4 0 6.1 10s2.6 2.8.3 4.5-5.1 2-5.1 2-1.2.4-1.2-1.6-.1-15-.1-15Z" style="fill:#ff3131;opacity:.8"/><path d="m449.1 58.8-6.1 10s-2.6 2.8-.3 4.5c2.3 1.7 5.1 2 5.1 2s1.2.4 1.2-1.6.1-15 .1-15Zm28.4 0 6.1 10s2.6 2.8.3 4.5c-2.3 1.7-5.1 2-5.1 2s-1.2.4-1.2-1.6-.1-15-.1-15Z" class="st2"/><path d="M432.6 130.7h-11.4l-6.5-32.1h17.9v32.1zM198.7 99.9h34.5v31.2h-34.5z" class="st0"/><path d="M233.1 84.1H285v46.6h-51.9zm96.3.2h76.4v46.8h-76.4zM309 130.7h-22.7v-30.2h36.2L309 130.7z" class="st0"/><path d="m204 89.4.4-18.2s.6-11.3 3.8-12.8c3.2-1.5 4.4 1.8 4.4 1.8s.5 2.3 2.6 0c2.1-2.2 4.9-4.1 7.3-3.9 2.4.2 5.8 2 6.5 4.5.6 2.5.7 8.7.7 8.7l-.3 20.3-25.4-.5Z" class="st2"/><path d="M183.9 87.3H230v1.8c0 6-4.9 10.8-10.8 10.8H184V87.2Z"/><path d="M182.7 95.6h16v28.2h-16zm230.8 4.4 7.7 25h-14.7l-9.8-33c-.7-3.7 2.1-7.1 5.9-7.1l36.6-1.3 1.4 2.5 2.5 6.6c0 4-3.3 7.3-7.3 7.3h-22.3Z"/><path d="m285.9 85.5 2.5-24.5s2.9-3.4 4.2-4.9c1.3-1.5 6.4-1.5 6.4-1.5l8.8.8s3.2 2.1 3.8 5c.6 2.9.8 8.7 2.5 8.7 1.6 0 9.7.5 9.7.5s1.2.3 1.2 1.1.2 4.4.2 4.4-.3 1.1-1.5 1.2c-1.2 0-9.7 1.1-9.7 1.1l.3 8-28.4.2Z" style="opacity:.8;fill:#0ad0bc"/><path d="m408.5 71.2-7.8 1.9-4.5.3-.7 1.5v4.4c-.1 0 1 .8 1 .8l18.1.6 1.9 3.8H439c0 .1-15.9-25.7-15.9-25.7s-7-9-10.6-4.9c-3.6 4.1-4.1 17.5-4.1 17.5Z" style="opacity:.5;fill:#ff3131"/><path d="m414.106 80.716.977-.504 1.927 3.732-.978.505z"/><path d="M421.5 84.9v-1.1l16.8-.5c-5.1-8.8-17.6-29.2-21.7-30.3-1.4-.3-2.5-.2-3.4.4-1.7 1.1-2 3.4-2 3.5l-1.4 15.9-13.8 1v5.7l20.6.4 2.3-14.9 1.1.2-2.5 15.8-22.6-.4v-7.7l13.9-1 1.4-15c0-.1.5-2.9 2.5-4.2 1.2-.8 2.6-1 4.3-.5 5.4 1.4 21 28.5 22.8 31.6l.5.8-18.7.5Z"/><path d="M422 125.1h-14.1v-.4c-.1 0-11.7-31.4-11.7-31.4v-.4c-.4-2.3.2-4.6 1.6-6.4 1.5-1.8 3.7-2.8 6-2.8h18v1.1h-18c-2 0-3.9.9-5.2 2.4-1.3 1.5-1.8 3.5-1.4 5.5v.2l11.4 30.9h11.9l-7.3-24.1h23c3.6-.8 5.1-3.9 5.1-3.9 2.4-6.1-5.2-16.4-5.3-16.5l.9-.6c.3.4 8 10.9 5.4 17.6 0 .2-1.7 3.7-5.9 4.6h-21.7L422 125Z"/><path d="M423.2 131h-21.3l.2-.7c.7-2.1 2.6-2.6 4.1-3 .3 0 .7-.2 1-.3 1.1-.4.6-2.5.6-2.5l1.1-.3c.3 1.2.4 3.2-1.3 3.8-.3.1-.7.2-1 .3-1.2.3-2.3.6-3 1.6H422l-1.3-5.5 1.1-.3 1.6 6.8Zm-35.4-49h-.4l-.3-.2v-1.9c-.3.4-.7.8-1 1-.4.3-.7.3-.9.2-.5-.1-.8-.5-.8-.6l-.2-.3 3.1-6.4c.3-.6.9-1 1.6-1h6.7v1.1h-6.7c-.3 0-.5.2-.7.4l-2.7 5.6c.5-.4 1.3-1.4 1.8-2l1.1-1.3-.2 3.5c.5-1 1.2-2.6 1.2-2.7l.3-.7.6.6s1.3 1.1 4.8-.1l.4 1c-2.9 1-4.5.7-5.3.3-.4.8-1 2.3-1.3 2.7-.3.5-.7.7-1.1.7Zm24.382 14.653 1.053-.318 1.474 4.882-1.053.318zM397.6 131.1h-40.1V83.9h40.1V85h-39v45h39v1.1z"/><path d="M393.2 84.3h-1.1v-2.6h-26.6L359 54.8h7.8l6.7 25.8h19.6v3.7Zm-26.8-3.7h6.1l-6.4-24.7h-5.6l6 24.7Z"/><path d="M365.2 81h1.1v3.1h-1.1zm-135.3 4.2h-1.1V61.9c-.8-2.7-2.7-4.1-3.8-4.4-1.4-.3-2.5-.2-3.4.4-1.7 1.1-2 3.4-2 3.5l-1.5 13.2-13.8 1v5.7l20.6.4 2.3-14.9 1.1.2-2.5 15.8-22.6-.4v-7.7l13.9-1 1.4-12.3c0-.1.4-2.9 2.5-4.2 1.2-.8 2.6-1 4.3-.5 1.4.3 3.7 2 4.6 5.2v23.5ZM199.5 131h-19.7l.2-.7c.7-2.1 2.6-2.6 4.1-3 .3 0 .7-.2 1-.3 1-.3 1-2.2.9-2.9h1.1s.4 3.2-1.7 3.9c-.3.1-.7.2-1 .3-1.2.3-2.3.6-3 1.6h17v-5.6h1.1v6.7Z"/><path d="M180.8 131h-14.2l.2-.7c.7-2.1 2.6-2.6 4.1-3 .3 0 .7-.2 1-.3 1-.3 1.1-2.4 1-3.1h1.1c0 .3.2 3.5-1.8 4.1-.3.1-.7.2-1 .3-1.2.3-2.3.6-3 1.6h12.6v1.1Zm14.5-47.3h-.4l-.3-.2v-1.9c-.3.4-.7.8-1 1-.4.3-.7.3-.9.2-.5-.1-.8-.5-.8-.6l-.2-.3 3.1-6.4c.3-.6.9-1 1.6-1h6.7v1.1h-6.7c-.3 0-.5.2-.7.4l-2.7 5.6c.5-.4 1.3-1.4 1.8-2l1.1-1.3-.2 3.5c.5-1 1.2-2.6 1.2-2.7l.3-.7.6.6s1.3 1.1 4.8-.1l.4 1c-2.9 1-4.5.7-5.3.3-.4.8-1 2.3-1.3 2.7-.3.5-.7.7-1.1.7Zm17.4-21.1-2.3-5.6c-1.2.1-4.3.1-4.7-2.4-.4-2.6-.7-10.7-.7-11.1h1.1s.2 8.3.7 10.9c.3 2 3.9 1.5 3.9 1.5h.4l2.6 6.4-1 .4Z"/><circle cx="222.7" cy="39.8" r="3.9"/><path d="M222.7 44.3c-2.5 0-4.5-2-4.5-4.4 0-1.2.4-2.3 1.3-3.2.8-.9 2-1.3 3.2-1.3 2.5 0 4.5 2 4.5 4.4 0 1.2-.4 2.3-1.3 3.2-.8.9-2 1.3-3.2 1.3Zm0-7.9c-.9 0-1.8.4-2.4 1-.6.6-1 1.5-1 2.4 0 1.9 1.5 3.3 3.4 3.4.9 0 1.8-.4 2.4-1 .6-.6 1-1.5 1-2.4 0-1.9-1.5-3.4-3.4-3.4Z"/><path d="M218.6 39.7s-5-2.4-8.7-.8-4 4.5-4 4.5l7 3.6s1.1-1.2 2.1-1c1 .2 1.6 1.7 1.1 2.4s-1.2 1.4-1.2 1.4l2.6 2.4s3.9-2.7 3.4-9"/><path d="m217.5 53-3.4-3.1.5-.4s.7-.5 1-1.2c.1-.2 0-.6 0-1-.2-.4-.4-.6-.7-.6-.6 0-1.3.6-1.6.8l-.3.3-7.8-4.1.2-.5c0-.2 1.7-3.7 4.3-4.8 3.9-1.6 8.9.7 9.2.8l-.5 1s-4.8-2.3-8.3-.8c-1.7.7-3 2.9-3.5 3.8l6.2 3.2c.5-.4 1.3-1 2.2-.9.6.1 1.2.6 1.5 1.2.3.7.3 1.5 0 2-.2.4-.6.8-.8 1.1l1.9 1.7c.9-.8 3.2-3.3 2.8-8.2h1.1c.6 6.4-3.4 9.2-3.6 9.4l-.4.2Zm16.4 77.9h-28.7v-1.1h27.7v-29.2h-13.2v-1.1h14.2v31.4zm-43-47.4h-29.8V61.2h29.8v22.3Zm-28.7-1.1h27.6V62.3h-27.6v20.1Z"/><path d="M199.8 124.5h-28.6v-1.1h27.6V99.3h20.7c5.2 0 9.5-4.3 9.5-9.5v-6.4h1.1v6.4c0 5.8-4.7 10.6-10.6 10.6h-19.6v24.1Z"/><path d="M183.7 87.2h1.1v36.2h-1.1zm-13 .3h1.1v36.7h-1.1z"/><path d="M206.1 87.9h-45v-5.2h45v5.2Zm-43.9-1.1H205v-3h-42.8v3Zm110.1-6.5h-29.8V58h29.8v22.3Zm-28.8-1.1h27.6V59.1h-27.6v20.1Z"/><path d="M272.3 84.6h-29.9v-5.2h29.9v5.2Zm-28.8-1.1h27.7v-3h-27.7v3Zm-53.7-.5h1.1v4.3h-1.1zm19.1 3.9h20.4V88h-20.4zm14.8-29.6-4.7-.7-1.9-4.8 1.1-.4 1.6 4.2 4 .6-.1 1.1z"/><path d="m212.339 62.283 6.954-6.175.73.823-6.954 6.174zM204.8 72.8h-1.1c0-.5 1.1-10.6 1.9-12.7.9-2.4 4.6-2.5 4.8-2.5v1.1s-3.1 0-3.8 1.8c-.7 2-1.8 12.2-1.8 12.4Z"/><path d="M435.9 130.5V81.2h55.9v49" class="st0"/><path d="M426.1 129.8h65.6v1.1h-65.6zm-139.9 1.1h-1.1V84.8h-51.5v13.5h-1.1V83.7h53.7v47.2zM257 53.2h-3c-.2 0-4-.6-4.4-3.7-.1-.9-.2-4.5-.3-6.6v-1.6c0-.8 0-1.7.1-2.2.2-1.4 3.7-4.5 9.2-4.1 5.9.4 6.5 4.1 6.5 4.3v9.5c-.1 1.5-1.4 4.4-4.8 4.5h-3.4Zm-2.8-1.2s2.5.1 6.2 0c3.3-.1 3.8-3.3 3.8-3.5v-5.7h-13.7c0 2.1.2 5.6.3 6.5.3 2.2 3.4 2.7 3.4 2.7Zm-3.8-10.3h13.7v-2.5s-.6-2.9-5.5-3.3c-5.3-.4-7.9 2.6-8 3.2 0 .6-.1 1.8-.1 2.6ZM243 78.8c-.2 0-5.3 0-7.1-2.1-.5-.6-.8-1.2-.7-1.9.2-3.5 6.8-12.2 7.1-12.6l.9.7c-1.8 2.5-6.7 9.4-6.8 12 0 .4.1.8.4 1.1 1.3 1.4 5 1.7 6.3 1.7v1.1Zm29.1 0v-1.1c1.3 0 5-.4 6.3-1.7.3-.3.4-.7.4-1.1-.2-2.6-5.2-9.6-7.1-12l.9-.7c.3.4 7.1 9.1 7.4 12.6 0 .7-.2 1.4-.7 1.9-1.8 2-6.9 2.1-7.1 2.1Z"/><path d="m246.7 58.8-.5-1c1.4-.7 4.8-1.6 5.9-1.9v-3.8h1.1v4.6h-.4c0 .1-4.6 1.2-6.1 2Zm21.9 0c-2.2-1.1-7-1.9-7.1-1.9h-.5v-4.7h1.1V56c1.3.2 5 .9 6.9 1.9l-.5 1Zm63.1 72.2h-21.3l1.6-6.8 1.1.3-1.3 5.5h18.4c-.6-1-1.8-1.3-3-1.6-.4 0-.7-.2-1-.3-1.7-.5-1.6-2.6-1.3-3.8l1.1.3s-.5 2.1.6 2.5c.3 0 .6.2 1 .3 1.5.4 3.4.9 4.1 3l.2.7Zm1-52.6c-.4 0-.8-.2-1.1-.7-.3-.5-.9-1.9-1.3-2.7-.8.4-2.5.7-5.3-.3l.4-1c3.6 1.3 4.8.1 4.8.1l.6-.5.3.7s.7 1.7 1.2 2.7l-.2-3.5 1.1 1.3c.5.6 1.4 1.7 1.8 2l-2.7-5.6c-.1-.3-.4-.4-.7-.4h-6.7v-1.1h6.7c.7 0 1.3.4 1.6 1l3.1 6.4-.2.3s-.3.5-.8.6c-.2 0-.5 0-.9-.2-.3-.2-.7-.6-1.1-1v1.9c.1 0-.2.2-.2.2h-.4Z"/><path d="M358.7 131.1h-40.1V130h39V82h-23.2v-1.1h24.3v50.2zm-4.4-53.8h-1.1V56.5h-26.9v13h-1.1V55.4h29.1v21.9z"/><path d="M354.3 82h-40.9v-5.2h40.9V82Zm-39.8-1.1h38.7v-3h-38.7v3Zm2.2 18.7h-23.4c-4.3 0-7.9-3.5-7.9-7.9v-8.2h1.1v8.2c0 3.7 3 6.8 6.8 6.8h23.4v1.1Z"/><path d="M327.1 124.6h-15.8l3.2-25.6h1.1c0 .1-3 24.5-3 24.5h13.6l4.9-32.6c.3-1.6-.1-3.3-1.2-4.5-1-1.3-2.6-2-4.2-2l-36.7-.2v-1.1l36.7.2c1.9 0 3.8.9 5 2.4 1.2 1.5 1.8 3.5 1.4 5.4l-5 33.5Zm-40.7-40.3h-1.1c0-.1 2-21.1 2-21.1.4-5 4.6-9 9.7-9h6.8c2.7 0 4.9.9 6.5 2.5 1.6 1.6 2.4 4 2.3 6.7l.8 5.2-1.1.2-.8-5.3c0-2.5-.6-4.5-2-6-1.4-1.4-3.4-2.2-5.7-2.2H297c-4.5 0-8.3 3.5-8.6 8l-2 21Z"/><path d="m303.8 78.9-1.4-15.8 1-.1 1.4 14.8 19.7-2.1v-5.6l-12-.9.1-1.1 13 1v7.6l-21.8 2.2zM295 48.7l.2-9.3s1.1-3.6 6.6-4 8.5 2.7 8.6 3.6.2 2.1.2 2.1h-5.1v3.3h-.7l-.6-1.8s-1.9-1-2.5 0-.4 2.3.4 2.9l-1 3.3-6.1-.3Z"/><path d="m301.5 49.6-7-.3.2-10c0-.2 1.3-3.9 7.1-4.4 5.5-.4 9 2.7 9.2 4.1.1.9.2 2.1.2 2.2v.5l-5.1.1V45l-1.7.1-.7-2c-.5-.2-1.4-.4-1.5-.1-.4.8-.3 1.8.2 2.2l.3.2-1.2 4.1Zm-6-1.4 5.1.2.8-2.6c-.8-.8-.9-2.2-.2-3.4.8-1.4 2.9-.3 3.2-.2h.2c0 .1.3 1.1.3 1.1v-2.6l5.1-.1c0-.4 0-1-.1-1.5s-2.7-3.6-8-3.2c-4.7.3-6 3.1-6.1 3.5l-.2 8.7Z"/><path d="M305.6 54.4h-1.1l.2-3.9h.6c2.2.2 4.3 0 4.6-.4.4-.6.4-5.1.2-9h1.1c.1 1.9.4 8.5-.3 9.6-.7 1.1-3.6 1.1-5 1v2.7Z"/><path d="M307.8 43.6h.9v2h-.9zm-98.98 4.784.9-.022.049 2-.9.022zm44.509-3.089.9-.022.048 2-.9.022zm7.098.027.9-.022.048 2-.9.021zM250.2 46.9c-.1 0-1.1-.1-1.9-.6-.9-.6-1-2.4-.7-3.2.5-1.1 2-.8 2.2-.7l-.2 1.1c-.3 0-.9 0-.9.1-.2.5 0 1.6.3 1.9.4.3 1.1.4 1.3.4V47Zm14.4 0v-1.1c.1 0 .8-.1 1.2-.4.3-.2.5-1.3.3-1.9 0-.2-.6-.2-.9-.1l-.2-1.1c.2 0 1.7-.3 2.2.7.4.8.3 2.6-.7 3.2-.7.5-1.7.6-1.9.6Zm213.8 30.6h-29.8V55.2h29.8v22.3Zm-28.7-1.1h27.6V56.3h-27.6v20.1Z"/><path d="M478.5 81.8h-29.9v-5.2h29.9v5.2Zm-28.8-1.1h27.7v-3h-27.7v3Z"/><path d="M492.3 130.9h-1V82h-54.8v47.6h-1.1V80.9h56.9v50zm-29.1-80.5h-3c-.2 0-4-.6-4.4-3.7-.1-.9-.2-4.5-.3-6.6v-1.6c0-.8 0-1.7.1-2.2.2-1.4 3.7-4.5 9.2-4.1 5.9.4 6.5 4.1 6.5 4.3V46c-.1 1.5-1.4 4.4-4.8 4.5h-3.4Zm-2.9-1.2s2.5.1 6.2 0c3.3-.1 3.8-3.3 3.8-3.5V40h-13.7c0 2.1.2 5.6.3 6.5.3 2.2 3.4 2.7 3.4 2.7Zm-3.7-10.3h13.7v-2.5s-.6-2.9-5.5-3.3c-5.3-.4-7.9 2.6-8 3.2 0 .6-.1 1.8-.1 2.6ZM449.2 76c-.2 0-5.2 0-7.1-2.1-.5-.6-.8-1.2-.7-1.9.2-3.5 6.8-12.2 7.1-12.6l.9.7c-1.8 2.5-6.7 9.4-6.8 12 0 .4.1.8.4 1.1 1.3 1.4 5 1.7 6.3 1.7V76Zm29 0v-1.1c1.3 0 5-.4 6.3-1.7.3-.3.4-.7.4-1.1-.2-2.6-5.2-9.6-7.1-12l.9-.7c.3.4 7.1 9.1 7.4 12.6 0 .7-.2 1.4-.7 1.9-1.8 2-6.9 2.1-7.1 2.1Z"/><path d="m452.9 56-.5-1c1.4-.7 4.8-1.6 5.9-1.9v-3.8h1.1v4.6h-.4c0 .1-4.6 1.2-6.1 2Zm21.8 0c-2.2-1.1-7-1.9-7.1-1.9h-.5v-4.7h1.1v3.8c1.3.2 5 .9 6.9 1.9l-.5 1Zm-15.101-13.642.9-.022.048 2-.9.022zm7.098.027.9-.022.048 2-.9.021zM456.3 44.1c-.1 0-1.1-.1-1.9-.6-.9-.6-1-2.4-.7-3.2.5-1.1 2-.8 2.2-.7l-.2 1.1c-.3 0-.9 0-1 .1-.2.5 0 1.6.3 1.9.4.3 1.1.4 1.3.4v1.1Zm14.4 0V43c.1 0 .8-.1 1.2-.4.3-.2.5-1.3.3-1.9 0-.2-.6-.2-1-.1l-.2-1.1c.2 0 1.7-.3 2.2.7.4.8.3 2.6-.7 3.2-.7.5-1.7.6-1.9.6Zm-237.3 85.7h73.1v1.1h-73.1zm-105.1 0h38.8v1.1h-38.8zm359.4 0H533v1.1h-45.3zM294.228 54.946l.173-6.197 1.1.03-.174 6.198zM408.1 56.9l1.8 3.2v3.4l-.8 8.3s0 .7-.9.7h-4.7l4.7-15.6"/><path d="m402.7 73 5.3-17.5 2.5 4.4v3.5l-.8 8.3c0 .5-.5 1.2-1.5 1.2h-5.4Zm5.5-14.7L404.1 72h4c.6 0 .4 0 .4-.3l.8-8.2v-3.2l-1.1-1.9Z"/><path d="m409.7 61.3-3-6.4c-1.2.2-4.3.6-4.9-1.9-.7-2.6-1.7-10.6-1.8-10.9h1.1s1.1 8.2 1.7 10.7c.5 2 4 1.1 4.1 1.1h.4c0-.1 3.4 7.1 3.4 7.1l-1 .5Z"/><circle cx="417.2" cy="36.6" r="3.9"/><path d="M417.2 41.1c-1 0-2-.3-2.8-1-.9-.8-1.5-1.8-1.6-3-.3-2.5 1.5-4.7 4-4.9 1.2-.1 2.4.2 3.3 1 .9.8 1.5 1.8 1.6 3 .3 2.5-1.5 4.7-4 4.9h-.5Zm.1-7.9h-.4c-1.9.2-3.2 1.9-3 3.7 0 .9.5 1.7 1.2 2.3.7.6 1.6.8 2.5.7 1.9-.2 3.2-1.9 3-3.7 0-.9-.5-1.7-1.2-2.3-.6-.5-1.4-.8-2.1-.8Z"/><path d="M413.2 36.9s-5.6-2-9.2-.1c-2.3 1.3-3.5 4.9-3.5 4.9l7.7 3.1s1-1.3 2-1.2c1 0 1.7 1.5 1.4 2.3s-1 1.5-1 1.5l3.2 1.9s3.3-2.8 2.1-9"/><path d="m413.8 50-4.1-2.5.5-.5s.6-.6.9-1.3c.1-.2 0-.6-.2-1-.2-.3-.5-.6-.7-.6-.5 0-1.3.7-1.5 1l-.2.3-8.6-3.4.2-.5c0-.2 1.3-3.9 3.8-5.2 3.7-2 9.4 0 9.6 0l-.4 1s-5.4-1.9-8.7-.1c-1.6.9-2.7 3.1-3.1 4.1l6.9 2.7c.4-.4 1.2-1.1 2.1-1.1.6 0 1.2.4 1.6 1.1.4.7.5 1.4.2 2-.2.4-.5.8-.7 1.1l2.3 1.4c.7-.8 2.6-3.4 1.7-8.2l1.1-.2c1.2 6.4-2.2 9.4-2.3 9.5l-.3.3Zm-9.547-3.33.893-.11.244 1.985-.894.11z"/><path d="m413.24 48.846 1.03-.387 1.16 3.089-1.029.387zM456.2 38.7s-.4-3.1 1.6-4.3 4-1.8 5.6-1.8 4.9.3 6 1.5c1.1 1.2 1.6 1.7 1.6 2.8v1.6s.2 1-.7 1h-13.4s-.6-.3-.6-.9Z"/><path d="M470.2 40.1h-13.6s-.9-.5-.9-1.3c0-.4-.3-3.4 1.8-4.8 2-1.2 4.1-1.9 5.9-1.9s4.9 0 6.4 1.7l.2.3c.9 1.1 1.5 1.6 1.5 2.9v1.6c0 .2 0 .8-.3 1.2-.2.2-.4.4-.9.4ZM456.9 39h13.3c.1 0 .2-.3.1-.4v-1.7c0-1.1-.3-1.2-1.2-2.2l-.3-.3c-.9-1-3.8-1.4-5.5-1.4s-3.6.7-5.3 1.8c-1.6 1-1.3 3.7-1.3 3.8 0 .2.1.3.2.4Zm-207 2.5s-.4-3.1 1.6-4.3 4-1.8 5.6-1.8 4.9.3 6 1.5 1.6 1.7 1.6 2.8v1.6s.2 1-.7 1h-13.4s-.6-.3-.6-.9Z"/><path d="M263.9 43h-13.6s-.9-.5-.9-1.3c0-.4-.3-3.4 1.8-4.8 2-1.2 4.1-1.9 5.9-1.9s4.9 0 6.4 1.7l.3.3c.9 1.1 1.5 1.6 1.5 2.9v1.6c0 .2 0 .8-.3 1.2-.2.2-.4.4-.9.4Zm-13.3-1.2h13.3c.1 0 .2-.3.1-.4v-1.7c0-1.1-.3-1.2-1.2-2.2l-.3-.3c-.9-1-3.8-1.4-5.5-1.4s-3.6.7-5.3 1.8c-1.6 1-1.3 3.7-1.3 3.8 0 .2.1.3.2.4Zm64.6 56.8-3.1 25h14.7l4.9-33c.7-3.7-2.1-7.1-5.9-7.1l-39.5-.2-.2.4v7.6c0 4 3.3 7.3 7.3 7.3h21.7ZM171.4 87.5H184v36.4h-12.6zm258.9-3.3h5.1v46.2h-5.1zm-201.9 16.1h5.2v29.9h-5.2zm130.3-16.2h4.8v46.2h-4.8zM181.9 37.6h1.1v2.8h-1.1zm0 5.3h1.1v2.8h-1.1zm1.8-1.8h2.8v1.1h-2.8zm-5.2 0h2.8v1.1h-2.8zm101.2-1.6h1.1v2.8h-1.1zm0 5.3h1.1v2.8h-1.1zm1.8-1.8h2.8v1.1h-2.8zm-5.3 0h2.8v1.1h-2.8zm-41.8 3.1h1.1v2.8h-1.1zm0 5.2h1.1v2.8h-1.1zm1.8-1.7h2.8v1.1h-2.8zm-5.3 0h2.8v1.1h-2.8zm147.6-3.1h1.1v2.8h-1.1zm0 5.3h1.1v2.8h-1.1zm1.8-1.8h2.8v1.1h-2.8zm-5.2 0h2.8v1.1h-2.8zm58-4.2h1.1v2.8h-1.1zm0 5.3h1.1v2.8h-1.1zm1.7-1.8h2.8v1.1h-2.8zm-5.2 0h2.8v1.1h-2.8zm61.7 6.6h1.1v2.8h-1.1zm0 5.3h1.1V64h-1.1zm1.7-1.8h2.8v1.1H493zm-5.2 0h2.8v1.1h-2.8zm-296.3-5.1c-1.3 0-2.3-1-2.3-2.3s1-2.3 2.3-2.3 2.3 1 2.3 2.3-1 2.3-2.3 2.3Zm0-3.5c-.7 0-1.2.6-1.2 1.2s.6 1.2 1.2 1.2 1.2-.6 1.2-1.2-.6-1.2-1.2-1.2Zm127.9 2.5c-1.3 0-2.3-1-2.3-2.3s1-2.3 2.3-2.3 2.3 1 2.3 2.3-1 2.3-2.3 2.3Zm0-3.6c-.7 0-1.2.6-1.2 1.2s.6 1.2 1.2 1.2 1.2-.6 1.2-1.2-.6-1.2-1.2-1.2Zm70.2 14.2c-1.3 0-2.3-1-2.3-2.3s1-2.3 2.3-2.3 2.3 1 2.3 2.3-1 2.3-2.3 2.3Zm0-3.5c-.7 0-1.2.6-1.2 1.2s.6 1.2 1.2 1.2 1.2-.6 1.2-1.2-.6-1.2-1.2-1.2Z"/><path d="M183.3 87h1v36.2h-1zM312 184.7v-26.5h18.6v52.3" class="st9"/><path d="M331.4 210.5h-1.5V159h-17.1v25.7h-1.5v-27.2h20.1v53z"/><path d="M330.9 236.9h-18.3v-21c0-8.7-1.9-15.8-10.7-15.8H180c-18.8 0-34.1-15.3-34.1-34.1v-9.1h18.3v9.1c0 8.7 7.1 15.8 15.8 15.8h121.9c18.8 0 29 15.3 29 34.1v21Z" class="st9"/><path d="M331.7 237.6h-19.8v-21.7c0-10.5-3-15-9.9-15H180.1c-19.2 0-34.9-15.6-34.9-34.9v-9.8H165v9.8c0 8.3 6.7 15 15 15h121.9c17.8 0 29.7 14 29.7 34.9v21.7Zm-18.3-1.5h16.8v-20.2c0-16.6-8.7-33.4-28.2-33.4H180.1c-9.1 0-16.5-7.4-16.5-16.5v-8.3h-16.8v8.3c0 18.4 15 33.4 33.4 33.4h121.9c10.2 0 11.4 9.4 11.4 16.5v20.2Z"/><path d="M262 246.2h-18.3V236c0-7.4-6-8.4-13.5-8.4h.8c-17.5 0-31.8-14.3-31.8-31.8v-39.9h18.3v39.9c0 7.4 6 13.5 13.5 13.5h-.8c17.5 0 31.8 9.2 31.8 26.8v10.2Z" class="st9"/><path d="M262.8 246.9H243v-11c0-6.4-4.7-7.7-12.7-7.7-17.6-.5-31.7-14.9-31.7-32.5v-40.8h19.8v40.8c0 7 5.7 12.7 12.7 12.7 19.3.3 31.7 11 31.7 27.5v11Zm-18.3-1.5h16.8v-9.5c0-15.8-12.2-26-31-26-7.5-.5-13.4-6.7-13.4-14.2v-39.3h-16.8v39.3c0 17.1 13.9 31 31 31 6.6 0 13.4 1.1 13.4 9.2v9.5Z"/><path d="M240.5 255.5v-9.1c0-2 5.5-3.5 12.3-3.5s12.3 1.6 12.3 3.5v9.2" class="st9"/><ellipse cx="252.8" cy="255.6" rx="12.3" ry="3.5"/><path d="M252.8 259.9c-6.5 0-13-1.5-13-4.3s6.6-4.3 13-4.3 13 1.5 13 4.3-6.6 4.3-13 4.3Zm0-7.1c-7.5 0-11.5 1.8-11.5 2.8s4.1 2.8 11.5 2.8 11.5-1.8 11.5-2.8-4.1-2.8-11.5-2.8Z"/><path d="M265.9 255.6h-1.5v-9.2c0-.9-4.1-2.8-11.5-2.8s-11.5 1.8-11.5 2.8v9.1h-1.5v-9.1c0-2.8 6.6-4.3 13-4.3s13 1.5 13 4.3v9.2Z"/><path d="M436 251.7h18.3v-20.9c0-7.4 6-8.4 13.5-8.4H491c17.5 0 31.8-14.3 31.8-31.8v-32.9h-18.3v32.9c0 7.4-6 13.5-13.5 13.5h-23.2c-17.5 0-31.8 9.2-31.8 26.8v20.9Z" class="st9"/><path d="M455.1 252.5h-19.8v-21.7c0-16.7 12.8-27.5 32.5-27.5H491c7 0 12.7-5.7 12.7-12.7v-33.7h19.8v33.7c0 17.9-14.6 32.5-32.5 32.5h-23.2c-8.1 0-12.7 1.3-12.7 7.7v21.7Zm-18.3-1.5h16.8v-20.2c0-8.5 7.3-9.2 14.2-9.2H491c17.1 0 31-13.9 31-31v-32.2h-16.8v32.2c0 7.8-6.4 14.2-14.2 14.2h-23.2c-18.9 0-31 10.2-31 26V251Z"/><path d="M457.5 261v-9.1c0-2-5.5-3.5-12.3-3.5-6.8 0-12.3 1.6-12.3 3.5v9.2" class="st9"/><ellipse cx="445.2" cy="261.1" rx="12.3" ry="3.5"/><path d="M445.2 265.4c-6.5 0-13-1.5-13-4.3s6.6-4.3 13-4.3 13 1.5 13 4.3-6.6 4.3-13 4.3Zm0-7.1c-7.5 0-11.5 1.8-11.5 2.8s4.1 2.8 11.5 2.8 11.5-1.8 11.5-2.8-4.1-2.8-11.5-2.8Z"/><path d="M433.7 261.1h-1.5v-9.2c0-2.8 6.6-4.3 13-4.3s13 1.5 13 4.3v9.1h-1.5v-9.1c0-.9-4.1-2.8-11.5-2.8s-11.5 1.8-11.5 2.8v9.2Z"/><path d="M309.7 245.6v-9.1c0-2 5.5-3.5 12.3-3.5s12.3 1.6 12.3 3.5v9.2" class="st9"/><ellipse cx="322" cy="245.7" rx="12.3" ry="3.5"/><path d="M322 250c-6.5 0-13-1.5-13-4.3s6.6-4.3 13-4.3 13 1.5 13 4.3-6.6 4.3-13 4.3Zm0-7.1c-7.5 0-11.5 1.8-11.5 2.8s4.1 2.8 11.5 2.8 11.5-1.8 11.5-2.8-4.1-2.8-11.5-2.8Z"/><path d="M335.1 245.7h-1.5v-9.2c0-.9-4.1-2.8-11.5-2.8s-11.5 1.8-11.5 2.8v9.1h-1.5v-9.1c0-2.8 6.6-4.3 13-4.3s13 1.5 13 4.3v9.2Z"/><path d="M375.1 230.4v-72.2h18.6v73.6l-18.6-1.4z" class="st9"/><path d="M375.9 226.8h-1.5v-69.3h20V226h-1.5v-67h-17v67.8z"/><path d="M372.8 238.4v-9.1c0-2 5.5-3.5 12.3-3.5s12.3 1.6 12.3 3.5v9.2" class="st9"/><ellipse cx="385.1" cy="238.5" rx="12.3" ry="3.5"/><path d="M385.1 242.8c-6.5 0-13-1.5-13-4.3s6.6-4.3 13-4.3 13 1.5 13 4.3-6.6 4.3-13 4.3Zm0-7.1c-7.5 0-11.5 1.8-11.5 2.8s4.1 2.8 11.5 2.8 11.5-1.8 11.5-2.8-4.1-2.8-11.5-2.8Z"/><path d="M398.1 238.5h-1.5v-9.2c0-.9-4.1-2.8-11.5-2.8s-11.5 1.8-11.5 2.8v9.1h-1.5v-9.1c0-2.8 6.6-4.3 13-4.3s13 1.5 13 4.3v9.2Zm-180-56.9h4.8v17.9h-4.8z"/><path d="M349.6 277.2h-54v60.5l13.4 13.1h40.6v-73.6z" class="st9"/><path d="M322 243.6h1.5v23.1H322zm-11.7 11.3h1.5v11.9h-1.5zm22.8 4.1h1.5v7.8h-1.5z"/><path d="M325.5 325.5v-5.8c1.8-.1 3.2-.4 4.1-1 .9-.6 1.6-1.5 2-2.8.4-1.3.6-3.1.6-5.5h-6.7v-13.8h13.7v13.2c0 5.4-1.2 9.4-3.5 11.9s-5.7 3.8-10.2 3.8Zm-19.5 0v-5.8c1.8-.1 3.2-.4 4.1-1 .9-.5 1.6-1.5 2-2.8.4-1.3.6-3.1.6-5.5h-6.8v-13.8h13.8v13.2c0 5.4-1.2 9.4-3.5 11.9s-5.7 3.8-10.3 3.8Z" class="st2"/><path d="M350.7 351.8h-42.1l-14-13.8v-61.9h56.1v75.7Zm-41.3-2h39.2v-71.5h-52v59l12.8 12.6Z"/><path d="M311.9 350.3h-2.1v-13.5h-14.1v-2h16.2v15.5z"/><path d="M366.3 314.5h42.3v-47.4l-10.5-10.3h-31.8v57.7z" class="st9"/><path d="M372.7 288.8h28.4v2.8h-28.4zm0 8.7h28.4v2.8h-28.4z"/><path d="M409.7 315.5h-44.4v-59.7h33.3l11.1 10.9v48.8Zm-42.4-2h40.3v-45.9l-9.9-9.7h-30.4v55.6Z"/><path d="M408.6 269.6h-12.9v-12.3h2v10.3h10.9v2zm-28.6-2.5v3.1c-1 0-1.7.2-2.2.5-.5.3-.9.8-1.1 1.5-.2.7-.3 1.7-.3 2.9h3.6v7.4h-7.3v-7c0-2.9.6-5 1.9-6.4 1.2-1.4 3.1-2 5.5-2Zm10.4 0v3.1c-1 0-1.7.2-2.2.5-.5.3-.9.8-1.1 1.5s-.3 1.7-.3 3h3.6v7.4H383v-7c0-2.9.6-5 1.8-6.4s3.1-2 5.5-2Zm50.9 3.1h1.5v10.5h-1.5zm9.7 0h1.5v10.5H451z"/><path d="M424.9 350.5h45.5v-63.2h-34.2l-11.3 10.4v52.8z" class="st9"/><path d="M424.8 350h45.5v-63.1h-34.2l-11.3 10.4V350z" style="opacity:.1;fill:#ff3131"/><path d="M471.8 351.8H423v-53.7l12.2-12h36.6v65.7Zm-46.7-2h44.6v-61.6H436L425 299v50.8Z"/><path d="M438.2 301.2h-14.1v-2.1h12.1v-11.4h2v13.5zm8.2 3h14.8v2.1h-14.8zm-13.5 9.4h28.3v2.1h-28.3zm0 9.4h28.3v2.1h-28.3zm0 9.3h28.3v2.1h-28.3z"/><path d="M275.7 328.9h-41.9v-58.3h31.5l10.4 9.6v48.7z" class="st9"/><path d="M275.7 328.9h-41.9v-58.3h31.5l10.4 9.6v48.7z" style="opacity:.2;fill:#0ad0bc"/><path d="M277.6 330.3h-45.3v-61h34l11.3 11.1v49.9Zm-43.2-2.1h41.2v-46.9l-10.1-9.9h-31.1v56.9Z"/><path d="M276.5 283.4h-13.2v-12.6h2.1v10.5h11.1v2.1zm-27.8 7.6h20v2.1h-20zm0 10.5h20v2.1h-20zm0 10.5h20v2.1h-20zm-8.2-21h4v2.1h-4zm0 10.5h4v2.1h-4zm0 10.5h4v2.1h-4zm-50.8-79.9h1.5v7.9h-1.5zm8.4-2.9h1.5V240h-1.5z"/><path d="M214.2 247H175v43.8l9.8 9.6h29.4V247z" class="st9"/><path d="M192.1 259.5v4.4c-1.4 0-2.4.3-3.2.8-.7.4-1.2 1.1-1.5 2.1s-.4 2.4-.4 4.2h5.1v10.6h-10.5v-10.1c0-4.2.9-7.2 2.7-9.1 1.8-1.9 4.4-2.9 7.8-2.9Zm14.9 0v4.4c-1.4 0-2.4.3-3.2.7-.7.4-1.2 1.1-1.6 2.1-.3 1-.5 2.4-.5 4.2h5.2v10.6h-10.5v-10.1c0-4.2.9-7.2 2.6-9.1 1.8-1.9 4.4-2.9 7.9-2.9Z" style="fill:#ff3131"/><path d="M215.3 301.4h-30.9l-10.3-10.1V246h41.2v55.4Zm-30.1-2.1h28V248h-37.1v42.4l9.1 8.9Z"/><path d="M187.1 300h-2v-9.5h-10v-2h12V300z"/><path d="M490.1 309.1h49.2v-55l-12.2-12h-37v67z" class="st9"/><path d="M497.6 264.1h33v2.8h-33zm0 10h33v2.8h-33z"/><path d="M540.3 310.1h-51.2v-69h38.4l12.8 12.6v56.5Zm-49.2-2.1h47.1v-53.5l-11.6-11.4h-35.5V308Z"/><path d="M539.2 256.8h-14.8v-14.2h2v12.1h12.8v2.1zm-16.9 44.1v-3.6c1.1 0 2-.3 2.6-.6.6-.4 1-.9 1.2-1.7s.4-1.9.4-3.4h-4.2V283h8.5v8.2c0 3.4-.7 5.9-2.2 7.4s-3.6 2.4-6.4 2.4Zm-12.1 0v-3.6c1.1 0 2-.3 2.6-.6.6-.3 1-.9 1.3-1.7s.4-2 .4-3.4h-4.2V283h8.6v8.2c0 3.4-.7 5.9-2.1 7.4-1.4 1.6-3.6 2.4-6.4 2.4Z"/></svg>