<svg xmlns="http://www.w3.org/2000/svg" id="Layer_1" version="1.1" viewBox="0 0 758.5 362.4"><defs><style>.st0{fill:#dbe2ea}.st3{fill:#0ad0bc}.st6{fill:#fff}.st3{opacity:.8}</style></defs><path d="M616.1 68.9c72.1 0 130.6 58.5 130.6 130.6s-58.5 130.6-130.6 130.6H0V68.8h616.1Z" style="fill:#0ad0bc;isolation:isolate;opacity:.2"/><path d="M653.4 99.3H469.2v151.1h94.4l15.9 24.7 16.1-24.7h57.8V99.3z"/><path d="M641.3 91.6h-187v151.1h94.4l16 24.7 16-24.7h60.6V91.6z" class="st6"/><path d="m564.7 268.4-16.2-25.2h-94.6V91.1H642v152.1h-60.8l-16.3 25.2Zm-109.8-26.3H549l15.7 24.3 15.8-24.3h60.4V92.2H455v150Z"/><path d="M500.2 151.9h107.6v5.1H500.2zm0 21.5h107.6v5.1H500.2zm0 21.5h60.2v5.1h-60.2z" class="st3"/><path d="M608.4 157.5H499.7v-6.2h108.7v6.2Zm-107.7-1.1h106.5v-4H500.7v4Z"/><path d="M500.2 130h107.6v5.1H500.2z" class="st3"/><path d="M608.4 135.6H499.7v-6.2h108.7v6.2Zm-107.7-1.1h106.5v-4H500.7v4ZM608.4 179H499.7v-6.2h108.7v6.2Zm-107.7-1.1h106.5v-4H500.7v4Zm60.2 22.6h-61.2v-6.2h61.2v6.2Zm-60.2-1.1h59.1v-4h-59.1v4Z"/><path d="M475.3 38.4H267.2c-14.8 0-26.8 12-26.8 26.8s12 26.8 26.8 26.8h74.5l12 14.4 12-14.4h109.5C490 92 502 80 502 65.2s-12-26.9-26.8-26.9Z" class="st6"/><path d="M475.3 38.4H267.2c-14.8 0-26.8 12-26.8 26.8s12 26.8 26.8 26.8h74.5l12 14.4 12-14.4h109.5C490 92 502 80 502 65.2s-12-26.9-26.8-26.9Z" style="opacity:.2;fill:#ff3131"/><path d="M354.2 106.7 341.9 92h-74.3c-15.1 0-27.4-12.3-27.4-27.4s12.3-27.4 27.4-27.4h207.6c15 0 27.3 12.2 27.4 27.3 0 7.3-2.8 14.2-8 19.4-5.2 5.2-12 8-19.4 8H366.4l-12.3 14.7Zm-86.6-68.3c-14.5 0-26.3 11.8-26.3 26.3S253.1 91 267.6 91h74.8l11.8 14.1L366 91h109.3c7 0 13.6-2.7 18.6-7.7 5-5 7.7-11.6 7.7-18.6 0-14.4-11.8-26.2-26.3-26.2H267.7Z"/><path d="M373.1 74.3c-5.8 0-10-1.8-13-3.2-6.1-2.7-19.3-4.9-27.2-1.7-7.9 3.2-14.1 3.9-19.3 2.2-.5-.2-1-.4-1.7-.6-5.9-2.1-18.2-6.3-26.9-2.2-9.9 4.8-20.9 1.4-21.4 1.3l.3-1c.1 0 11 3.4 20.6-1.2 9.1-4.4 21.7 0 27.7 2.1.6.2 1.2.4 1.7.6 4.9 1.6 10.8.9 18.5-2.2 8.1-3.3 21.7-1.1 28 1.7 5.1 2.2 13.6 6 27.8-.7 3.2-1.5 6.5-2.6 9.8-3.2l.2 1.1c-3.2.6-6.4 1.7-9.5 3.1-6.2 2.9-11.3 3.9-15.6 3.9Z"/><path d="M480.2 74.3c-5.4 0-9.4-1.6-13.1-3.2-5.2-2.3-14.3-4.1-21.6-3h-.7c-1.9.4-3.5.8-4.9 1.4-7.9 3.2-14.1 3.9-19.3 2.2-.5-.2-1-.4-1.7-.6-5.9-2.1-18.2-6.3-26.9-2.2l-.5-1c9.1-4.4 21.7 0 27.7 2.1.6.2 1.2.4 1.7.6 4.9 1.6 10.8.9 18.5-2.2 1.5-.6 3.3-1.1 5.2-1.3h.7c7.8-1.2 17 .8 22.1 3 3.6 1.6 7.6 3.1 12.9 3.1v1.1h-.3ZM373.1 61.2c-5.8 0-10-1.8-13-3.2-6.1-2.7-19.3-4.9-27.2-1.7-8 3.2-14.1 3.9-19.3 2.2-.5-.2-1-.4-1.7-.6-5.9-2.1-18.2-6.3-26.9-2.2-9.9 4.8-20.9 1.4-21.4 1.3l.3-1c.1 0 11 3.4 20.6-1.2 9.1-4.4 21.7 0 27.7 2.1.6.2 1.2.4 1.7.6 4.9 1.6 10.8.9 18.5-2.2 8.1-3.3 21.7-1.1 28 1.7 5.1 2.2 13.6 6 27.8-.7 3.2-1.5 6.5-2.6 9.8-3.2l.2 1.1c-3.2.6-6.4 1.7-9.5 3.1-6.2 2.9-11.3 3.9-15.6 3.9Z"/><path d="M480.2 61.2c-5.4 0-9.4-1.6-13.1-3.2-5.2-2.3-14.3-4.1-21.6-3h-.7c-1.9.4-3.5.8-4.9 1.4-8 3.2-14.1 3.9-19.3 2.2-.5-.2-1-.4-1.7-.6-5.9-2.1-18.2-6.3-26.9-2.2l-.5-1c9.1-4.4 21.7 0 27.7 2.1.6.2 1.2.4 1.7.6 4.9 1.6 10.8.9 18.5-2.2 1.5-.6 3.3-1.1 5.2-1.3h.7c7.8-1.2 17 .8 22.1 3 3.6 1.6 7.6 3.1 12.9 3.1v1.1h-.3Z"/><path d="M451.9 156.6h-9.1l9.7-38.7h9.1l-9.7 38.7zm-45.4-12.3 10.1.2s3.9.7 4.5 1.7 4.3 8.4 4.3 8.4.1 2.3-2 .3c-2.2-2-2.6-3.1-2.7-2.4s0 3.6-.2 3.6-2.2-2.7-2.2-2.7-1-2.5-1.7-2.1-5.9.6-8.7-.6c-2.9-1.2-1.3-6.4-1.3-6.4Z" class="st6"/><path d="M413.2 156.6h39.7v4h-39.7z"/><path d="M464.3 230.8h-87l20.4-69.8h66.6v69.8z" class="st0"/><path d="m374.9 216.7-3 2.1-2.6 10.9 28.3.4s1.2-2.4-2.6-3.7c-3.8-1.3-5.2-2.1-5.1-6.2 0-4.1-15-3.5-15-3.5Zm7.4-118.5-3.2 5.8-2.3 13.4 8.6 14.8 5.5-14.5s1.7-.5 3.2-.3 4.5-.9 5.8-4.6c1.3-3.7 3.2-14.9 3.2-14.9l-21 .3Z" class="st6"/><path d="M367.3 230.3h-34v-45.2h54.1l-20.1 45.2z" class="st0"/><path d="m381.4 184.9-10.6 36.8h21.9l14.7-49.3c1-5.5-4.1-11.3-9.7-11.4l-53.7-1.1-2 3.7-3.8 9.8c0 6 5.2 11.5 11.2 11.5h32.1Z"/><path d="m389 143.3 11.6 1h8.2c0 .1.3 2.7.3 2.7l.2 7.5h-2.4l-26.3.9-2.6 5.8h-34.5l23.7-38.6s11-14.4 17.4-7.3c2.7 2.9 2.6 9.6 3.1 15.7.5 6.4 1.5 12.2 1.5 12.2Z" style="fill:#ff3131"/><path d="m377.02 160.571 2.89-5.598 1.333.688-2.89 5.598z"/><path d="m370.3 161.8-27.8-.8.6-1.1c0-.1 6.5-11.3 13.8-22.6 14.9-23.1 18.9-24.1 20.2-24.4 2.5-.6 4.6-.4 6.4.8 3.1 2 3.7 6.1 3.7 6.2l2 22.5 20.8 1.5v11.4l-33.7.7-3.7-23.6 1.5-.2 3.5 22.3 30.9-.6v-8.6l-20.6-1.5-2.2-23.8s-.6-3.5-3.1-5.2c-1.4-.9-3.1-1.1-5.1-.6-6 1.5-24.9 32.2-32.4 45.3l25.3.7v1.5Z"/><path d="m388.1 129.1-1.4-.4 3.9-13 .7.2s5.9 2 7.1-1.5c1.4-4.1 3.3-13.5 3.3-13.6l1.5.3c0 .4-1.9 9.6-3.3 13.8-1.3 4-6.3 3.1-8.3 2.6l-3.4 11.5Zm-11.352-15.806 1.036-3.76 1.446.398-1.036 3.76z"/><path d="m378.3 109.4 8.3-2.4s-3.1-3-.8-4.6c2.3-1.6 4.5 2 4.5 2l1-.2.2-5.1s10.6 3.3 13 1c2.5-2.2-3.1-5.6-3.1-5.6s4.7-2 1.9-2.7c-2.8-.8-5.6-.4-5.6-.4s-3.7-2.9-7.1-2.7c-3.4.2-22.5 2.6-12.5 20.7Z"/><path d="m377.9 110.3-.3-.5c-3.2-5.9-3.8-10.7-1.7-14.5 3.6-6.5 13.7-7.2 14.8-7.3 3.2-.2 6.5 2 7.4 2.7.8 0 3.2-.2 5.6.5.9.2 1.4.7 1.4 1.3 0 .9-.9 1.7-2.1 2.3 1.2.9 2.8 2.4 2.9 3.9 0 .8-.2 1.5-.9 2.1-2.3 2.1-9.8.3-12.8-.6l-.2 4.7-2.1.4-.3-.4c-.3-.5-1.4-1.9-2.4-2.1-.4 0-.7 0-1 .2-.4.3-.5.6-.5.8 0 1 1 2.2 1.4 2.6l.9.9-10.1 2.9Zm13.2-20.8h-.3c-.4 0-10.3.6-13.6 6.5-1.8 3.2-1.3 7.4 1.5 12.5l6.6-1.9c-.5-.7-1.1-1.8-1-2.9 0-.8.4-1.4 1.1-1.9.7-.5 1.4-.7 2.2-.5 1.4.3 2.5 1.6 3.1 2.3l.2-5.4.9.3c3.9 1.2 10.7 2.6 12.3 1.2.4-.3.4-.6.4-.8-.1-1.2-2.1-2.8-3.3-3.6l-1.3-.8 1.4-.6c.9-.4 1.8-.9 2.2-1.3h-.2c-2.6-.7-5.3-.4-5.3-.4h-.3l-.2-.2s-3.3-2.6-6.3-2.6Zm-.6 132.3h-20.9l10.9-36h-32.4c-6.2-1.4-8.6-6.6-8.7-6.8-3.9-9.9 7.5-25.5 8-26.2l1.2.9c-.1.2-11.5 15.6-7.8 24.7 0 0 2.2 4.7 7.6 5.9h34.2l-10.9 36h17.9l17.1-46.3v-.3c.6-2.9-.2-5.9-2.1-8.2-1.9-2.3-4.8-3.7-7.8-3.7H370v-1.5h26.8c3.5 0 6.7 1.5 9 4.2 2.2 2.6 3.1 6.1 2.4 9.4v.4l-17.5 47.3Z"/><path d="M399.4 230.7h-31.7l2.4-10.1 1.5.3-2 8.3h27.6c-1-1.5-2.8-2-4.5-2.4-.5-.1-1.1-.3-1.5-.4-2.4-.8-2.3-3.9-1.9-5.6l1.5.4s-.8 3.2.9 3.8c.4.1.9.3 1.4.4 2.3.6 5.1 1.3 6.1 4.4l.3 1Zm21.1-73.2c-.5 0-1.1-.3-1.6-1.1-.4-.7-1.4-2.9-1.9-4.2-1.2.6-3.7 1.1-8-.4l.5-1.4c5.4 1.9 7.3.2 7.3.2l.8-.7.4 1s1.2 2.9 1.9 4.2l-.3-5.3 1.5 1.7c.8 1 2.3 2.6 2.9 3l-4.1-8.6c-.2-.4-.6-.7-1-.7h-10v-1.5h10c1 0 2 .6 2.4 1.5l4.6 9.5-.2.4c0 .1-.5.7-1.2.9-.3 0-.8 0-1.3-.3-.4-.3-1.1-1-1.7-1.7l.2 2.9-.4.2c-.2 0-.4.1-.6.1Zm-40.09 28.396 2.197-7.275 1.436.433-2.197 7.276zM465.6 230.7h-59.8v-1.5h58.3V162h-58.3v-1.5h59.8v70.2z"/><path d="M414.3 161h-2v-5.7h29.3l10-38 12.1-.6-9.8 40.6h-39.6v3.7Zm29.4-5.7h8.6l8.8-36.4-7.9.4-9.5 36Z"/><path d="M452.7 156h1.5v4.7h-1.5zm-84.3 74.5h-36v-46.8h14.3v1.5h-12.8V229h34.5v1.5zm27.453-122.566.448-2.764 1.382.224-.448 2.764zM347.9 120.4h1.5v4.1h-1.5zm0 7.9h1.5v4.1h-1.5zm2.6-2.6h4.1v1.5h-4.1zm-7.8 0h4.1v1.5h-4.1zm92.3-20.1h1.5v4.1H435zm0 7.9h1.5v4.1H435zm2.6-2.6h4.1v1.5h-4.1zm-7.9 0h4.1v1.5h-4.1zm-12.1 18.2c-1.9 0-3.4-1.5-3.4-3.4s1.5-3.4 3.4-3.4 3.4 1.5 3.4 3.4-1.5 3.4-3.4 3.4Zm0-5.3c-1 0-1.9.9-1.9 1.9s.9 1.9 1.9 1.9 1.9-.9 1.9-1.9-.9-1.9-1.9-1.9Z"/><path d="M490.1 229.9h35.8v71.4H405.2l-.8 18.3-29.2-18.3H273v-71.4h217.1z" class="st6"/><path d="M404.9 320.5 375 301.8H272.4v-72.5h254v72.5H405.6l-.8 18.7Zm-131.4-19.8h101.8l28.6 17.9.8-17.9h120.7v-70.3H273.6v70.3Z"/><path d="M320.3 244.1V103.9h-147v50.7l-24.7 15.9 24.7 16.1v57.5h147z"/><path d="M311.2 231.8V91.6h-147v50.7l-24.7 15.9 24.7 16.1v57.5h147z" class="st6"/><path d="M312 232.6H163.5v-57.9l-25.3-16.5 25.3-16.4v-51H312v141.7Zm-147-1.5h145.5V92.4H165v50.3l-24.1 15.5 24.1 15.6V231Z"/><path d="M180.4 151.5h115.8v5.1H180.4zm0 21.7h115.8v5.1H180.4zm0 22.2h96.1v5.1h-96.1z" class="st0"/><path d="M296.7 157.2H179.8V151h116.9v6.2Zm-115.8-1.1h114.7v-4H180.9v4Z"/><path d="M180.4 128.8h115.8v5.1H180.4z" class="st0"/><path d="M296.7 134.5H179.8v-6.2h116.9v6.2Zm-115.8-1.1h114.7v-4H180.9v4Zm115.8 45.4H179.8v-6.2h116.9v6.2Zm-115.8-1.1h114.7v-4H180.9v4ZM277 201h-97.2v-6.2H277v6.2Zm-96.1-1.1h95v-4h-95v4Zm131.7 55h136.7v1.1H312.6zm0 23h136.7v1.1H312.6zm0-12.6h182.3v1.1H312.6z"/></svg>