<svg xmlns="http://www.w3.org/2000/svg" id="Layer_1" version="1.1" viewBox="0 0 758.5 362.4"><defs><style>.st0{fill:#dbe2ea}.st3{fill:#0ad0bc}.st4{fill:#ff3131;opacity:.5}.st5{fill:#fff}.st3{opacity:.7}</style></defs><path d="M616.1 68.9c72.1 0 130.6 58.5 130.6 130.6s-58.5 130.6-130.6 130.6H0V68.8h616.1Z" style="fill:#0ad0bc;isolation:isolate;opacity:.2"/><path d="M168.5 62.1h185v153.2h-185z"/><path d="M154.4 46.5h185v153.2h-185z" class="st5"/><path d="M340.1 200.5H153.6V45.8h186.5v154.7Zm-185-1.5h183.5V47.3H155.1V199Z"/><circle cx="263" cy="119.4" r="57.7" class="st5"/><path d="M263 177.8c-32.2 0-58.5-26.2-58.5-58.5s26.2-58.5 58.5-58.5 58.5 26.2 58.5 58.5-26.2 58.5-58.5 58.5Zm0-115.4c-31.4 0-57 25.6-57 57s25.6 57 57 57 57-25.6 57-57-25.6-57-57-57Z"/><path d="M412.3 138c-55 0-99.5 44.6-99.5 99.5s44.6 99.5 99.5 99.5 99.5-44.6 99.5-99.5-44.6-99.5-99.5-99.5Zm0 145.3c-25.2 0-45.7-20.5-45.7-45.7s20.5-45.7 45.7-45.7 45.7 20.5 45.7 45.7-20.5 45.7-45.7 45.7Z" class="st5"/><path d="M412.3 337.9c-55.3 0-100.3-45-100.3-100.3s45-100.3 100.3-100.3 100.3 45 100.3 100.3-45 100.3-100.3 100.3Zm0-199.1c-54.5 0-98.8 44.3-98.8 98.8s44.3 98.8 98.8 98.8 98.8-44.3 98.8-98.8-44.3-98.8-98.8-98.8Zm0 145.2c-25.6 0-46.4-20.8-46.4-46.4s20.8-46.4 46.4-46.4 46.4 20.8 46.4 46.4-20.8 46.4-46.4 46.4Zm0-91.4c-24.8 0-44.9 20.2-44.9 44.9s20.2 44.9 44.9 44.9 44.9-20.2 44.9-44.9-20.2-44.9-44.9-44.9Z"/><path d="M262.9 61.7c-31.8 0-57.6 25.9-57.6 57.7s25.8 57.6 57.6 57.7V61.7Z" class="st0"/><path d="m314.8 94.5-51.3 25.3h56.6c0-.1.6-13.3-5.2-25.3Z" class="st4"/><path d="M263.2 61.4v58.8l52-25.9s-10.5-30.8-52-32.9Z" class="st3"/><path d="M263 177.8c-32.2 0-58.5-26.2-58.5-58.5s26.2-58.5 58.5-58.5 58.5 26.2 58.5 58.5-26.2 58.5-58.5 58.5Zm0-115.4c-31.4 0-57 25.6-57 57s25.6 57 57 57 57-25.6 57-57-25.6-57-57-57Z"/><path d="M262.3 120.9V61.7h1.5v56.8l50.4-24.2.7 1.3-52.6 25.3z"/><path d="M533.9 50.2h13.4v73.3h-13.4z" class="st0"/><path d="M535.5 122.4V50h13.6v73.2" class="st3"/><path d="M549.9 123.2h-1.5V50.7h-12.1v71.7h-1.5V49.2h15.1v74z"/><path d="M477.3 122.4V62.8h13.5v60.4" class="st5"/><path d="M477.3 122.4V62.8h13.5v60.4" class="st4"/><path d="M491.6 123.2h-1.5V63.6H478v58.8h-1.5V62.1h15.1v61.1z"/><path d="M565.2 81.3h13.4v41.9h-13.4z" class="st3"/><path d="M339.9 122.8h267.5v1.5H339.9zm-75.7 53.7h-1.5V119h58.5v1.5h-57v56z"/><path d="M507.9 122.4V70.5h13.6v52.7" class="st5"/><path d="M522.2 123.2h-1.5v-52h-12v51.2h-1.5V69.7h15v53.5z"/><path d="M446.8 122.4V93.1h13.6v30.1" class="st5"/><path d="M461.2 123.2h-1.5V93.9h-12.1v28.5h-1.5v-30h15.1v30.8zm118 0h-1.5V82.4h-12.1v40h-1.5V80.9h15.1v42.3z"/><path d="m460.1 148.6-32.7 49.2-47.2 24.1-18.2 13.6-.4.4-7.8 10.8s-1.3 11.5 7.2 18.8l12.1 3.2h.3l21.7-.3 49.7-9.6 64.7 19.2-49.3-129.4Z" class="st5"/><path d="m432.4 245.9-47.8 11.3-19.8.6h-7.2s3.8 5.3 11.6 7.5c7.9 2.2 21.5.5 21.5.5l49.8-9.6 53.1 12.4s-9.7-11-19.2-27.2l-42.1 4.4Z" class="st3"/><path d="m362.7 236.4-1.2-1.6 18.4-13.7 47-24 32.5-49 1.7 1.1-32.9 49.5-47.3 24.1-18.2 13.6zM509.3 279l-64.5-19.1-49.6 9.6-21.7.3-.1-2 21.7-.3 49.8-9.6 64.9 19.2-.5 1.9z"/><ellipse cx="493.7" cy="208.9" class="st5" rx="30.1" ry="73" transform="rotate(-19.3 493.067 208.796)"/><path d="M510 278.7c-15.5-3.3-34.1-27.8-45.3-59.7-9.8-27.9-11.6-55.4-4.8-70l1 .5c-6.7 14.4-4.8 41.5 4.9 69.2 11 31.5 29.3 55.7 44.5 59l-.2 1.1Z"/><path d="M513.5 279.5c-1.6 0-3.1-.2-4.4-.5l.4-2c2.8.6 6 .5 8-.2 7.2-2.5 11.6-11.9 12.4-26.3.8-14.8-2.3-33-8.7-51.3-13.1-37.5-36.1-63.7-51.3-58.3-3.8 1.3-7.1 4.5-9.1 8.8l-1.8-.8c2.2-4.8 5.9-8.3 10.2-9.8 8-2.8 18 2 28.3 13.4 10 11.2 19.1 27.6 25.6 46.1s9.6 37 8.8 52c-.8 15.3-5.7 25.3-13.7 28.1-1.4.5-3.1.7-4.7.7Z"/><ellipse cx="493.7" cy="208.9" rx="26.6" ry="64.5" style="opacity:.2;fill:#0ad0bc" transform="rotate(-19.3 493.067 208.796)"/><path d="M511.2 271c-13.9 0-32.4-22.3-43.2-53.1-11.8-33.9-10-65.4 4.2-70.4 14.2-4.9 35.3 18.6 47.1 52.4 11.8 33.9 10 65.4-4.2 70.4-1.3.4-2.6.7-4 .7Zm-34.9-123.1c-1.3 0-2.5.2-3.7.6-13.6 4.8-15.2 35.7-3.5 69 11.6 33.3 32.2 56.5 45.7 51.8 13.6-4.8 15.2-35.7 3.5-69-10.6-30.4-28.7-52.4-42-52.4Z"/><ellipse cx="485.3" cy="212.2" class="st5" rx="7.1" ry="17.2" transform="rotate(-19.3 484.672 211.906)"/><path d="M490 229.1c-1.8 0-3.8-1.2-5.8-3.5-2.4-2.7-4.6-6.6-6.1-11s-2.3-8.8-2.1-12.4c.2-3.7 1.4-6.2 3.4-6.9 2-.7 4.5.5 7 3.3 2.4 2.7 4.6 6.6 6.1 11s2.3 8.8 2.1 12.4c-.2 3.7-1.4 6.2-3.4 6.9-.4.1-.8.2-1.2.2Zm-9.3-32.8c-.3 0-.6 0-.8.1-1.5.5-2.5 2.7-2.7 5.9-.2 3.4.5 7.7 2 12s3.6 8 5.9 10.6c2.2 2.4 4.3 3.5 5.8 2.9 1.5-.5 2.5-2.7 2.7-5.9.2-3.4-.5-7.7-2-12s-3.6-8-5.9-10.6c-1.8-2-3.6-3.1-5-3.1Z"/><path d="m463.29 197.725 16.315-2.468.165 1.088-16.315 2.467zm13.157 38.271 14.97-8.264.533.963-14.97 8.264zM404.1 266.9l21.4 34.3c2.8 4.5 1.1 10.5-3.6 12.8-4.1 2.1-9.2.7-11.6-3.2l-26.6-42 12-.3 8.4-1.6Zm-30.8 2.9-12.6-3.4h-.2c-8.8-7.7-7.3-19.6-7.3-20.1v-.3l8.3-11.4 1.6 1.2-8 11c-.1 1.7-.7 11.4 6.4 17.7l12.2 3.2-.5 1.9Z"/><path d="M372.8 269c-15.3-13-11.3-33-11.3-33.2l1.1.2c0 .2-3.9 19.6 10.9 32.2l-.7.8Zm22.1 0c-.4-.2-9.9-5.2-15.1-21.5-5.2-16.2-.6-24.5-.4-24.8l.9.5s-4.5 8.2.5 23.9c5 15.8 14.5 20.8 14.6 20.8l-.5 1Zm49.7-9.6c-.5-.3-12.7-6.8-18.4-28.5-5.7-21.7.6-32.8.8-33.3l.9.5c0 .1-6.3 11.3-.7 32.5 5.5 21.2 17.7 27.7 17.8 27.8l-.5 1ZM229 96l-25.8-20.4h-17.5v-1.5h18l26.2 20.7-.9 1.2z"/><path d="M181.3 79.9c-2.7 0-4.9-2.2-4.9-4.9s2.2-4.9 4.9-4.9 4.9 2.2 4.9 4.9-2.2 4.9-4.9 4.9Zm0-8.4c-1.9 0-3.5 1.5-3.5 3.5s1.5 3.5 3.5 3.5 3.5-1.5 3.5-3.5-1.5-3.5-3.5-3.5Zm0 92.1c-2.7 0-4.9-2.2-4.9-4.9s2.2-4.9 4.9-4.9 4.9 2.2 4.9 4.9-2.2 4.9-4.9 4.9Zm0-8.4c-1.9 0-3.5 1.5-3.5 3.5s1.5 3.5 3.5 3.5 3.5-1.5 3.5-3.5-1.5-3.5-3.5-3.5Z"/><path d="M185.5 157.9h96.4v1.5h-96.4z"/><rect width="103.2" height="75.2" x="556.6" y="165.6" rx="7.1" ry="7.1"/><rect width="103.2" height="75.2" x="548.8" y="156.9" class="st5" rx="7.1" ry="7.1"/><path d="M644.8 233.2h-88.9c-4.5 0-8.1-3.6-8.1-8.1v-61c0-4.5 3.6-8.1 8.1-8.1h88.9c4.5 0 8.1 3.6 8.1 8.1v61c0 4.5-3.6 8.1-8.1 8.1Zm-88.9-75.3c-3.4 0-6.1 2.7-6.1 6.1v61c0 3.4 2.8 6.1 6.1 6.1h88.9c3.4 0 6.1-2.7 6.1-6.1v-61c0-3.4-2.7-6.1-6.1-6.1h-88.9Z"/><path d="M579.1 187.9h-20.2v-20.2h20.2v20.2Zm-18.7-1.5h17.2v-17.2h-17.2v17.2Zm18.7 32.8h-20.2V199h20.2v20.2Zm-18.7-1.5h17.2v-17.2h-17.2v17.2Zm25.5-40.9h30.7v1.5h-30.7zm0 31h30.7v1.5h-30.7z"/></svg>