<svg xmlns="http://www.w3.org/2000/svg" width="603" height="812" fill="none"><path fill="#000" d="m250.3 16.7-.3-1c.2 0 17.2-5.7 36.5-6.8V10c-19.1 1.1-36 6.7-36.2 6.7Zm109.9 6.7C350 16.5 338.3 15 338.1 15v-1.1c.2 0 12.2 1.5 22.7 8.6l-.6.9Z"/><path fill="#fff" d="M587.6 456.9H.7v140.5h586.9V456.9ZM468.6 192l12.7-6.3s8.6-16.4 16-19.6c0 0 2.9-1.7 4.4 0 1.4 1.7-2.7 7.4-2.7 7.4s-1.2 2.5-2.2 4.9l1.1-.6s9.3-8.8 14-11.9c4.6-3.1 10.2-5.6 11.3-4.1 1 1.5 0 3.1 0 3.1s-9.5 8.1-11.4 10.4l-1.2 2.3s8.1-5.5 11.5-7.7c3.5-2.2 7.3-2.8 7.3-2.8s1.7.6 1.9 2c.3 1.4-1 3.3-1 3.3s2.7 1.2 2.4 2.4c-.3 1.2-6.7 7.6-6.7 7.6l-8.8 6.5.9 1.8 11.1-6.1s2.9-1.5 4.1-.1c1.2 1.4.1 3.1-1.3 4.5-1.4 1.4-7.4 7.3-7.4 7.3s-7.9 8.8-8.3 9.2c-.4.4-7.7 7.4-12.8 9.1-5.1 1.7-22.3 9.2-22.3 9.2l-12.7-31.9.1.1Z"/><path fill="#fff" d="M357.6 126.3s5.7-1.5 10.6 5c4.9 6.5 11.2 20.7 13.8 25.4 2.6 4.6 25.8 59.6 25.8 59.6s.5 3.5 3.3 2.6c2.8-.9 62.6-29.3 62.6-29.3l10.2 37.6s2.9 7.5-1.6 10.6c-4.5 3.1-52.5 26.4-63.7 28.9-11.2 2.5-20.4 8-34.4 1.9s-21-21.9-21-21.9l-5.6-120.4Zm75.284 229.386-4.316-10.118-14.901 6.355 4.316 10.119 14.901-6.356Z"/><path fill="#fff" d="M495.7 395.5c40.041 0 72.5-32.459 72.5-72.5s-32.459-72.5-72.5-72.5c-40.04 0-72.5 32.459-72.5 72.5s32.46 72.5 72.5 72.5ZM44.4 357.9c23.196 0 42-18.804 42-42s-18.804-42-42-42-42 18.804-42 42 18.804 42 42 42Z"/><path fill="#0AD0BC" d="M70.9 98.6v50.3l-.4.2s-18.4 7.1-28.6 23.7v-50C52.1 106.2 70.8 99 70.8 99" opacity=".7"/><path fill="#fff" d="m139.8 30.4.4 70.4v.9c-51.2 7.9-82.8 33.6-82.8 33.6V66.6s31.2-29.3 82.4-37.2"/><path fill="#FF3131" d="m139.8 30.4.4 70.4v.9c-51.2 7.9-82.8 33.6-82.8 33.6V66.6s31.2-29.3 82.4-37.2" opacity=".2"/><path fill="#000" d="M41.3 174.8v-52.1c9.5-15.7 26.7-23.1 28.9-24h1v50.6l-.7.4c-.2 0-18.4 7.3-28.3 23.5l-1 1.6h.1Zm1.1-51.8v48c10.1-15 26.9-22 27.8-22.3V99.9c-3.3 1.4-19 8.7-27.9 23.1h.1Z"/><path fill="#fff" d="M110.9 168.7s-3.9 6.9-2.6 14.4c1.3 7.6 13.2 20 13.2 20s24.1 29.6 32.1 36.2c8 6.5 18.9 18.2 29.4 18.8 10.5.6 15.4-9 17.1-11.6 1.7-2.6 23.2-46.6 23.2-46.6l-1.7 40.7-.8 65.3 150.5 2.4-2.4-57.3-4.9-112.5-.4-12.8s-9.5-7.7-24-10.1c-14.5-2.5-29.3-6.5-29.3-6.5l-32-3.8h-16.6c0-.1-31.7-3.7-41.3 9.1 0 0-14.1 21.2-18.6 29-4.5 7.8-27.5 54.7-27.5 54.7s-.9 3.8-3.9.6c-3-3.2-34.7-43.6-34.7-43.6l-24.8 13.4v.2Zm116.399-81.9s-11.7.2-15.5-4.1c-3.8-4.3-10.899-48.6 2.401-59.2 3.7-3 7.799-4.6 12.699-4.7 4.2-.1 8.301 1.3 11.301 4.1 0 0 6.9 5.8 8.5 19.8 1.1 10.2 3.4 42.3-20.1 44.1"/><path fill="#fff" d="M319.2 111.6s-1.3-.6-1.6-2.4c-.2-1.8-.4-23.8-.4-23.8s-.6-4.8 1.3-5.1c2-.4 6.7-.9 8.9-6.8 2.2-6 3.7-18.9 3.8-25.9.1-7-.5-15.3-1.2-18.1-.7-2.8-3.5-12-3.5-12l-16.3-7.8-16.3 5.4-13.8 13-.6 16.9s-2.3.4-4.4 0c-2.1-.4-4 2.1-4.6 4.9-.6 2.8-.5 4.7 1.6 6 2.1 1.3 5 .8 4.5 4.1S274 98 274 98s.9 8.4-1.7 7.9l46.9 5.8v-.1Zm59-18.5s6.8.3 8.6-5.1c2.7-8.5 4-13.3 5-18.6h.7s.1 0 3.5-.8c2.1-.5-2.7-11.5-2.7-11.5v-.9c0-11.6-1.8-23-7.6-27.7-3.7-3-7-3-8.4-3-3.4 0-4.2 1.1-6 5.6-.3.7-2.6-.5-3.4-.4-2.6.4-3.1 1.4-3.1 1.5 0 0-4.4 3.3-5.9 17.2-1.1 10.1-3.4 41.8 19.9 43.6m25.3 688.4h34.3v-38.5l-8.5-8.3h-25.8v46.8Zm-80.5-33.3h-27.8v31.1l6.9 6.8h20.9v-37.9Zm-113.8 8.5h-34.4V795l8.6 8.4h25.8v-46.8Zm-90.3 6.7h29.6v-33.1l-7.4-7.2h-22.2v40.3Zm19-605s-22.5-33.5-25.9-35.8c-3.3-2.3-12.8-10.2-17.3-13-4.6-2.9-11.6-5-11.6-5s-1.8.6-2.2 1.8c-.4 1.2.5 3.2 2.1 5.3 1.6 2 8.7 6.2 8.7 6.2l5 7.9s-6-3.8-8.2-2.2c-2.2 1.6-3.1 5-3.1 5s-4.2.3-4.8 2.6c-.5 2.3.2 4.8.2 4.8s-3.7.7-4.3 2.9c-.6 2.2 1 3.7 1 3.7s6.4 8.9 9.7 8.7c.4 0 .8-.1 1.1-.2h-.2c0 .1 4.9 10.7 10.4 14.9 5.5 4.2 7 6.1 7 6.1l13.3 16.1 19-29.8h.1Z"/><path fill="#FF3131" d="m315.1 508.4-6.3 10.3s-2.7 2.9-.3 4.7c2.4 1.8 5.2 2.1 5.2 2.1s1.3.4 1.3-1.6.1-15.5.1-15.5Zm29.4 0 6.3 10.3s2.7 2.9.3 4.7c-2.4 1.8-5.2 2.1-5.2 2.1s-1.3.4-1.3-1.6-.1-15.5-.1-15.5Z" opacity=".8"/><path fill="#0AD0BC" d="m527.9 505.3-6.3 10.3s-2.7 2.9-.3 4.7c2.4 1.8 5.2 2.1 5.2 2.1s1.3.4 1.3-1.6.1-15.5.1-15.5Zm29.3 0 6.3 10.3s2.7 2.9.3 4.7c-2.4 1.8-5.2 2.1-5.2 2.1s-1.3.4-1.3-1.6-.1-15.5-.1-15.5Zm-527.5.3-6.3 10.3s-2.7 2.9-.3 4.7c2.4 1.8 5.2 2.1 5.2 2.1s1.3.4 1.3-1.6.1-15.5.1-15.5Zm29.4 0 6.3 10.3s2.7 2.9.3 4.7c-2.4 1.8-5.2 2.1-5.2 2.1s-1.3.4-1.3-1.6-.1-15.5-.1-15.5Z"/><path fill="#DBE2EA" d="M510.9 579.5H499l-6.6-33.1h18.5v33.1Zm-279.7-47.9h-46.1v48.3h46.1v-48.3Zm73.7 16.1h-35.6v32.2h35.6v-32.2Z"/><path fill="#DBE2EA" d="M358.4 531.4h-53.6v48.1h53.6v-48.1ZM164 579.5h-23.5v-31.2h37.4L164 579.5Zm319.2-47.9h-78.9v48.3h78.9v-48.3Zm-100 47.9h-23.5v-31.2h37.5l-14 31.2Z"/><mask id="a" width="183" height="95" x="60" y="308" maskUnits="userSpaceOnUse" style="mask-type:luminance"><path fill="#fff" d="M242.2 308.5H60.5v93.7h181.7v-93.7Z"/></mask><g mask="url(#a)"><path fill="#fff" d="M151.5 332.8c-40.1 0-72.5 32.5-72.5 72.5s32.5 72.5 72.5 72.5 72.5-32.5 72.5-72.5-32.5-72.5-72.5-72.5Zm0 101.2c-15.8 0-28.7-13-28.7-29s12.8-29 28.7-29c15.9 0 28.7 13 28.7 29s-12.8 29-28.7 29Z"/><path fill="#0AD0BC" d="M151.5 332.8c-40.1 0-72.5 32.5-72.5 72.5s32.5 72.5 72.5 72.5 72.5-32.5 72.5-72.5-32.5-72.5-72.5-72.5Zm0 101.2c-15.8 0-28.7-13-28.7-29s12.8-29 28.7-29c15.9 0 28.7 13 28.7 29s-12.8 29-28.7 29Z" opacity=".2"/><path fill="#000" d="M151.5 477.5c-40.3 0-73.1-32.8-73.1-73.1s32.8-73.1 73.1-73.1 73.1 32.8 73.1 73.1-32.8 73.1-73.1 73.1Zm0-145.1c-39.7 0-72 32.3-72 72s32.3 72 72 72 72-32.3 72-72-32.3-72-72-72Zm0 101.2c-16.1 0-29.2-13.1-29.2-29.2s13.1-29.2 29.2-29.2 29.2 13.1 29.2 29.2-13.1 29.2-29.2 29.2Zm0-57.3c-15.5 0-28.1 12.6-28.1 28.1 0 15.5 12.6 28.1 28.1 28.1 15.5 0 28.1-12.6 28.1-28.1 0-15.5-12.6-28.1-28.1-28.1Z"/></g><path fill="#0AD0BC" d="m274.8 536.8.4-18.8s.7-11.7 4-13.2 4.5 1.9 4.5 1.9.6 2.4 2.7 0 5.1-4.2 7.5-4c2.4.2 6 2.1 6.7 4.6.7 2.5.8 8.9.8 8.9l-.3 21-26.2-.5-.1.1Z"/><path fill="#DBE2EA" d="M44.3 273.9c-23.2 0-42 18.9-42 42s18.8 42 42 42v-84.1.1Z"/><path fill="#FF3131" d="m82.1 297.8-37.4 18.4h41.2s.4-9.7-3.8-18.4Z" opacity=".5"/><path fill="#000" d="M254 534.7h47.6v1.9c0 6.2-5 11.2-11.2 11.2H254v-13.1Z"/><path fill="#000" d="M269.4 543.2h-16.6v29.2h16.6v-29.2Zm-95 4.6-7.9 25.8h15.2l10.1-34.1c.7-3.8-2.2-7.3-6.1-7.4l-37.8-1.3-1.4 2.5-2.6 6.8c0 4.2 3.4 7.6 7.6 7.6h23l-.1.1Zm316.7 0 7.9 25.8h-15.2l-10.1-34.1c-.7-3.8 2.2-7.3 6.1-7.4l37.8-1.3 1.4 2.5 2.6 6.8c0 4.2-3.4 7.6-7.6 7.6h-23l.1.1Z"/><path fill="#DBE2EA" d="M68.7 528.6H15.8v50.5h52.9v-50.5Zm71.1 0h-67v50.5h67v-50.5Z"/><path fill="#0AD0BC" d="m359.4 532.9 2.5-25.3s3-3.5 4.3-5.1c1.3-1.6 6.6-1.6 6.6-1.6l9.1.8s3.3 2.2 4 5.2c.7 3 .8 9 2.5 8.9 1.7 0 10.1.6 10.1.6s1.2.3 1.2 1.1.2 4.5.2 4.5-.3 1.1-1.5 1.2c-1.2 0-10 1.1-10 1.1l.4 8.3-29.3.2-.1.1Zm-216.1 0-2.5-25.3s-3-3.5-4.3-5.1c-1.3-1.6-6.6-1.6-6.6-1.6l-9.1.8s-3.3 2.2-4 5.2c-.7 3-.8 9-2.5 8.9-1.7 0-10.1.6-10.1.6s-1.2.3-1.2 1.1-.2 4.5-.2 4.5.3 1.1 1.5 1.2c1.2.1 14 1.1 14 1.1l-.4 8.3 25.4.2v.1Z" opacity=".8"/><path fill="#0AD0BC" d="M394 253c-10.4-5-19.6-22.9-26.6-41.3l2.1 46.3c3.8 4.1 8.5 7.9 14.6 10.6 23.7 10.4 64.3-14.7 64.3-14.7s-30.8 10.4-54.5-.8l.1-.1Zm2.5-184s-7.1-2.7-8.2-1.6c-1.1 1.1 1.4 10 1.4 10s1-3.6 2.7-5.7c1.4-1.8 3.4-2.2 4.1-2.6V69ZM241 26.5s-4.1 11-1 14.8c3.1 3.8-8.3 39.6-27.1 43.3 0 0 14.8 6.9 24.4-1.6 9.6-8.5 11.3-23.4 10.2-34.9-1.1-11.4-4.4-19.6-6.5-21.7v.1Zm49.3 25.2s-5.2 33.6 26.8 46.3l.4-17s-11.3.4-17.4-4.4c-6.1-4.8-9.7-21.3-9.9-25l.1.1ZM44.5 273.6v42.8l37.9-18.9s-7.6-22.4-37.9-24v.1Zm177.6-70.4s21.9-50.6 23.8-44.4c1.9 6.2-24.8 243.4-24.8 243.4h-1.9c0 .1 2.9-199 2.9-199Z" opacity=".7"/><path fill="#000" d="m221.726 202.326-3.101 197.376 1.1.017 3.1-197.376-1.099-.017ZM371.2 293.3H221.4v1.1h149.8v-1.1Zm37-74.2c0-.2-7.1-17.6-17.9-42.5-.8-1.8-1.6-3.6-2.3-5.4-8.7-20.3-17-39.5-28.5-47.6-8.1-5.7-22.9-8.2-40.1-11.1l-1.5-.3.2-1.1 1.5.3c17.3 2.9 32.2 5.4 40.5 11.2 11.8 8.3 20.1 27.6 28.9 48.1.8 1.8 1.5 3.6 2.3 5.4 10.8 24.9 17.8 42.3 17.9 42.5l-1 .4v.1Zm-234.5-18-1-.4c1.6-3.5 38.4-85.9 54.6-92.3 9.3-3.7 24.5-4.7 45.2-3.1h.3v1.1h-.3c-20.5-1.6-35.6-.6-44.8 3-15.8 6.2-53.6 90.9-54 91.8v-.1Z"/><path fill="#000" d="m243.626 158.698-45.761 91.383.984.492 45.761-91.382-.984-.493ZM395.7 272.2c-9.5 0-18.5-5-26.6-15l.8-.7c8.2 10 17.2 14.9 26.8 14.5 26.6-1.1 86.8-34.9 87.4-35.2l.5.9c-.6.3-61 34.2-87.9 35.4h-1.1l.1.1Z"/><path fill="#000" d="M183 258.8c-3.3 0-6.6-.9-9.6-2.7-13.9-8.4-31-27-42.8-41-12.8-15.2-22.5-28.7-22.6-28.8l.9-.6c0 .1 9.7 13.5 22.5 28.7 11.8 14 28.7 32.5 42.5 40.8 8.2 4.9 18.9 2.4 23.9-5.7l.9.6c-3.5 5.6-9.6 8.7-15.8 8.7h.1Z"/><path fill="#000" d="M115.7 189.9h-1.2c-2.6-.4-4.6-1.5-5.8-3.3-2.6-4-1.1-9.9-1-10.1l1.1.3s-1.5 5.7.9 9.2c1.1 1.6 2.8 2.6 5 2.9 12.6 1.7 23.4-28.7 23.5-29l1 .4s-2.8 7.9-7.2 15.5c-5.5 9.6-11 14.4-16.4 14.4l.1-.3Z"/><path fill="#000" d="m139.045 159.185-.853.695 38.681 47.427.852-.696-38.68-47.426Zm178.515-78.28-.273 17.398 1.1.017.273-17.398-1.1-.017ZM274.7 92.3h-1.1c0-.2 1.3-17.3 2.4-35.4h1.1c-1.1 18.2-2.3 35.2-2.4 35.4Z"/><path fill="#000" d="M311.1 81.6h-.3v-1.1c.1 0 11.7.1 15.4-4 2.4-2.7 6.4-23.1 5-39.5-.8-9.9-3.3-16.8-7.4-20-7.6-6.1-20.2-4.6-28.7-1.4-8.8 3.3-15 8.8-15.9 13.9-.5 2.9-.6 4.5-.8 8.5 0 1.8-.2 4.1-.4 7.2h-1.1c.2-3.2.3-5.5.4-7.3.2-4 .3-5.6.8-8.6.9-5.5 7.4-11.2 16.6-14.7 8.7-3.3 21.7-4.9 29.7 1.5 4.3 3.5 6.9 10.5 7.8 20.8.8 10.1-.4 20.2-1.1 25.3-1.1 7.6-2.8 13.5-4.2 15-3.7 4.1-14.1 4.3-15.9 4.3l.1.1Zm158.221 109.965-72.68 33.429.459 1 72.681-33.43-.46-.999Z"/><path fill="#000" d="M482.7 236.9c-.5 0-1-.1-1.5-.4-3.9-2-7.4-11.3-9.1-16.7-2.5-7.7-4.3-16.4-4.4-21.2 0-2.6.1-4.6.5-5.9l1 .3c-.4 1.1-.5 3-.5 5.5.2 9.1 7 34 12.9 37 .8.4 1.4.4 2.1 0l.6.9c-.5.4-1.1.5-1.7.5h.1ZM317.6 114.3l-.4-16.2-42.4-4.9-1.5 14.4-1.1-.1 1.6-15.6 44.5 5.2.4 17.2h-1.1Zm-57.3 177.4h-1.1c.2-77.2-3.2-123.6-6-148.9-3.1-27.4-6.3-36.7-6.3-36.8l1-.4c.1.4 12.8 37.9 12.4 186.1Zm7.9 0h-1.1c.2-77.2-3.2-123.6-6-148.9-3.1-27.4-6.3-36.7-6.3-36.8l1-.4c.1.4 12.8 37.9 12.4 186.1Zm74.846-174.798-1.1.019 3.081 176.473 1.099-.019-3.08-176.473Zm6.701 1.417-1.1.018 2.752 175.178 1.1-.017-2.752-175.179ZM275.1 57.5c-1.2 0-2.4-.4-3.7-1.5-1.6-1.4-2.4-3.6-2.2-5.9.2-2.4 1.4-4.6 3.2-5.8 2.9-1.9 6 1 7.2 2.8l-.9.6s-3-4.3-5.7-2.5c-1.5 1-2.5 2.8-2.7 4.9-.2 2 .5 3.8 1.9 5 3 2.7 6.1.2 6.2.1l.7.8s-1.7 1.4-3.9 1.4l-.1.1Z"/><path fill="#000" d="M280.6 47.6s-.8-9 2.9-11.9c3.7-2.9 9.7-9 8-17.5 0 0 27.1-7.1 37.5 4.7 0 0 2.2-9.3-2.2-10.6-4.4-1.3-6.5-.1-8.2-7.7-1.7-7.6-13.8-3.9-17.3.7s-15.7 12.6-17.6 13.9c-1.9 1.3-5.3 3.4-5.7 8.4-.4 5.1-.8 17.9-.8 17.9s2.6 5 3.5 2.1h-.1Zm202.3 174.8s4.1 11 2.1 13.6c-2.9 3.8-6.8-4-9.5-9.4l7.4-4.2Zm18.7-28.2c-.1-8.1-6-12.1-6-12.1l-.3-.2v-.4c.7-2.5 3.4-8 3.5-8.3 1.6-2.3 3.5-5.9 2.7-6.8-1.1-1.3-3.6.1-3.7.1-7.2 3.1-15.7 19.2-15.8 19.4v.2l-12.9 6.4-.5-1 12.5-6.2c1-1.8 9-16.6 16.2-19.7 0 0 3.3-1.8 5 .1 1.6 1.9-1.8 6.9-2.6 8.1-.2.5-2.4 5.3-3.2 7.7 1.3 1 6.1 5.2 6.2 12.8h-1.1v-.1Z"/><path fill="#000" d="m483.9 223.5-.4-1c.6-.3 15.1-6.8 20.2-8.5 5.1-1.7 12.5-8.9 12.6-9 .3-.3 6.1-6.7 8.3-9.2 0 0 6.1-5.9 7.4-7.3 2.4-2.4 1.5-3.4 1.2-3.8-.7-.9-2.8 0-3.4.3l-11.6 6.4-1.4-2.7 9.2-6.8c3.1-3 6.3-6.5 6.5-7.2.1-.6-1.2-1.4-2.1-1.8l-.6-.3.4-.5c.3-.5 1.1-2 .9-2.9-.2-.9-1.1-1.4-1.5-1.6-.7.1-4 .9-6.9 2.7-3.4 2.1-11.4 7.6-11.5 7.7l-1.7 1.2 2.2-4.3c1.9-2.2 10.5-9.6 11.4-10.4.1-.3.7-1.3 0-2.4-.5-.8-4.8.4-10.5 4.2-4.5 3-13.8 11.8-13.9 11.9l-.7-.8c.4-.4 9.4-8.9 14-12 .4-.3 10.2-6.7 12-3.9 1.2 1.8 0 3.6 0 3.7h-.1c0 .2-9.3 8.1-11.3 10.4l-.2.4c2.6-1.7 7.4-5 9.8-6.5 3.5-2.2 7.3-2.9 7.5-2.9h.2s2 .8 2.3 2.5c.2 1.1-.4 2.5-.8 3.2.9.5 2.5 1.5 2.2 2.8-.3 1.3-5.3 6.3-6.8 7.8l-8.5 6.3.4.9 10.6-5.9c.1 0 3.4-1.7 4.8 0 1.2 1.4.7 3.2-1.3 5.2-1.4 1.4-7.4 7.2-7.4 7.3-.3.3-7.9 8.8-8.3 9.2 0 0-7.6 7.5-13 9.2-5 1.6-19.9 8.4-20 8.4h-.2Z"/><path fill="#000" d="m530.129 171.636-16.651 10.896.602.921 16.651-10.897-.602-.92Z"/><path fill="#000" d="M517.8 193.8c-1.1-5.9-10.5-17.3-10.6-17.4l.8-.7c.4.5 9.7 11.7 10.9 17.9l-1.1.2Zm-410.1-40.4c-4.8-5.5-3.3-13.3-2.6-15.8-1.2 0-3.5.2-5.7-.4-3.3-.9-6-2.4-6.9-4-.8-1.5-.1-2.7.4-3.1h.1l11.1-1.9 7.1 1.2-.2 1.1-6.9-1.1-10.6 1.8c-.2.2-.5.8 0 1.6.7 1.3 3.2 2.7 6.2 3.5 2.9.8 6.1.3 6.1.3h.9c0-.1-.3.7-.3.7s-3.1 9.6 2.1 15.5l-.8.7v-.1Z"/><path fill="#000" d="m89.2 151.6-.4-1c1.8-.8 1.7-3.5 1.6-3.6v-.6h.6c1.6 0 3.6-.1 4-.5.5-.5 1-2.7 1.2-4.1v-.7c.1 0 .7.2.7.2s2.6 1 4.3 0c1.6-.9 1.8-3.4 1.8-3.4h1.1c0 .2-.2 3.2-2.3 4.4-1.5.9-3.6.5-4.6.2-.2 1.2-.7 3.3-1.4 4.1-.8.8-3 .9-4.3.9 0 1.1-.4 3.2-2.3 4v.1Z"/><path fill="#000" d="M138 158.7c-7.8-11.6-23.1-33.9-25.7-35.6-1.4-.9-3.8-2.8-6.5-5-3.8-3-8.1-6.4-10.8-8.1-4.1-2.5-10.2-4.5-11.3-4.9-.5.2-1.5.7-1.6 1.4-.2.8.3 2.6 2 4.8 1.6 1.9 8.5 6.1 8.5 6.1h.1l6.3 10.2-2-1.3c-2.2-1.4-6.2-3.2-7.6-2.2-2 1.5-2.9 4.7-2.9 4.7v.4H86c-1.1 0-3.9.6-4.3 2.2-.5 2.1.2 4.5.2 4.5l.2.6h-.6c-.9.3-3.5 1.1-3.9 2.6-.5 1.8.8 3.1.8 3.2 1.7 2.5 6.8 8.7 9.2 8.5.3 0 .6 0 .9-.2l.4 1c-.4.2-.8.3-1.3.3-3.4.2-9.4-7.8-10.2-8.9-.3-.3-1.7-1.9-1.1-4.2.5-2 3-2.9 4.2-3.2-.2-.9-.5-2.7 0-4.5.5-2.3 3.8-2.8 4.9-3 .3-1 1.3-3.5 3.1-4.9 1.6-1.3 4.8 0 6.9 1.1l-3.8-6c-.9-.6-7.1-4.3-8.7-6.3-1.8-2.2-2.6-4.4-2.2-5.8.4-1.4 2.3-2.1 2.5-2.2h.4c.3 0 7.2 2.2 11.8 5 2.7 1.7 7.1 5.1 10.9 8.1 2.6 2.1 5.1 4 6.5 4.9 3.4 2.3 25.1 34.6 26 35.9l-.9.6.1.2Z"/><path fill="#000" d="m119.1 188.5-13.3-16.1s-1.5-2-6.9-6.1c-5.6-4.2-10.4-14.5-10.6-14.9l1-.5c0 .1 4.9 10.5 10.2 14.5 5.5 4.2 7 6.2 7.1 6.2l13.3 16.1-.8.7v.1Zm-31.95-59.12-.854.694 9.965 12.262.853-.694-9.964-12.262Zm-5.166 6.355-.833.719 9.475 10.976.833-.718-9.475-10.977ZM311.5 81.7c-6-.5-10.8-2.9-14.3-7.2-7.9-9.5-7.9-26.1-6.6-38.4 1.6-14.3 8.5-20.3 8.8-20.5l.7.8s-6.9 6-8.4 19.8c-2.4 21.8 2.1 32.5 6.4 37.6 3.3 4 7.9 6.3 13.6 6.8v1.1h-.2Zm10.1-25.8v-1.1s.4 0 3.5-.8c.7-.7-1.1-6.6-3.9-13l1-.4c.8 1.9 5 11.7 3.9 13.9-.2.4-.5.5-.7.6-3.5.9-3.7.9-3.7.9l-.1-.1Zm-.9 9.1c-8.4 0-10.8-6-10.8-6.1l1-.4c.1.3 2.6 6.3 11.8 5.3v1.1c-.6 0-1.3.1-1.9.1h-.1Z"/><path fill="#000" d="M299.8 33.2s10.6-.8 15.3 2.4c0 0 1.2 1.7-.3 2.1-1.6.4-15.2-2.1-15.2-2.1s-.8-1.6.2-2.4Zm6.9 9.6h-.8c-2.1-.5-3.4-3.1-3.4-3.2l1-.5s1 2.2 2.7 2.6c.7.2 1.5 0 2.3-.7l.7.9c-.8.6-1.6.9-2.5.9Zm23.1 4h-.8c-2.1-.5-3.4-3.1-3.4-3.2l1-.5s1 2.2 2.7 2.6c.7.2 1.5 0 2.3-.7l.7.9c-.8.6-1.6.9-2.5.9Zm3.9-7s-4.9-1.7-7.1-1.1c-2.2.6-.8 1.7-.8 1.7l8.4 2.2s1.7-1.6-.5-2.7v-.1ZM226.5 88.2c-2.6-.1-12-.5-15.5-4.4-2.6-2.9-6.7-23.3-5.3-40.3.8-10.3 3.5-17.3 7.8-20.8 3.9-3.2 8.3-4.8 13.2-4.9 4.5-.2 8.8 1.4 11.9 4.3.3.3 7.2 6.3 8.8 20.6 1.3 12.3 1.3 28.9-6.6 38.4-3.5 4.3-8.4 6.7-14.3 7.2v-.1Zm.6-1.2c5.3-.6 9.7-2.8 12.9-6.7 4.2-5.1 8.7-15.7 6.4-37.6-1.5-13.8-8.3-19.8-8.4-19.8-2.9-2.8-7-4.3-11.2-4.1-4.7.2-8.8 1.7-12.6 4.7-4 3.2-6.6 10.2-7.4 20-1.3 16.4 2.6 36.8 5 39.5 3.7 4.1 15.3 4 15.4 4h-.1Z"/><path fill="#000" d="M216.3 62.4s-.2 0-3.7-.9c-.2 0-.5-.2-.7-.6-1.1-2.2 3-12 3.9-13.9l1 .4c-2.8 6.4-4.6 12.4-3.9 13 3.1.7 3.5.8 3.5.8v1.1l-.1.1Zm21.8-22.7s-10.6-.8-15.3 2.4c0 0-1.2 1.7.3 2.1 1.6.4 15.2-2.1 15.2-2.1s.8-1.6-.2-2.4Zm-33.8 6.6s4.9-1.7 7.1-1.1c2.2.6.801 1.7.801 1.7l-8.401 2.2s-1.7-1.6.5-2.7v-.1Zm174 49c-6-.5-10.8-2.9-14.3-7.2-7.9-9.5-7.9-26.1-6.6-38.4 1.5-13.4 5.5-17.4 6.2-18 .3-.5 1.2-1.4 3.5-1.7.4 0 1 .1 1.7.3.4.1 1.1.3 1.4.3 1.8-4.4 2.8-6 6.7-6 3.9 0 4.9 0 8.9 3.2 6.7 5.4 8 18.7 7.9 28.9h-1.1c0-8.2-.8-22.7-7.5-28.1-3.7-3-7-3-8.3-3-3 0-3.8.7-5.7 5.4-.3.9-1.5.5-2.7.2-.4-.1-1.1-.3-1.3-.3-2.2.3-2.7 1.1-2.8 1.2v.2c-.2 0-4.5 3.6-6 17.3-2.4 21.8 2.1 32.5 6.4 37.6 3.3 4 7.9 6.3 13.6 6.8v1.3Z"/><path fill="#000" d="M377.9 95.4h-.1v-1.1c.1 0 6.7.2 8.3-4.9 2.7-8.5 4.1-13.5 5.2-19.1l1.1.2c-1.1 5.7-2.4 10.7-5.2 19.2-1.7 5.4-8.2 5.6-9.2 5.6l-.1.1ZM392.5 71v-1.1s.4 0 3.5-.8c.7-.7-1.1-6.6-3.9-13l1-.4c.8 1.9 5 11.7 3.9 13.9-.2.4-.5.5-.7.6-3.5.9-3.7.9-3.7.9l-.1-.1Zm-17-25.5s10.6.7 14.8 4.6c0 0 1 1.9-.6 2-1.6.2-14.7-4.3-14.7-4.3s-.6-1.7.5-2.3Zm-97.8 6.4c-1-2.4-4.4-1.6-4.5-1.5l-.3-1.1c1.5-.4 4.7-.5 5.8 2.2l-1 .4Zm-169.1 123s-2.3 6.7 0 10.4 6.4 4.4 8.7 4.1c2.3-.3 1.9-1.6.6-3-1.3-1.4-9.3-11.6-9.3-11.6v.1Zm141.2-99.5-.4-1c.2 0 18.1-6.2 36.9-5.4v1.1c-18.6-.8-36.4 5.3-36.5 5.3Zm118.6 9c-14.4-9.4-32-10.1-32.2-10.1v-1.1c.2 0 18.1.7 32.8 10.2l-.6.9v.1Zm13.7-25.6c.773 0 1.4-1.075 1.4-2.4s-.627-2.4-1.4-2.4c-.773 0-1.4 1.075-1.4 2.4s.627 2.4 1.4 2.4ZM228 51.1c.939 0 1.7-.94 1.7-2.1 0-1.16-.761-2.1-1.7-2.1s-1.7.94-1.7 2.1c0 1.16.761 2.1 1.7 2.1ZM209.3 54c.938 0 1.7-.94 1.7-2.1 0-1.16-.762-2.1-1.7-2.1-.939 0-1.7.94-1.7 2.1 0 1.16.761 2.1 1.7 2.1ZM44.4 358.5c-23.5 0-42.6-19.1-42.6-42.6s19.1-42.6 42.6-42.6S87 292.4 87 315.9s-19.1 42.6-42.6 42.6Zm0-84.1c-22.9 0-41.5 18.6-41.5 41.5s18.6 41.5 41.5 41.5 41.5-18.6 41.5-41.5-18.6-41.5-41.5-41.5Z"/><path fill="#000" d="M43.9 317v-43.1H45v41.4l36.7-17.7.5 1L43.9 317Z"/><path fill="#DBE2EA" d="M151.6 262.7h-9.8v53.4h9.8v-53.4Z"/><path fill="#000" d="M152.2 315.9h-1.1v-52.8h-8.8v52.2h-1.1V262h11v53.9Z"/><path fill="#0AD0BC" d="M174.3 304.1h-9.7V316h9.7v-11.9Z" opacity=".7"/><path fill="#000" d="M328.3 402.8H44.2v-87.2h136.2v1.1H45.3v85h283v1.1Zm167.5-6.7c-28.4 0-55.5-16.7-67.3-44.5-3.9-9.2-5.9-18.9-5.9-28.6 0-9.2 1.8-18.5 5.3-27.3 7.3-18.1 21.2-32.3 39.2-39.9 37.1-15.8 80.1 1.6 95.8 38.6 4 9.3 5.8 19 5.8 28.5 0 28.4-16.7 55.5-44.5 67.3-9.3 4-19 5.8-28.5 5.8l.1.1ZM423.7 323c0 9.6 1.9 19.1 5.8 28.2 7.5 17.7 21.5 31.4 39.3 38.6 17.8 7.2 37.4 7 55.1-.5 27.4-11.6 43.8-38.3 43.8-66.3 0-9.4-1.8-18.9-5.7-28.1-15.5-36.5-57.9-53.6-94.4-38.1-17.7 7.5-31.4 21.5-38.6 39.3-3.5 8.7-5.3 17.8-5.3 26.9Zm72.1 62.4c-24.3 0-47.4-14.3-57.5-38-13.5-31.7 1.3-68.4 33-81.9 15.3-6.5 32.3-6.7 47.8-.5s27.6 18.1 34.1 33.5c6.5 15.3 6.7 32.3.5 47.8s-18.1 27.6-33.5 34.1c-7.9 3.4-16.2 5-24.4 5ZM439.2 347c13.2 31.1 49.3 45.7 80.5 32.4 15.1-6.4 26.8-18.3 32.9-33.5 6.1-15.2 6-31.9-.4-47-6.4-15.1-18.3-26.8-33.5-32.9-15.2-6.1-31.9-6-47 .4-31.1 13.2-45.7 49.3-32.4 80.5l-.1.1Z"/><path fill="#000" d="m426.711 345.889-13.991 5.939.43 1.012 13.991-5.939-.43-1.012Zm4.265 10.025-13.992 5.939.43 1.012 13.992-5.939-.43-1.012Z"/><path fill="#000" d="M45.8 471.1h-1.1v-43.8c0-6 4.9-10.9 10.9-10.9h437.8c5.1 0 9.3-4.2 9.3-9.3v-201h1.1v201c0 5.7-4.7 10.4-10.4 10.4H55.7c-5.4 0-9.8 4.4-9.8 9.8v43.8h-.1Z"/><path fill="#000" d="M122 469.1h-1.1v-33.6c0-6 4.9-10.9 10.9-10.9h369.8c5.1 0 9.3-4.2 9.3-9.3V196h1.1v219.3c0 5.7-4.7 10.4-10.4 10.4H131.8c-5.4 0-9.8 4.4-9.8 9.8v33.6Zm426.1 2H547v-43.2c0-5.6-4.6-10.2-10.2-10.2h-6.6c-5.7 0-10.3-4.6-10.3-10.3V201.9h1.1v205.5c0 5.1 4.1 9.2 9.2 9.2h6.6c6.2 0 11.3 5.1 11.3 11.3v43.2Z"/><path fill="#fff" d="M122.899 315.3v-25.1h9.9v25.7"/><path fill="#000" d="M133.3 315.9h-1.1v-25.1h-8.8v24.5h-1.1v-25.6h11v26.2Zm41.5 0h-1.1v-11h-8.8v10.4h-1.1v-11.5h11v12.1ZM374.3 25.2s-1 .6-2.2 3.6c-1.2 3-2.5 8.4-3.1 17.9-1.1 18.8-.6 36.5 4.3 39.7 4.9 3.2 10.5 5.6 8.3 7.7-2.4 2.3-10.2-.5-14.1-3.4-3.9-2.9-10.2-6.8-10.2-31.2s2-24.4 7.7-28.5c1.1-.8 3.7 1 5.6-.3 1.6-1.1 2.6-5.4 3.6-5.5h.1Zm95.8 400.7H469v41.9h1.1v-41.9Zm-69.9 0h-1.1v60.5h1.1v-60.5Zm-70 0h-1.1v41.9h1.1v-41.9Zm-51.4 0h-1.1v41.9h1.1v-41.9Zm-76.5 0h-1.1v60.5h1.1v-60.5Z"/><path fill="#000" d="M587.6 594.9H.4V456.7h33v1.1H1.5v136h585V456.6h-27.6v-1h28.7v139.3ZM482 417.5h-15.9v-1.1H482c6 0 10.9-4.9 10.9-10.9V212.4h1.1v193.1c0 6.6-5.4 12-12 12ZM272.853 106.969l-.147 1.09 45.585 6.163.148-1.09-45.586-6.163Z"/><path fill="#000" d="m300.519 96.297-.416 14.894 1.099.031.416-14.895-1.099-.03ZM488.9 220.6c-3.5-.4-11.1-13.3-12.7-21.4-1.6-8.5.6-11.5.7-11.6l.9.7s-2 2.8-.5 10.8c.7 3.8 2.8 8.7 5.5 13.3 2.9 4.8 5.2 7.1 6.2 7.2v1.1l-.1-.1ZM110.6 177l-.2-1.1c17.2-2.5 22.5-24.3 22.6-24.5l1.1.2c0 .2-5.6 22.8-23.5 25.3v.1Z"/><path fill="#DBE2EA" d="M602 470.1V608l-14.6-13.9V456.7l14.6 13.4Z"/><path fill="#000" d="m602.5 609.3-15.7-15V455.4l15.7 14.4v139.5Zm-14.6-15.4 13.5 12.9V470.3l-13.5-12.4v136Z"/><path fill="#000" d="m.9 594.7 13.2 12.6H602l-14.6-13.2-586.5.6Z"/><path fill="#DBE2EA" d="M411.8 621.7v-20.4h14.8v40"/><path fill="#000" d="M427.2 641.3h-1.1v-39.4h-13.7v19.8h-1.1v-20.9h15.9v40.5Z"/><path fill="#FF3131" d="m485.9 518-8 2-4.7.3-.7 1.6v4.5c-.1 0 1.1.8 1.1.8l18.7.6 2 3.9h23.3c0 .1-16.4-26.5-16.4-26.5s-7.3-9.3-10.9-5.1c-3.6 4.2-4.2 18.1-4.2 18.1l-.2-.2ZM179 519.3l8 .7h5.6l-.3 1.8v4.5c.1 0-1.1.8-1.1.8l-18.7.6-2 3.9h-23.3c0 .1 16.4-26.5 16.4-26.5s8.3-9.3 12-5.1c3.7 4.2 3.2 19.4 3.2 19.4l.2-.1Z" opacity=".5"/><path fill="#000" d="m172.746 527.446-2.018 3.91.977.505 2.018-3.91-.977-.505Z"/><path fill="#000" d="m166.1 532.2-19.3-.5.5-.8c1.8-3.2 18-31.2 23.5-32.6 1.7-.4 3.2-.3 4.4.6 2.1 1.4 2.6 4.2 2.6 4.3l1.4 15.6 14.4 1v8l-23.3.5-2.5-16.3 1.1-.2 2.4 15.4 21.3-.4v-5.9l-14.3-1-1.5-16.5s-.4-2.4-2.1-3.6c-.9-.6-2.1-.8-3.5-.4-4.2 1.1-17.2 22.2-22.4 31.3l17.5.5v1.1l-.2-.1Z"/><path fill="#000" d="m178.399 509.6-1-.3 2.7-9 .5.2s4.1 1.3 4.9-1c1-2.8 2.3-9.4 2.3-9.4l1.1.2c0 .3-1.3 6.7-2.3 9.6-.9 2.8-4.4 2.2-5.7 1.8l-2.4 7.9h-.1Zm-7.383-14.17-.712 2.604 1.061.291.712-2.605-1.061-.29Z"/><path fill="#000" d="m171.599 495.9 5.8-1.7s-2.1-2.1-.6-3.2c1.6-1.1 3.1 1.4 3.1 1.4h.7c0-.1.1-3.7.1-3.7s7.3 2.3 9 .7c1.7-1.5-2.1-3.9-2.1-3.9s3.3-1.4 1.3-1.9c-1.9-.5-3.9-.3-3.9-.3s-2.6-2-4.9-1.9c-2.3.1-15.5 1.8-8.6 14.3l.1.2Z"/><path fill="#000" d="m171.299 496.6-.2-.4c-2.2-4.1-2.7-7.4-1.2-10.1 2.5-4.5 9.5-5 10.3-5.1 2.2-.1 4.5 1.4 5.1 1.9.6 0 2.2-.1 3.9.3.6.2 1 .5 1 .9 0 .6-.6 1.2-1.4 1.6.8.6 1.9 1.6 2 2.7 0 .6-.2 1.1-.6 1.5-1.6 1.5-6.8.2-8.9-.4v3.2c-.1 0-1.6.3-1.6.3l-.2-.3c-.2-.3-.9-1.3-1.6-1.4-.2 0-.5 0-.7.2-.3.2-.3.4-.3.5 0 .7.7 1.5 1 1.8l.7.7-7.1 2-.2.1Zm9.2-14.5h-.2c-.3 0-7.1.4-9.4 4.5-1.2 2.2-.9 5.1 1 8.6l4.5-1.3c-.4-.5-.8-1.2-.7-2 0-.5.3-1 .8-1.4.5-.3 1-.5 1.5-.3.9.2 1.7 1 2.1 1.5l.2-3.7.7.2c2.7.8 7.4 1.8 8.5.8.3-.2.3-.4.3-.6 0-.8-1.4-1.9-2.3-2.4l-.9-.6 1-.4c.6-.3 1.2-.6 1.5-.8-1.8-.5-3.7-.3-3.7-.3h-.2l-.2-.1s-2.3-1.8-4.4-1.8l-.1.1Zm-.4 91.6h-14.5l7.5-24.9h-22.4c-4.3-.9-6-4.6-6.1-4.7-2.7-6.9 5.2-17.7 5.5-18.1l.9.6c0 .1-7.9 10.8-5.4 17.1 0 0 1.5 3.2 5.2 4.1h23.7l-7.5 24.9h12.3l11.8-32v-.2c.4-2-.2-4.1-1.5-5.7-1.3-1.6-3.3-2.5-5.4-2.5h-18.5v-1.1h18.5c2.4 0 4.7 1.1 6.2 2.9 1.5 1.8 2.1 4.2 1.7 6.6v.3l-12.1 32.8.1-.1Z"/><path fill="#000" d="M186.199 579.8h-22l1.7-7 1.1.3-1.4 5.7h19c-.7-1-1.9-1.3-3.1-1.6-.4 0-.7-.2-1.1-.3-1.7-.6-1.6-2.7-1.3-3.9l1.1.3s-.5 2.2.6 2.6c.3.1.6.2 1 .3 1.6.4 3.5.9 4.2 3.1l.2.7v-.2Z"/><path fill="#fff" d="M102.9 573.1s.7 2.7-1 3.2-4.1.6-4.9 3h20.6l-1.5-6.4"/><path fill="#000" d="M118.3 579.8h-22l.2-.7c.7-2.2 2.6-2.7 4.2-3.1.3 0 .7-.2 1-.3 1.1-.4.6-2.6.6-2.6l1.1-.3c.3 1.2.4 3.3-1.3 3.9-.3.1-.7.2-1.1.3-1.2.3-2.4.6-3.1 1.6h19l-1.4-5.7 1.1-.3 1.7 7v.2Zm82.499-50.6c-.4 0-.8-.2-1.1-.7-.3-.5-.9-2-1.3-2.8-.8.4-2.5.8-5.5-.3l.4-1c3.7 1.3 5 .1 5 .1l.6-.5.3.7s.8 1.8 1.3 2.8l-.2-3.6 1.1 1.3c.6.7 1.6 1.8 2 2.1l-2.8-5.9c-.1-.3-.4-.4-.7-.4h-7v-1.1h7c.7 0 1.4.4 1.7 1.1l3.2 6.6-.2.3s-.3.5-.9.6c-.2 0-.6 0-.9-.2-.3-.2-.7-.6-1.1-1.1v2c.1 0-.2.2-.2.2-.1 0-.3.1-.4.1l-.3-.3ZM95.2 525.5c-.2 0-.3 0-.4-.1l-.3-.2v-2c-.3.4-.7.9-1 1.1-.4.3-.7.3-.9.2-.5-.1-.8-.5-.9-.6l-.2-.3 3.2-6.6c.3-.6 1-1.1 1.7-1.1h7v1.1h-7c-.3 0-.6.2-.7.4l-2.8 5.9c.4-.3 1.4-1.4 2-2.1l1.1-1.3-.2 3.6c.5-1 1.3-2.8 1.3-2.8l.3-.7.6.6s1.3 1.2 5-.1l.4 1c-3 1.1-4.7.7-5.5.3-.4.8-1 2.4-1.3 2.8-.3.6-.7.7-1.1.7l-.3.2Zm79.383 18.278-1.503 4.978 1.053.318 1.503-4.978-1.053-.318Zm57.516 36.122h-41.4v-1.1h40.3v-46.5h-40.3v-1.1h41.4v48.7Z"/><path fill="#000" d="M109.7 579.9H72.6v-51.8h20.9v1.1H73.7v49.6h36v1.1Zm86.7-48.3h-1.1v-3.8h20.3l6.9-26.7h8l-6.7 27.7h-27.5v2.7l.1.1Zm20.3-3.8h6.3l6.2-25.6h-5.8l-6.7 25.6Z"/><path fill="#000" d="M224.1 528.2H223v3.2h1.1v-3.2Zm-59.4 51.5h-24.9v-32.4h9.9v1.1h-8.8v30.3h23.8v1Zm328.163-52.49-.977.504 2.018 3.91.977-.504-2.018-3.91Z"/><path fill="#000" d="M499.399 532.2v-1.1l17.4-.5c-5.2-9.1-18.2-30.2-22.4-31.3-1.4-.4-2.6-.2-3.5.4-1.7 1.1-2.1 3.6-2.1 3.6l-1.5 16.4-14.3 1v5.9l21.3.4 2.4-15.4 1.1.2-2.5 16.3-23.3-.5v-8l14.4-1 1.4-15.5c0-.2.5-3 2.6-4.4 1.2-.8 2.7-1 4.4-.6 5.5 1.4 21.7 29.4 23.5 32.6l.5.8-19.3.5-.1.2Z"/><path fill="#000" d="M499.9 573.7h-14.5L473.3 541v-.4c-.4-2.3.2-4.7 1.7-6.6 1.5-1.9 3.8-2.9 6.2-2.9h18.5v1.1h-18.5c-2.1 0-4 .9-5.4 2.5-1.3 1.6-1.8 3.6-1.5 5.7v.2l11.8 32h12.3l-7.5-24.9h23.7c3.7-.8 5.2-4.1 5.2-4.1 2.5-6.3-5.3-16.9-5.4-17l.9-.6c.3.5 8.3 11.2 5.6 18.1 0 .2-1.7 3.8-6.1 4.7h-22.4l7.5 24.9Z"/><path fill="#000" d="M501.199 579.8h-22l.2-.7c.7-2.2 2.6-2.7 4.2-3.1.3 0 .7-.2 1-.3 1.1-.4.6-2.6.6-2.6l1.1-.3c.3 1.2.4 3.3-1.3 3.9-.3.1-.7.2-1.1.3-1.2.3-2.4.6-3.1 1.6h19l-1.4-5.7 1.1-.3 1.7 7v.2Zm-36.6-50.6c-.2 0-.3 0-.4-.1l-.3-.2v-2c-.3.4-.7.9-1 1.1-.4.3-.7.3-.9.2-.5-.1-.8-.5-.9-.6l-.2-.3 3.2-6.6c.3-.6 1-1.1 1.7-1.1h7v1.1h-7c-.3 0-.6.2-.7.4l-2.8 5.9c.4-.3 1.4-1.4 2-2.1l1.1-1.3-.2 3.6c.5-1 1.3-2.8 1.3-2.8l.3-.7.6.6s1.3 1.2 5-.1l.4 1c-3 1.1-4.7.7-5.5.3-.4.8-1 2.4-1.3 2.8-.3.6-.7.7-1.1.7l-.3.2Zm26.151 14.946-1.053.318 1.503 4.978 1.053-.318-1.503-4.978ZM474.799 579.9h-41.4v-48.7h41.4v1.1h-40.4v46.5h40.4v1.1Z"/><path fill="#000" d="M470.199 531.6h-1.1v-2.7h-27.5l-6.7-27.7h8l6.9 26.7h20.3v3.8l.1-.1Zm-27.7-3.8h6.3l-6.7-25.6h-5.8l6.2 25.6Z"/><path fill="#000" d="M442.4 528.2h-1.1v3.2h1.1v-3.2Zm-140.9 4.3h-1.1v-24.1c-.8-2.8-2.8-4.3-4-4.6-1.4-.4-2.6-.2-3.5.4-1.7 1.1-2.1 3.6-2.1 3.6l-1.5 13.6-14.3 1v5.9l21.3.4 2.4-15.4 1.1.2-2.5 16.3-23.3-.5v-8l14.4-1 1.4-12.7c0-.1.5-2.9 2.6-4.4 1.2-.8 2.7-1 4.4-.6 1.4.4 3.9 2.1 4.8 5.4v24.3l-.1.2Zm-31.4 47.3h-20.3l.2-.7c.7-2.2 2.6-2.7 4.2-3.1.3 0 .7-.2 1-.3 1.2-.4 1-2.9 1-3h1.1s.4 3.3-1.7 4c-.3.1-.7.2-1.1.3-1.2.3-2.4.6-3.1 1.6H269v-5.8h1.1v7Z"/><path fill="#000" d="M250.8 579.8h-14.6l.2-.7c.7-2.2 2.6-2.7 4.2-3.1.3 0 .7-.2 1-.3 1-.3 1.1-2.5 1.1-3.2h1.1c0 .3.2 3.6-1.8 4.3-.3.1-.7.2-1.1.3-1.2.3-2.4.6-3.1 1.6h13v1.1Zm15-48.9c-.2 0-.3 0-.4-.1l-.3-.2v-2c-.3.4-.7.9-1 1.1-.4.3-.7.3-.9.2-.5-.1-.8-.5-.9-.6l-.2-.3 3.2-6.6c.3-.6 1-1.1 1.7-1.1h7v1.1h-7c-.3 0-.6.2-.7.4l-2.8 5.9c.4-.3 1.4-1.4 2-2.1l1.1-1.3-.2 3.6c.5-1 1.3-2.8 1.3-2.8l.3-.7.6.6s1.3 1.2 5-.1l.4 1c-3 1.1-4.7.7-5.5.3-.4.8-1 2.4-1.3 2.8-.3.6-.7.7-1.1.7l-.3.2Zm18-21.7-2.4-5.8c-1.2.1-4.5.2-4.9-2.5-.4-2.7-.7-11.1-.7-11.4h1.1s.3 8.6.7 11.2c.4 2.1 4 1.5 4.1 1.5h.4l2.7 6.6-1 .4Zm10.3-19.5a4.1 4.1 0 1 0 0-8.2 4.1 4.1 0 0 0 0 8.2Z"/><path fill="#000" d="M294.1 490.3c-2.5 0-4.6-2-4.6-4.6 0-1.2.5-2.4 1.3-3.3.9-.9 2-1.4 3.2-1.4 2.5 0 4.6 2 4.6 4.6 0 2.5-2 4.6-4.6 4.6l.1.1Zm0-8.2c-.9 0-1.8.4-2.5 1.1-.7.7-1 1.6-1 2.5 0 1.9 1.6 3.5 3.5 3.5s3.5-1.6 3.5-3.6c0-1.9-1.6-3.5-3.5-3.5Z"/><path fill="#000" d="M289.9 485.6s-5.1-2.5-9-.8c-2.5 1.1-4.1 4.7-4.1 4.7l7.2 3.8s1.1-1.2 2.1-1c1 .2 1.6 1.7 1.2 2.5-.4.8-1.2 1.4-1.2 1.4l2.7 2.5s4-2.8 3.5-9.3"/><path fill="#000" d="m288.7 499.3-3.5-3.2.5-.4s.7-.6 1.1-1.3c.1-.2 0-.7 0-1-.2-.4-.4-.6-.7-.7-.6-.1-1.4.6-1.6.9l-.3.3-8-4.2.2-.5c0-.2 1.7-3.8 4.4-5 4-1.7 9.2.7 9.4.9l-.5 1s-5-2.3-8.6-.8c-1.8.7-3.1 3-3.6 4l6.4 3.3c.5-.4 1.4-1.1 2.3-.9.6.1 1.2.6 1.5 1.3.3.7.4 1.5 0 2-.3.5-.6.9-.9 1.1l2 1.8c.9-.8 3.4-3.4 2.9-8.5h1.1c.6 6.6-3.5 9.5-3.7 9.7l-.4.2Zm17 80.4H276v-1h28.6v-30.3H291v-1.1h14.7v32.4Zm-44.5-48.9h-30.7v-23h30.7v23Zm-29.6-1.1h28.6v-20.8h-28.6v20.8Z"/><path fill="#000" d="M270.4 573.1h-29.6V572h28.5v-24.9h21.4c5.4 0 9.8-4.4 9.8-9.8v-6.6h1.1v6.6c0 6-4.9 10.9-10.9 10.9h-20.3v24.9Z"/><path fill="#000" d="M254.9 534.6h-1.1V572h1.1v-37.4Zm-13.401.3h-1.1v37.9h1.1v-37.9Z"/><path fill="#000" d="M276.9 535.3h-46.4v-5.4h46.4v5.4Zm-45.3-1.1h44.3V531h-44.3v3.2Zm113.6-6.8h-30.7v-23h30.7v23Zm-29.6-1.1h28.6v-20.8h-28.6v20.8Z"/><path fill="#000" d="M345.3 531.9h-30.8v-5.4h30.8v5.4Zm-29.7-1.1h28.6v-3.2h-28.6v3.2Zm-241.5-6.5H73v-22.5h30.6v14.6h-1v-13.6H74.1v21.5Z"/><path fill="#000" d="M115.099 529.2h-42.2v-5.4h42.2v5.4Zm-41.1-1.1h40v-3.2h-40v3.2Zm187.201 2.2h-1.1v4.5h1.1v-4.5Zm39.6 4h-21v1.1h21v-1.1Zm-5.701-30.6-4.8-.7-1.9-5 1-.4 1.7 4.4 4.1.6-.1 1.1Z"/><path fill="#000" d="m290.703 502.2-7.179 6.374.731.822 7.179-6.373-.731-.823ZM275.6 519.7h-1.1c0-.6 1.1-10.9 2-13.1.9-2.5 4.8-2.6 4.9-2.6v1.1s-3.2.1-3.9 1.9c-.7 1.8-1.9 12.7-1.9 12.8v-.1Zm-139.7 27.6h-24.2v-1.1h24.2c3.9 0 7-3.2 7-7v-8.5h1.1v8.5c0 4.5-3.6 8.1-8.1 8.1Z"/><path fill="#000" d="M117.2 573.2H101l-5.2-34.6c-.4-2 .2-4 1.4-5.5 1.3-1.5 3.2-2.4 5.2-2.4l40.8-.2v1.1l-40.8.2c-1.7 0-3.3.8-4.3 2.1-1.1 1.3-1.5 3-1.2 4.7l5 33.7H116l-3.1-25.2h1.1c0-.1 3.3 26.3 3.3 26.3l-.1-.2Z"/><path fill="#000" d="m142.8 530.8-1.9-20.9c-.4-4.6-4.3-8.3-8.9-8.3h-7c-2.5 0-4.5.8-5.9 2.2-1.4 1.5-2.1 3.6-2.1 6.1l-.8 5.6-1.1-.2.8-5.4c0-2.8.7-5.1 2.4-6.8 1.6-1.7 4-2.6 6.7-2.6h7c5.2 0 9.6 4.1 10 9.3l1.9 20.9h-1.1v.1Z"/><path fill="#000" d="m125.1 526.1-22.5-2.4v-7.8l13.4-1 .1 1.1-12.4.9v5.8l20.4 2.2 1.4-15.3 1.1.1-1.5 16.4Zm-1.9-25.3v-2c-1.6 0-4.6.1-5.3-1-.7-1.2-.4-8.5-.3-10.8h1.1c-.2 4.5-.2 9.5.2 10.2.3.4 2.5.6 4.7.4h.6l.2 3.1h-1.1l-.1.1Zm10.721-6.185-1.1.013.086 7 1.1-.014-.086-6.999ZM140.4 578.7h-17.9v1.1h17.9v-1.1Z"/><path fill="#DBE2EA" d="M514.3 579.3v-50.9H572V579"/><path fill="#000" d="M572 578.7h-67.8v1.1H572v-1.1Zm-499 0H14.8v1.1H73v-1.1Zm286.6 1.1h-1.1v-47.7h-53.1v14h-1.1V531h55.3v48.8Zm-30.1-80.4h-3.1c-.2 0-4.1-.7-4.5-3.8-.1-.9-.2-4.6-.3-6.8v-1.6c0-.8 0-1.7.1-2.3.2-1.1 3.4-4.7 9.5-4.2 6 .4 6.7 4.3 6.7 4.4v9.8c-.2 1.6-1.4 4.5-5 4.6h-3.5l.1-.1Zm-2.9-1.1s2.5.1 6.4 0c3.5-.1 3.9-3.4 3.9-3.6v-5.9h-14.2c0 2.2.2 5.8.3 6.7.3 2.3 3.5 2.8 3.6 2.8Zm-3.9-10.6h14.2v-2.6c0-.4-.8-3.1-5.7-3.5-5.4-.4-8.2 2.7-8.3 3.3 0 .6-.1 1.9-.2 2.6v.2Zm-7.6 38.2c-.2 0-5.4 0-7.3-2.1-.5-.6-.8-1.2-.7-2 .2-3.6 7-12.6 7.3-13l.9.7c-1.9 2.5-6.9 9.7-7.1 12.4 0 .4.1.8.4 1.2 1.3 1.4 5.2 1.8 6.5 1.8v1.1-.1Zm30 0v-1.1c1.4 0 5.2-.4 6.5-1.8.3-.3.5-.7.4-1.2-.2-2.7-5.4-9.9-7.4-12.4l.9-.7c.3.4 7.4 9.4 7.6 13 0 .7-.2 1.4-.7 2-1.9 2.1-7.1 2.1-7.3 2.1v.1Z"/><path fill="#000" d="m318.899 505.3-.5-1c1.4-.7 4.9-1.6 6.1-1.9v-3.9h1.1v4.8h-.4c0 .1-4.7 1.2-6.3 2Zm22.601 0c-2.3-1.1-7.3-1.9-7.3-1.9h-.5v-4.9h1.1v3.9c1.3.2 5.1 1 7.1 1.9l-.5 1h.1ZM121 489.6h-1v2h1v-2Zm285.6 90.2h-22l1.7-7 1.1.3-1.4 5.7h19c-.7-1-1.9-1.3-3.1-1.6-.4 0-.7-.2-1.1-.3-1.7-.6-1.6-2.7-1.3-3.9l1.1.3s-.5 2.2.6 2.6c.3.1.6.2 1 .3 1.6.4 3.5.9 4.2 3.1l.2.7v-.2Zm1.1-54.3c-.4 0-.8-.2-1.1-.7-.3-.5-.9-2-1.3-2.8-.8.4-2.5.8-5.5-.3l.4-1c3.7 1.3 5 .1 5 .1l.6-.5.3.7s.8 1.8 1.3 2.8l-.2-3.6 1.1 1.3c.6.7 1.6 1.8 2 2.1l-2.8-5.9c-.1-.3-.4-.4-.7-.4h-7v-1.1h7c.7 0 1.4.4 1.7 1.1l3.2 6.6-.2.3s-.3.5-.9.6c-.2 0-.6 0-.9-.2-.3-.2-.7-.6-1.1-1.1v2c.1 0-.2.2-.2.2-.1 0-.3.1-.4.1l-.3-.3Z"/><path fill="#000" d="M434.5 579.9h-41.3v-1.1h40.2v-49.6h-23.9v-1.1h25v51.8Zm-4.6-55.6h-1v-21.5h-27.8v13.6H400v-14.6h29.9v22.5Z"/><path fill="#000" d="M430 529.2h-42.2v-5.4H430v5.4Zm-41.1-1.1h40v-3.2h-40v3.2Zm2.299 19.2h-24.2c-4.5 0-8.1-3.6-8.1-8.1v-8.5h1.1v8.5c0 3.9 3.2 7 7 7h24.2v1.1Z"/><path fill="#000" d="M401.9 573.2h-16.2l3.3-26.5h1.1c0 .1-3.1 25.4-3.1 25.4h14.1l5-33.6c.3-1.7-.1-3.4-1.2-4.7-1.1-1.3-2.7-2-4.3-2.1l-37.9-.2v-1.1l37.9.2c2 0 3.9.9 5.2 2.5 1.3 1.5 1.8 3.6 1.4 5.5l-5.2 34.5-.1.1Zm-42-41.6h-1.1c0-.1 2.1-21.8 2.1-21.8.4-5.2 4.8-9.2 10-9.2h7c2.8 0 5.1.9 6.7 2.6 1.6 1.7 2.4 4 2.4 6.8l.8 5.4-1.1.2-.8-5.5c0-2.5-.6-4.6-2.1-6.1-1.4-1.5-3.5-2.2-5.9-2.2h-7c-4.6 0-8.6 3.6-8.9 8.2l-2.1 21.7v-.1Z"/><path fill="#000" d="m377.899 526.1-1.5-16.4 1.1-.1 1.4 15.3 20.3-2.2v-5.8l-12.3-.9v-1.1l13.4 1v7.8l-22.4 2.4Zm-9.199-31.2.2-9.6s1.2-3.7 6.9-4.1c5.7-.4 8.7 2.8 8.9 3.7.2.9.2 2.2.2 2.2h-5.3v3.5h-.7l-.6-1.8s-2-1-2.5 0-.4 2.4.4 3l-1 3.5-6.3-.3-.2-.1Z"/><path fill="#000" d="m375.4 495.7-7.2-.3.2-10.3c0-.2 1.4-4.1 7.3-4.5 6-.4 9.3 3.1 9.5 4.2.1.9.2 2.2.2 2.2v.5l-5.3.1v3.3l-1.7.1-.7-2.1c-.6-.2-1.4-.5-1.6-.1-.5.8-.3 1.9.3 2.3l.3.2-1.2 4.2-.1.2Zm-6.1-1.3 5.3.2.8-2.7c-.8-.8-.9-2.3-.3-3.5.8-1.4 3-.3 3.3-.2h.2c0 .1.3 1.2.3 1.2v-2.7l5.3-.1c0-.4 0-1.1-.1-1.6 0-.5-2.9-3.7-8.3-3.3-4.8.4-6.2 3.2-6.4 3.7l-.2 9h.1Z"/><path fill="#000" d="M379.7 500.8h-1.1l.2-4h.6c2.3.2 4.5 0 4.7-.4.4-.6.4-5.3.2-9.3h1.1c.1 2 .4 8.7-.3 9.9-.7 1.1-3.7 1.1-5.2 1v2.8h-.2Z"/><path fill="#000" d="M383 489.6h-1v2h1v-2Zm-198.987 3.34-.32 1.974.987.16.32-1.975-.987-.159Zm96.641 1.817-1 .025.049 1.999 1-.024-.049-2Zm46.006-3.322-1 .024.049 1.999 1-.024-.049-1.999Zm7.397.019-.999.024.048 2 1-.025-.049-1.999ZM322.4 492.9c-.1 0-1.2-.1-1.9-.6-.9-.6-1.1-2.3-.7-3.3.5-1.1 2-.8 2.2-.8l-.2 1.1c-.3 0-.9 0-1 .1-.2.6 0 1.7.3 1.9.4.3 1.1.4 1.4.4v1.1l-.1.1Zm14.9 0v-1.1c.2 0 .9-.1 1.3-.4.4-.3.5-1.4.3-1.9 0-.2-.6-.2-1-.1l-.2-1.1c.2 0 1.7-.3 2.2.8.4 1 .2 2.7-.7 3.3-.7.5-1.8.6-1.9.6v-.1ZM59.6 524.5H28.9v-23h30.7v23Zm-29.7-1.1h28.6v-20.8H29.9v20.8Z"/><path fill="#000" d="M59.7 529H28.9v-5.4h30.8v5.4Zm-29.8-1.1h28.6v-3.2H29.9v3.2Z"/><path fill="#000" d="M74 579.8h-1.1v-50.6H16.3v49.2h-1.1v-50.3H74v51.7Zm-30.1-83.3h-3.1c-.2 0-4.1-.7-4.5-3.8-.1-.9-.2-4.6-.3-6.8v-1.6c0-.8 0-1.7.1-2.3.2-1.1 3.4-4.7 9.5-4.2 6 .4 6.7 4.3 6.7 4.4v9.8c-.2 1.6-1.4 4.5-5 4.6h-3.5l.1-.1Zm-3-1.1s2.5.1 6.4 0c3.5-.1 3.9-3.4 3.9-3.6v-5.9H37c0 2.2.2 5.8.3 6.7.3 2.3 3.5 2.8 3.6 2.8ZM37 484.8h14.2v-2.5c0-.4-.8-3.1-5.7-3.5-5.4-.4-8.2 2.7-8.3 3.3 0 .6-.1 1.9-.2 2.6v.1ZM29.4 523c-.2 0-5.4 0-7.3-2.1-.5-.6-.8-1.2-.7-2 .2-3.6 7-12.6 7.3-13l.9.7c-1.9 2.5-6.9 9.7-7.1 12.4 0 .4.1.8.4 1.2 1.3 1.4 5.2 1.8 6.5 1.8v1.1-.1Zm30 0v-1.1c1.4 0 5.2-.4 6.5-1.8.3-.3.5-.7.4-1.2-.2-2.7-5.4-9.9-7.4-12.4l.9-.7c.3.4 7.4 9.4 7.6 13 0 .7-.2 1.4-.7 2-1.9 2.1-7.1 2.1-7.3 2.1v.1Z"/><path fill="#000" d="m33.2 502.4-.5-1c1.4-.7 4.9-1.6 6.1-1.9v-3.9h1.1v4.8h-.4c0 .1-4.7 1.2-6.3 2Zm22.6 0c-2.3-1.1-7.3-1.9-7.3-1.9H48v-4.9h1.1v3.9c1.3.2 5.1 1 7.1 1.9l-.5 1h.1Zm-14.526-14.084-1 .024.05 1.999.999-.024-.049-1.999Zm7.398.019-1 .024.049 2 1-.025-.05-1.999ZM36.8 490c-.1 0-1.2-.1-1.9-.6-.9-.7-1.1-2.4-.7-3.3.5-1.1 2-.8 2.2-.8l-.2 1.1v-.5c.1 0 0 .5 0 .5-.4 0-.9 0-1 .1-.2.5 0 1.7.3 1.9.4.3 1.1.4 1.4.4v1.1l-.1.1Zm14.9 0v-1.1c.2 0 .9-.1 1.3-.4.4-.3.5-1.4.3-1.9 0-.2-.7-.2-1-.1l-.2-1.1c.2 0 1.7-.3 2.2.8.4.9.3 2.6-.7 3.3-.7.5-1.8.6-1.9.6v-.1Zm506.5 34.5h-30.7v-23h30.7v23Zm-29.7-1.1h28.6v-20.8h-28.6v20.8Z"/><path fill="#000" d="M558.199 529h-30.8v-5.4h30.8v5.4Zm-29.7-1.1h28.6v-3.2h-28.6v3.2Z"/><path fill="#000" d="M572.5 579.8h-1.1v-50.6h-56.6v49.2h-1v-50.3h58.7v51.7Zm-30.1-83.3h-3.1c-.2 0-4.1-.7-4.5-3.8-.1-.9-.2-4.6-.3-6.8v-1.6c0-.8 0-1.7.1-2.3.2-1.1 3.5-4.7 9.5-4.2 6 .4 6.7 4.3 6.7 4.4v9.8c-.2 1.6-1.4 4.5-5 4.6h-3.5l.1-.1Zm-2.9-1.1s2.5.1 6.4 0c3.5-.1 3.9-3.4 3.9-3.6v-5.9h-14.2c0 2.2.2 5.8.3 6.7.3 2.3 3.5 2.8 3.6 2.8Zm-3.9-10.6h14.2v-2.5c0-.4-.8-3.1-5.7-3.5-5.4-.4-8.2 2.7-8.3 3.3 0 .6-.1 1.9-.2 2.6v.1ZM528 523c-.2 0-5.4 0-7.3-2.1-.5-.6-.8-1.2-.7-2 .3-3.6 7-12.6 7.3-13l.9.7c-1.9 2.5-6.9 9.7-7.1 12.4 0 .4.1.8.4 1.2 1.3 1.4 5.2 1.8 6.5 1.8v1.1-.1Zm30 0v-1.1c1.4 0 5.2-.4 6.5-1.8.3-.3.5-.7.4-1.2-.2-2.7-5.4-9.9-7.4-12.4l.9-.7c.3.4 7.4 9.4 7.6 13 0 .7-.2 1.4-.7 2-1.9 2.1-7.1 2.1-7.3 2.1v.1Z"/><path fill="#000" d="m531.8 502.4-.5-1c1.4-.7 4.9-1.6 6.1-1.9v-3.9h1.1v4.8h-.4c0 .1-4.7 1.2-6.3 2Zm22.6 0c-2.3-1.1-7.3-1.9-7.3-1.9h-.5v-4.9h1.1v3.9c1.3.2 5.1 1 7.1 1.9l-.5 1h.1Zm-14.575-14.266-1 .024.049 2 1-.025-.049-1.999Zm7.398.019-.999.024.048 2 1-.025-.049-1.999ZM535.4 490c-.1 0-1.2-.1-1.9-.6-.9-.7-1.1-2.4-.7-3.3.5-1.1 2-.8 2.2-.8l-.2 1.1c-.4 0-.9 0-1 .1-.2.5 0 1.7.3 1.9.4.3 1.1.4 1.4.4v1.1l-.1.1Zm14.8 0v-1.1c.2 0 .9-.1 1.3-.4.4-.3.5-1.4.3-1.9 0-.2-.6-.2-1-.1l-.2-1.1c.2 0 1.7-.3 2.2.8.4.9.3 2.6-.7 3.3-.7.5-1.8.6-1.9.6v-.1Zm-169.6 88.7h-75.5v1.1h75.5v-1.1Zm-12.757-84.166-.179 6.397 1.1.031.178-6.397-1.099-.031ZM134.5 486.4a4.3 4.3 0 1 0 0-8.6 4.3 4.3 0 0 0 0 8.6Z"/><path fill="#000" d="M134.5 486.9c-2.7 0-4.8-2.2-4.8-4.9 0-2.6 2.2-4.8 4.8-4.8 2.7 0 4.8 2.2 4.8 4.9 0 1.3-.5 2.5-1.4 3.4-.9.9-2.1 1.4-3.4 1.4Zm0-8.5c-2 0-3.7 1.6-3.7 3.7s1.6 3.7 3.7 3.8c1 0 1.9-.4 2.6-1.1.7-.7 1.1-1.6 1.1-2.6 0-2.1-1.6-3.7-3.7-3.8Z"/><path fill="#000" d="M134.5 486.9c-2.7 0-4.8-2.2-4.8-4.9 0-2.6 2.2-4.8 4.8-4.8 2.7 0 4.8 2.2 4.8 4.9 0 1.3-.5 2.5-1.4 3.4-.9.9-2.1 1.4-3.4 1.4Zm0-8.5c-2 0-3.7 1.6-3.7 3.7s1.6 3.7 3.7 3.8c1 0 1.9-.4 2.6-1.1.7-.7 1.1-1.6 1.1-2.6 0-2.1-1.6-3.7-3.7-3.8Z"/><path fill="#000" d="M130.2 481.7c-.8-.3-1.7-.5-2.8-.6-5.7-.4-8.7 2.8-8.9 3.7-.2.9-.2 2.2-.2 2.2h5.3v3.5h.7l.6-1.8s2-1 2.5 0c.6 1 .4 2.4-.4 3l1 3.5 1.2.4c3 .2 6.7-2.1 5.5-8.4l-.2-.8"/><path fill="#000" d="M129.7 496.2h-.5l-1.5-.5-1.2-4.1.3-.2c.6-.4.7-1.5.2-2.3-.2-.3-1.1-.1-1.6.1l-.7 2.1h-1.6v-3.4h-5.3v-.7s0-1.3.2-2.2c.2-1.1 3.5-4.7 9.5-4.2 1.1 0 2.1.3 3 .6l-.4 1c-.8-.3-1.7-.5-2.7-.5-5.4-.4-8.2 2.7-8.3 3.3 0 .5-.1 1.1-.1 1.6h5.2v2.8l.3-1.1h.2c.3-.2 2.5-1.3 3.3.1.7 1.2.5 2.6-.3 3.5l.8 2.9.9.3c1.5 0 2.8-.5 3.7-1.5 1.2-1.4 1.6-3.5 1.1-6.2l-.2-.7 1-.3.2.8c.8 3.9-.3 6.1-1.3 7.2-1.1 1.2-2.6 1.9-4.3 1.9l.1-.3Zm355.8 7.1 1.9 3.3v3.5l-.8 8.5s0 .8-1 .8h-4.9l4.8-16.1Z"/><path fill="#000" d="m480 520 5.4-18 2.6 4.5v3.6l-.8 8.6c0 .5-.5 1.3-1.5 1.3H480Zm5.7-15.3-4.3 14.2h4.1c.6 0 .4-.2.4-.3l.8-8.5v-3.3l-1.2-2 .2-.1Z"/><path fill="#000" d="m487.2 507.8-3.1-6.6c-1.2.2-4.4.6-5.1-2-.7-2.6-1.8-10.9-1.8-11.3h1.1s1.1 8.4 1.8 11c.6 2.1 4.2 1.1 4.2 1.1h.4c0-.1 3.5 7.3 3.5 7.3l-1 .5Zm7.799-21.4a4.1 4.1 0 1 0 0-8.2 4.1 4.1 0 0 0 0 8.2Z"/><path fill="#000" d="M494.999 486.9c-1 0-2.1-.4-2.9-1-1-.8-1.6-1.9-1.7-3.1-.1-1.2.2-2.4 1-3.4s1.9-1.6 3.1-1.7c1.2-.1 2.4.2 3.4 1s1.6 1.9 1.7 3.1c.3 2.5-1.6 4.8-4.1 5.1h-.5Zm0-8.1h-.4c-.9.1-1.8.6-2.4 1.3-.6.7-.9 1.6-.8 2.6.1.9.6 1.8 1.3 2.4.7.6 1.7.9 2.6.8 1.9-.2 3.3-1.9 3.1-3.9-.1-.9-.6-1.8-1.3-2.4-.6-.5-1.4-.8-2.2-.8h.1Z"/><path fill="#000" d="M490.8 482.7s-5.8-2.1-9.5-.1c-2.4 1.3-3.7 5.1-3.7 5.1l8 3.2s1-1.3 2-1.2c1 .1 1.8 1.6 1.4 2.4-.4.8-1.1 1.5-1.1 1.5l3.3 2s3.4-2.9 2.2-9.3"/><path fill="#000" d="m491.399 496.2-4.3-2.5.5-.5s.6-.6.9-1.4c.1-.2 0-.7-.2-1-.2-.3-.5-.6-.8-.6-.6 0-1.3.7-1.5 1l-.3.3-8.8-3.5.2-.5c0-.2 1.4-4 3.9-5.4 3.9-2.1 9.7 0 9.9 0l-.4 1s-5.6-2-9-.1c-1.7.9-2.8 3.3-3.2 4.3l7.1 2.8c.4-.5 1.3-1.2 2.2-1.1.6 0 1.2.5 1.6 1.1.4.7.5 1.5.3 2s-.5.9-.7 1.2l2.4 1.4c.7-.8 2.7-3.5 1.7-8.5l1.1-.2c1.3 6.6-2.2 9.7-2.4 9.8l-.3.3.1.1Zm-8.751-3.828-.993.121.244 1.986.993-.122-.244-1.985Z"/><path fill="#000" d="m492.294 494.439-1.029.387 1.196 3.183 1.03-.387-1.197-3.183Z"/><path fill="#fff" d="M184.7 630.7v-29.2h14.4v49.2"/><path fill="#000" d="M199.6 650.7h-1.1V602h-13.3v28.7h-1.1v-29.8h15.5v49.8Z"/><path fill="#DBE2EA" d="M199.3 720.3h-14.2v-65.4c0-6.7-5.5-12.2-12.2-12.2H56.1c-14.6 0-26.4-11.9-26.4-26.4v-15.8h14.2v15.8c0 6.7 5.5 12.2 12.2 12.2h116.8c14.6 0 26.4 11.9 26.4 26.4v65.4Z"/><path fill="#000" d="M199.9 720.8h-15.3v-65.9c0-6.4-5.2-11.7-11.7-11.7H56.1c-14.9 0-27-12.1-27-27v-16.3h15.3v16.3c0 6.4 5.2 11.7 11.7 11.7h116.8c14.9 0 27 12.1 27 27v65.9Zm-14.2-1.1h13.1v-64.8c0-14.3-11.6-25.9-25.9-25.9H56.1c-7 0-12.8-5.7-12.8-12.8V601H30.2v15.2c0 14.3 11.6 25.9 25.9 25.9h116.8c7 0 12.8 5.7 12.8 12.8v64.8Z"/><path fill="#fff" d="M140.9 704.5h-14.2v-25.9c0-5.8-4.7-10.4-10.4-10.4H112c-13.6 0-24.6-11.1-24.6-24.6v-42.5h14.2v42.5c0 5.8 4.7 10.4 10.4 10.4h4.3c13.6 0 24.6 11.1 24.6 24.6v25.9Z"/><path fill="#000" d="M141.4 705.1h-15.3v-26.4c0-5.5-4.4-9.9-9.9-9.9h-4.3c-13.9 0-25.2-11.3-25.2-25.2v-43.1H102v43.1c0 5.5 4.4 9.9 9.9 9.9h4.3c13.9 0 25.2 11.3 25.2 25.2v26.4Zm-14.1-1.1h13.1v-25.4c0-13.3-10.8-24.1-24.1-24.1H112c-6.1 0-11-4.9-11-11v-42H87.9v42c0 13.3 10.8 24.1 24.1 24.1h4.3c6.1 0 11 4.9 11 11V704Z"/><path fill="#DBE2EA" d="M256.9 600.8h-14.2v103.9h14.2V600.8Z"/><path fill="#000" d="M257.5 705.2h-15.3V600.3h15.3v104.9Zm-14.2-1.1h13.1V601.3h-13.1v102.8Z"/><path fill="#fff" d="M426.8 707.1h-14.2v-61.5c0-6.2-5.1-11.3-11.3-11.3h-89.1c-14.1 0-25.5-11.4-25.5-25.5v-7.9h14.2v7.9c0 6.2 5.1 11.3 11.3 11.3h89.1c14.1 0 25.5 11.4 25.5 25.5v61.5Z"/><path fill="#000" d="M427.3 707.6H412v-62c0-5.9-4.8-10.8-10.8-10.8h-89.1c-14.4 0-26.1-11.7-26.1-26.1v-8.4h15.3v8.4c0 5.9 4.8 10.8 10.8 10.8h89.1c14.4 0 26.1 11.7 26.1 26.1v62Zm-14.2-1h13.1v-60.9c0-13.8-11.2-25-25-25h-89.1c-6.5 0-11.9-5.3-11.9-11.9v-7.3h-13.1v7.3c0 13.8 11.2 25 25 25h89.1c6.5 0 11.9 5.3 11.9 11.9v60.9Z"/><path fill="#fff" d="M316.2 721.6H302v-49.5c0-12.6 10.3-22.9 22.9-22.9h219.2c4.8 0 8.7-3.9 8.7-8.7v-39.8H567v39.8c0 12.6-10.3 22.9-22.9 22.9H324.9c-4.8 0-8.7 3.9-8.7 8.7v49.5Z"/><path fill="#000" d="M316.8 722.1h-15.3v-50c0-12.9 10.5-23.4 23.4-23.4h219.2c4.5 0 8.2-3.7 8.2-8.2v-40.3h15.3v40.3c0 12.9-10.5 23.4-23.4 23.4H325c-4.5 0-8.2 3.7-8.2 8.2v50Zm-14.2-1.1h13.1v-48.9c0-5.1 4.1-9.2 9.2-9.2h219.2c12.3 0 22.3-10 22.3-22.3v-39.2h-13.1v39.2c0 5.1-4.1 9.2-9.2 9.2H324.9c-12.3 0-22.3 10-22.3 22.3V721Z"/><path fill="#fff" d="M410.3 712v-7c0-1.5 4.3-2.7 9.5-2.7s9.5 1.2 9.5 2.7v7.1"/><path fill="#000" d="M419.8 714.8c5.247 0 9.5-1.209 9.5-2.7s-4.253-2.7-9.5-2.7-9.5 1.209-9.5 2.7 4.253 2.7 9.5 2.7Z"/><path fill="#000" d="M419.8 715.4c-5 0-10.1-1.1-10.1-3.3 0-2.2 5.1-3.3 10.1-3.3s10.1 1.1 10.1 3.3c0 2.2-5.1 3.3-10.1 3.3Zm0-5.5c-5.9 0-9 1.4-9 2.2 0 .8 3.1 2.2 9 2.2s9-1.4 9-2.2c0-.8-3.1-2.2-9-2.2Z"/><path fill="#000" d="M429.9 712.1h-1.1V705c0-.8-3.1-2.2-9-2.2s-9 1.4-9 2.2v7h-1.1v-7c0-2.2 5.1-3.3 10.1-3.3s10.1 1.1 10.1 3.3v7.1Z"/><path fill="#fff" d="M240.7 712.2v-7c0-1.5 4.3-2.7 9.5-2.7s9.5 1.2 9.5 2.7v7.1"/><path fill="#000" d="M250.199 715c5.247 0 9.5-1.209 9.5-2.7s-4.253-2.7-9.5-2.7c-5.246 0-9.5 1.209-9.5 2.7s4.254 2.7 9.5 2.7Z"/><path fill="#000" d="M250.2 715.6c-5 0-10.1-1.1-10.1-3.3 0-2.2 5.1-3.3 10.1-3.3s10.1 1.1 10.1 3.3c0 2.2-5.1 3.3-10.1 3.3Zm0-5.5c-5.9 0-9 1.4-9 2.2 0 .8 3.1 2.2 9 2.2s9-1.4 9-2.2c0-.8-3.1-2.2-9-2.2Z"/><path fill="#000" d="M260.3 712.3h-1.1v-7.1c0-.8-3.1-2.2-9-2.2s-9 1.4-9 2.2v7h-1.1v-7c0-2.2 5.1-3.3 10.1-3.3s10.1 1.1 10.1 3.3v7.1Z"/><path fill="#DBE2EA" d="M369.3 600.8h-14.2v133.1h14.2V600.8Z"/><path fill="#000" d="M369.9 734.4h-15.3V600.2h15.3v134.2Zm-14.2-1.1h13.1v-132h-13.1v132Z"/><path fill="#fff" d="M353 741.5v-7c0-1.5 4.3-2.7 9.5-2.7s9.5 1.2 9.5 2.7v7.1"/><path fill="#000" d="M362.6 744.3c5.246 0 9.5-1.209 9.5-2.7s-4.254-2.7-9.5-2.7c-5.247 0-9.5 1.209-9.5 2.7s4.253 2.7 9.5 2.7Z"/><path fill="#000" d="M362.6 744.9c-5 0-10.1-1.1-10.1-3.3 0-2.2 5.1-3.3 10.1-3.3s10.1 1.1 10.1 3.3c0 2.2-5.1 3.3-10.1 3.3Zm0-5.5c-5.9 0-9 1.4-9 2.2 0 .8 3.1 2.2 9 2.2s9-1.4 9-2.2c0-.8-3.1-2.2-9-2.2Z"/><path fill="#000" d="M372.6 741.6h-1.1v-7.1c0-.8-3.1-2.2-9-2.2s-9 1.4-9 2.2v7h-1.1v-7c0-2.2 5.1-3.3 10.1-3.3s10.1 1.1 10.1 3.3v7.1Z"/><path fill="#fff" d="M124.2 711.7v-7c0-1.5 4.3-2.7 9.5-2.7s9.5 1.2 9.5 2.7v7.1"/><path fill="#000" d="M133.699 714.5c5.247 0 9.5-1.209 9.5-2.7s-4.253-2.7-9.5-2.7c-5.246 0-9.5 1.209-9.5 2.7s4.254 2.7 9.5 2.7Z"/><path fill="#000" d="M133.7 715.1c-5 0-10.1-1.1-10.1-3.3 0-2.2 5.1-3.3 10.1-3.3s10.1 1.1 10.1 3.3c0 2.2-5.1 3.3-10.1 3.3Zm0-5.5c-5.9 0-9 1.4-9 2.2 0 .8 3.1 2.2 9 2.2s9-1.4 9-2.2c0-.8-3.1-2.2-9-2.2Z"/><path fill="#000" d="M143.8 711.8h-1.1v-7.1c0-.8-3.1-2.2-9-2.2s-9 1.4-9 2.2v7h-1.1v-7c0-2.2 5.1-3.3 10.1-3.3s10.1 1.1 10.1 3.3v7.1Z"/><path fill="#fff" d="M299.8 727.3v-7c0-1.5 4.3-2.7 9.5-2.7s9.5 1.2 9.5 2.7v7.1"/><path fill="#000" d="M309.3 730.1c5.247 0 9.5-1.209 9.5-2.7s-4.253-2.7-9.5-2.7-9.5 1.209-9.5 2.7 4.253 2.7 9.5 2.7Z"/><path fill="#000" d="M309.3 730.7c-5 0-10.1-1.1-10.1-3.3 0-2.2 5.1-3.3 10.1-3.3s10.1 1.1 10.1 3.3c0 2.2-5.1 3.3-10.1 3.3Zm0-5.5c-5.9 0-9 1.4-9 2.2 0 .8 3.1 2.2 9 2.2s9-1.4 9-2.2c0-.8-3.1-2.2-9-2.2Z"/><path fill="#000" d="M319.4 727.4h-1.1v-7.1c0-.8-3.1-2.2-9-2.2s-9 1.4-9 2.2v7h-1.1v-7c0-2.2 5.1-3.3 10.1-3.3s10.1 1.1 10.1 3.3v7.1Z"/><path fill="#fff" d="M182.9 727v-7c0-1.5 4.3-2.7 9.5-2.7s9.5 1.2 9.5 2.7v7.1"/><path fill="#000" d="M192.399 729.8c5.247 0 9.5-1.209 9.5-2.7s-4.253-2.7-9.5-2.7c-5.246 0-9.5 1.209-9.5 2.7s4.254 2.7 9.5 2.7Z"/><path fill="#000" d="M192.4 730.4c-5 0-10.1-1.1-10.1-3.3 0-2.2 5.1-3.3 10.1-3.3s10.1 1.1 10.1 3.3c0 2.2-5.1 3.3-10.1 3.3Zm0-5.5c-5.9 0-9 1.4-9 2.2 0 .8 3.1 2.2 9 2.2s9-1.4 9-2.2c0-.8-3.1-2.2-9-2.2Z"/><path fill="#000" d="M202.5 727.1h-1.1V720c0-.8-3.1-2.2-9-2.2s-9 1.4-9 2.2v7h-1.1v-7c0-2.2 5.1-3.3 10.1-3.3s10.1 1.1 10.1 3.3v7.1Z"/><path fill="#fff" d="M430.7 650.3h-21.2v12.1h21.2v-12.1Zm-62.1-2.4h-12.8v18.8h12.8v-18.8Z"/><path fill="#000" d="M193.2 735.2h-1.1v14.7h1.1v-14.7Zm-7.4 5.7h-1.1v9.1h1.1v-9.1Zm14.6 2.6h-1.1v6.4h1.1v-6.4Zm105.8-7.7h-1.1v6.4h1.1v-6.4Zm54.4 12.8h-1.1v6.4h1.1v-6.4Zm6 0h-1.1v6.4h1.1v-6.4Zm-53.5-15.2H312v8.8h1.1v-8.8Zm107.4-18.2h-1.1v14.7h1.1v-14.7Zm-7.4 5.7H412v9.1h1.1v-9.1Zm14.5 2.6h-1.1v6.4h1.1v-6.4Zm-51.4-321H345v-1.1h30.1l-10.7-241.1 1-.1 10.8 242.3Z"/><path fill="#fff" d="M100.7 712.5h-14v19.6h14v-19.6Zm71.7 8.9h-10v14h10v-14Z"/><path fill="#FF3131" d="M100.7 712.5h-14v19.6h14v-19.6Z" opacity=".5"/><path fill="#000" d="M101.2 732.7H86.1V712h15.1v20.7Zm-14-1.1h12.9v-18.5H87.2v18.5Z"/><path fill="#fff" d="M468 718.8h-14v19.6h14v-19.6Zm4.8 41.3h-10v14h10v-14Zm67.7-34.9h-11.7v16.3h11.7v-16.3Z"/><path fill="#0AD0BC" d="M468 718.8h-14v19.6h14v-19.6Zm-295.6 2.6h-10v14h10v-14Z" opacity=".2"/><path fill="#fff" d="M280.7 779.9h-16.4v23h16.4v-23Zm-41.1-4.2h-11.7V792h11.7v-16.3Z"/><path fill="#fff" d="M280.7 779.9h-16.4v23h16.4v-23Z" opacity=".2"/><path fill="#fff" d="M265 761.7h-26.7v-37.1h20l6.7 6.1v31Z"/><path fill="#0AD0BC" d="M265 761.7h-26.7v-37.1h20l6.7 6.1v31Z" opacity=".2"/><path fill="#fff" d="M513.8 763.6h-26.7v-35.3h20.1l6.6 5.8v29.5Z"/><path fill="#0AD0BC" d="M513.8 763.6h-26.7v-35.3h20.1l6.6 5.8v29.5Z" opacity=".2"/><path fill="#fff" d="M349.9 797.4h27.9v-38.7h-20.9l-7 6.4v32.3Zm58.3-2.9h-11.7v16.3h11.7v-16.3Z"/><path fill="#FF3131" d="M349.9 797.4h27.9v-38.7h-20.9l-7 6.4v32.3Z" opacity=".1"/><path fill="#0AD0BC" d="M408.2 794.5h-11.7v16.3h11.7v-16.3Z" opacity=".2"/><path fill="#000" d="M468.5 739h-15.1v-20.7h15.1V739Zm-14-1.1h12.9v-18.5h-12.9v18.5Zm-281.6-2h-11.1v-15.1h11.1v15.1Zm-10-1.1h8.9v-12.9h-8.9v12.9Z"/><path fill="#DBE2EA" d="M150.2 774.7h-10v14h10v-14Z"/><path fill="#000" d="M150.7 789.2h-11.1v-15.1h11.1v15.1Zm-10-1h8.9v-12.9h-8.9v12.9Z"/><path fill="#FF3131" d="M472.8 760.1h-10v14h10v-14Zm-233.2 15.6h-11.7V792h11.7v-16.3Z" opacity=".2"/><path fill="#DBE2EA" d="M393 725.5h-10.6v14.9H393v-14.9Z"/><path fill="#FF3131" d="M540.5 725.2h-11.7v16.3h11.7v-16.3Z" opacity=".2"/><path fill="#000" d="M473.3 774.6h-11.1v-15.1h11.1v15.1Zm-10-1.1h8.9v-12.9h-8.9v12.9Zm-223.2 19.1h-12.7v-17.4h12.7v17.4Zm-11.7-1.1H239v-15.3h-10.6v15.3Zm52.9 12h-17.5v-24.1h17.5v24.1Zm-16.4-1.1h15.3v-21.9h-15.3v21.9ZM393.6 741h-11.7v-16h11.7v16Zm-10.7-1.1h9.6V726h-9.6v13.9Zm158.1 2.2h-12.7v-17.4H541v17.4Zm-11.6-1.1H540v-15.3h-10.6V741Zm-120.7 70.4H396V794h12.7v17.4Zm-11.7-1.1h10.6V795H397v15.3Z"/><path fill="#fff" d="M504.5 600.3h-14.2v113.5h14.2V600.3Z"/><path fill="#000" d="M505 714.3h-15.3V599.7H505v114.6Zm-14.2-1h13.1V600.9h-13.1v112.4Z"/><path fill="#fff" d="M488.4 717.1v-7c0-1.5 4.3-2.7 9.5-2.7s9.5 1.2 9.5 2.7v7.1"/><path fill="#000" d="M497.899 719.9c5.247 0 9.5-1.209 9.5-2.7s-4.253-2.7-9.5-2.7c-5.246 0-9.5 1.209-9.5 2.7s4.254 2.7 9.5 2.7Z"/><path fill="#000" d="M497.9 720.5c-5 0-10.1-1.1-10.1-3.3 0-2.2 5.1-3.3 10.1-3.3s10.1 1.1 10.1 3.3c0 2.2-5.1 3.3-10.1 3.3Zm0-5.5c-5.9 0-9 1.4-9 2.2 0 .8 3.1 2.2 9 2.2s9-1.4 9-2.2c0-.8-3.1-2.2-9-2.2Z"/><path fill="#000" d="M508 717.2h-1.1v-7.1c0-.8-3.1-2.2-9-2.2s-9 1.4-9 2.2v7h-1.1v-7c0-2.2 5.1-3.3 10.1-3.3s10.1 1.1 10.1 3.3v7.1Zm-133.1-68.5h-22.5v1.1h22.5v-1.1Zm0 14.1h-22.5v1.1h22.5v-1.1Z"/><path fill="#fff" d="M371.4 649.8h-17.7v12.9h17.7v-12.9Z"/><path fill="#000" d="m218.8 402.1 2.1-108 149.3.2 5.8 107.5-157.2.3Z"/><path fill="#DBE2EA" d="m420.778 369.413-10.862-25.59-89.749 38.096 10.862 25.59 89.749-38.096Z"/><path fill="#000" d="M331.3 408.4 320 381.8l.5-.2 90.2-38.4 11.3 26.6-.5.2-90.2 38.4Zm-9.9-26 10.5 24.6 88.7-37.7-10.5-24.6-88.7 37.7Z"/><path fill="#0AD0BC" d="M221.6 293.3h12.3l-13.6 108.3 1.3-108.3Z" opacity=".5"/><path fill="#000" d="M535.2 484.5s-.4-3.2 1.6-4.4c2-1.2 4.1-1.9 5.8-1.9 1.7 0 5 .3 6.1 1.6 1.1 1.3 1.6 1.7 1.6 2.9v1.7s.2 1.1-.7 1.1h-13.9s-.6-.3-.6-.9l.1-.1Z"/><path fill="#000" d="M549.7 486h-14.2c0-.1-.9-.6-.9-1.4 0-.4-.3-3.5 1.9-4.9 2-1.3 4.2-2 6.1-2 1.9 0 5 0 6.6 1.8l.3.3c1 1.1 1.5 1.7 1.5 3v1.7c0 .2 0 .8-.3 1.2-.2.2-.4.4-.9.4l-.1-.1Zm-13.8-1.2h13.8v-2.1c0-1.1-.3-1.3-1.2-2.3l-.3-.3c-.9-1-3.9-1.4-5.7-1.4-1.8 0-3.7.7-5.5 1.8-1.7 1.1-1.4 3.9-1.4 3.9 0 .2.1.3.2.4h.1Zm-213.7 2.6s-.4-3.2 1.6-4.4c2-1.2 4.1-1.9 5.8-1.9 1.7 0 5 .3 6.1 1.6 1.1 1.3 1.6 1.7 1.6 2.9v1.7s.2 1.1-.7 1.1h-13.9s-.6-.3-.6-.9l.1-.1Z"/><path fill="#000" d="M336.6 488.9h-14.2c0-.1-.9-.6-.9-1.4 0-.4-.3-3.5 1.9-4.9 2-1.3 4.2-2 6.1-2 1.9 0 5 0 6.6 1.8l.3.3c1 1.1 1.5 1.7 1.5 3v1.7c0 .2 0 .8-.3 1.2-.2.2-.4.4-.9.4l-.1-.1Zm-13.7-1.1h13.8v-2.1c0-1.1-.3-1.3-1.2-2.3l-.3-.3c-.9-1-3.9-1.4-5.7-1.4-1.8 0-3.7.7-5.5 1.8-1.7 1.1-1.4 3.9-1.4 3.9 0 .2.1.3.2.4h.1Zm-286.3-3.4s-.4-3.2 1.6-4.4c2-1.2 4.1-1.9 5.8-1.9 1.7 0 5 .3 6.1 1.6 1.1 1.3 1.6 1.7 1.6 2.9v1.7s.2 1.1-.7 1.1H37.1s-.6-.3-.6-.9l.1-.1Z"/><path fill="#000" d="M51.1 485.9H36.9c0-.1-.9-.6-.9-1.4 0-.4-.3-3.5 1.9-4.9 2-1.3 4.2-2 6.1-2 1.9 0 5 0 6.6 1.8l.3.3c1 1.1 1.5 1.7 1.5 3v1.7c0 .2 0 .8-.3 1.2-.2.2-.4.4-.9.4l-.1-.1Zm-13.7-1.2h13.8v-2.1c0-1.1-.3-1.3-1.2-2.3l-.3-.3c-.9-1-3.9-1.4-5.7-1.4-1.8 0-3.7.7-5.5 1.8-1.7 1.1-1.4 3.9-1.4 3.9 0 .2.1.3.2.4h.1Zm81.9 40.3h-1.1v6h1.1v-6Z"/><path fill="#000" d="m113.2 546.4 3.2 25.8h-15.2l-5.1-34.1c-.7-3.8 2.2-7.3 6.1-7.4l40.8-.2.2.4v7.8c0 4.2-3.4 7.6-7.6 7.6h-22.5l.1.1Zm276.4 0-3.2 25.8h15.2l5.1-34.1c.7-3.8-2.2-7.3-6.1-7.4l-40.8-.2-.2.4v7.8c0 4.2 3.4 7.6 7.6 7.6h22.5l-.1.1ZM73.2 528.5h-5.5v51.1h5.5v-51.1Zm180.9 6.5h-13v37.6h13V535Zm259.6-3.5h-5.3v47.7h5.3v-47.7Zm-208.3 16.6H300V579h5.4v-30.9Zm134.1-16.7h-4.9v47.7h4.9v-47.7Zm-70.1 132.2h-14.2v4.9h14.2v-4.9Zm57 0h-14.2v4.9h14.2v-4.9Zm82.5-14.3h-3.8v13.9h3.8v-13.9Zm-403.2-21h-3.8v13.9h3.8v-13.9Zm312.602-278.73-4.673 2.042 4.604 10.538 4.673-2.042-4.604-10.538ZM67.4 486h-1.1v2.9h1.1V486Zm0 5.4h-1.1v2.9h1.1v-2.9Zm3.6-1.9h-2.9v1.1H71v-1.1Zm-5.4 0h-2.9v1.1h2.9v-1.1Zm-45.9 5.8h-1.1v2.9h1.1v-2.9Zm0 5.4h-1.1v2.9h1.1v-2.9Zm3.6-1.8h-2.9v1.1h2.9v-1.1Zm-5.4 0H15v1.1h2.9v-1.1Zm90.2-8.7H107v2.9h1.1v-2.9Zm0 5.4H107v2.9h1.1v-2.9Zm3.601-1.8h-2.9v1.1h2.9v-1.1Zm-5.401 0h-2.9v1.1h2.9v-1.1Zm47.7 4.3h-1.1v2.9h1.1v-2.9Zm0 5.4h-1.1v2.9h1.1v-2.9Zm3.701-1.8h-2.9v1.1h2.9v-1.1Zm-5.401 0h-2.9v1.1h2.9v-1.1Zm59.6-8.4h-1.1v2.9h1.1v-2.9Zm0 5.4h-1.1v2.9h1.1v-2.9Zm3.601-1.8h-2.9v1.1h2.9v-1.1Zm-5.401 0h-2.9v1.1h2.9v-1.1Zm43-13.5H252v2.9h1.1v-2.9Zm0 5.4H252v2.9h1.1v-2.9Zm3.601-1.8h-2.9v1.1h2.9V487Zm-5.401 0h-2.9v1.1h2.9V487Zm102.8-1.6H353v2.9h1.1v-2.9Zm0 5.4H353v2.9h1.1v-2.9Zm3.601-1.8h-2.9v1.1h2.9V489Zm-5.401 0h-2.9v1.1h2.9V489Zm-45.001 3.2h-1.1v2.9h1.1v-2.9Zm0 5.4h-1.1v2.9h1.1v-2.9Zm3.601-1.8H308v1.1h2.9v-1.1Zm-5.4 0h-2.9v1.1h2.9v-1.1Zm150.6-3.2H455v2.9h1.1v-2.9Zm0 5.4H455v2.9h1.1V498Zm3.7-1.8h-2.9v1.1h2.9v-1.1Zm-5.5 0h-2.9v1.1h2.9v-1.1Zm58.1-4.3h-1.1v2.9h1.1v-2.9Zm0 5.4h-1.1v2.9h1.1v-2.9Zm3.7-1.8h-2.9v1.1h2.9v-1.1Zm-5.5 0h-2.9v1.1h2.9v-1.1Zm61.9 6.8h-1.1v2.9h1.1v-2.9Zm0 5.4h-1.1v2.9h1.1v-2.9Zm3.701-1.8h-2.9v1.1h2.9v-1.1Zm-5.401 0h-2.9v1.1h2.9v-1.1ZM83.5 495.1c-1.3 0-2.4-1.1-2.4-2.4 0-1.3 1.1-2.4 2.4-2.4 1.3 0 2.4 1.1 2.4 2.4 0 1.3-1.1 2.4-2.4 2.4Zm0-3.6c-.7 0-1.3.6-1.3 1.3 0 .7.6 1.3 1.3 1.3.7 0 1.3-.6 1.3-1.3 0-.7-.6-1.3-1.3-1.3Zm115.3 18c-1.3 0-2.4-1.1-2.4-2.4 0-1.3 1.1-2.4 2.4-2.4 1.3 0 2.4 1.1 2.4 2.4 0 1.3-1.1 2.4-2.4 2.4Zm0-3.6c-.7 0-1.3.6-1.3 1.3 0 .7.6 1.3 1.3 1.3.7 0 1.3-.6 1.3-1.3 0-.7-.6-1.3-1.3-1.3Zm63.1-5.2c-1.3 0-2.4-1.1-2.4-2.4 0-1.3 1.1-2.4 2.4-2.4 1.3 0 2.4 1.1 2.4 2.4 0 1.3-1.1 2.4-2.4 2.4Zm0-3.7c-.7 0-1.3.6-1.3 1.3 0 .7.6 1.3 1.3 1.3.7 0 1.3-.6 1.3-1.3 0-.7-.6-1.3-1.3-1.3Zm132 2.5c-1.3 0-2.4-1.1-2.4-2.4 0-1.3 1.1-2.4 2.4-2.4 1.3 0 2.4 1.1 2.4 2.4 0 1.3-1.1 2.4-2.4 2.4Zm0-3.6c-.7 0-1.3.6-1.3 1.3 0 .7.6 1.3 1.3 1.3.7 0 1.3-.6 1.3-1.3 0-.7-.6-1.3-1.3-1.3Zm72.5 14.6c-1.3 0-2.4-1.1-2.4-2.4 0-1.3 1.1-2.4 2.4-2.4 1.3 0 2.4 1.1 2.4 2.4 0 1.3-1.1 2.4-2.4 2.4Zm0-3.6c-.7 0-1.3.6-1.3 1.3 0 .7.6 1.3 1.3 1.3.7 0 1.3-.6 1.3-1.3 0-.7-.6-1.3-1.3-1.3Z"/><path fill="#fff" d="M254.4 534.4h-1v37.4h1v-37.4Z"/><path fill="#000" d="M104.8 142.4 93.7 160l-4.3-7.7s0-1.5.4-2.2c.5-.7 1.7-3.2 2.3-3.4.6-.2 3.6-.1 4.1-3 .6-2.8 3.1-.8 4.7-1.6s2.4-4.9 2.4-4.9 2.5-.6 2.4.7c-.2 1.3-.8 4.5-.8 4.5h-.1Zm138.8 18.2L222.1 243v-40.6l21.5-41.8Zm56.6-84 17.9 11.6-.4-7.4h-9.8c0-.1-4.8-.9-7.7-4.2Zm-33.9 686.1h-29v-39h21.8l7.3 7.1v31.9h-.1Zm-27.5-1.5h26v-29.7l-6.4-6.3h-19.6v36Z"/><path fill="#000" d="M265.5 732.8H257v-8.1h1.5v6.6h7v1.5Zm-5 4.7h-12.7v1.5h12.7v-1.5Zm0 6.7h-12.7v1.5h12.7v-1.5Zm0 6.7h-12.7v1.5h12.7v-1.5Zm-15.3-13.4h-2.6v1.5h2.6v-1.5Zm0 6.7h-2.6v1.5h2.6v-1.5Zm0 6.7h-2.6v1.5h2.6v-1.5Zm268.6 13.4h-27.6v-37h20.7l6.9 6.8v30.2Zm-26-1.5h24.6v-28.1l-6-5.9h-18.6v34Z"/><path fill="#000" d="M513 736h-8v-7.7h1.5v6.2h6.5v1.5Zm-4.9 3.2h-16.7v2h16.7v-2Zm0 5.1h-16.7v2h16.7v-2Zm0 5.1h-16.7v2h16.7v-2Zm0 5.2h-16.7v2h16.7v-2Zm-129.7 44.1h-30.1v-33.1l7.5-7.4h22.6v40.5Zm-28.6-1.5h27.1v-37.5h-20.5l-6.6 6.5v31Z"/><path fill="#000" d="M357.9 767.7h-8.8v-1.5h7.3v-6.9h1.5v8.4Zm13.8 1.6h-9v1.5h9v-1.5Zm.1 5.8h-17.3v1.5h17.3v-1.5Zm0 5.7h-17.3v1.5h17.3v-1.5Zm0 5.7h-17.3v1.5h17.3v-1.5Zm-227.9-41.2H124v2h19.9v-2Zm0 6.1H124v2h19.9v-2Z"/><path fill="#000" d="M149.8 764.1h-31.1v-41.8H142l7.8 7.6v34.2Zm-29.6-1.5h28.1v-32l-6.9-6.8h-21.2v38.8Z"/><path fill="#000" d="M149 732h-9v-8.7h1.5v7.2h7.5v1.5Zm-19.9-1.8v2.2c-.7 0-1.2.2-1.5.4-.3.2-.6.6-.7 1-.1.4-.2 1.2-.2 2.1h2.5v5.2h-5.1v-4.9c0-2 .4-3.5 1.3-4.5.9-.9 2.1-1.4 3.8-1.4l-.1-.1Zm7.2 0v2.2c-.7 0-1.2.2-1.5.4-.3.2-.6.5-.8 1-.2.5-.2 1.2-.2 2.1h2.5v5.2h-5.2v-4.9c0-2 .4-3.5 1.3-4.5s2.1-1.4 3.9-1.4v-.1Z"/><path fill="#FF3131" d="M307.9 757v3.1c-1 0-1.7.2-2.2.5-.5.3-.9.8-1.1 1.5-.2.7-.3 1.7-.3 3h3.6v7.5h-7.4v-7.1c0-2.9.6-5.1 1.9-6.5 1.3-1.4 3.1-2.1 5.5-2.1v.1Zm10.5 0v3.1c-1 0-1.7.2-2.2.5-.5.3-.9.8-1.1 1.5-.2.7-.3 1.7-.3 3h3.7v7.5H311v-7.1c0-2.9.6-5.1 1.9-6.5 1.2-1.4 3.1-2.1 5.6-2.1l-.1.1Z"/><path fill="#000" d="M432.4 749.9h-23.1v2h23.1v-2Zm0 7h-23.1v2h23.1v-2Z"/><path fill="#000" d="M439.2 782.1h-35.9v-48.3h26.9l9 8.8v39.5Zm-34.4-1.5h32.9v-37.4l-8.1-7.9h-24.8v45.3Z"/><path fill="#000" d="M438.4 744.9H428v-10h1.5v8.4h8.9v1.6Zm-11.9 30.8v-2.5c.8 0 1.4-.2 1.8-.4.4-.2.7-.6.9-1.2.2-.6.2-1.3.2-2.4h-2.9v-6h6v5.7c0 2.4-.5 4.1-1.5 5.2-1 1.1-2.5 1.6-4.4 1.6h-.1Zm-8.4 0v-2.5c.8 0 1.4-.2 1.8-.4.4-.2.7-.6.9-1.2.2-.6.3-1.4.3-2.4h-3v-6h6v5.7c0 2.4-.5 4.1-1.5 5.2-1 1.1-2.5 1.6-4.5 1.6Z"/><path fill="#0AD0BC" d="M194.4 787.3v-3.7c1.2 0 2-.3 2.6-.6.6-.4 1-.9 1.3-1.8.3-.9.4-2 .4-3.5h-4.2v-8.8h8.7v8.4c0 3.5-.7 6-2.2 7.6-1.5 1.6-3.6 2.4-6.5 2.4h-.1Zm-12.3 0v-3.7c1.2 0 2-.3 2.6-.6.6-.3 1-.9 1.3-1.8.3-.9.4-2 .4-3.5h-4.3v-8.8h8.8v8.4c0 3.5-.7 6-2.2 7.6-1.5 1.6-3.6 2.4-6.6 2.4Z"/><path fill="#000" d="M210.6 804.1h-26.9l-9-8.8v-39.5h35.9v48.3Zm-26.3-1.5h24.8v-45.3h-32.9v37.4l8.1 7.9Z"/><path fill="#000" d="M185.9 803h-1.5v-8.4h-8.9v-1.5h10.4v9.9Zm138.4-16.3h-22l-7.3-7.2v-32.2h29.3v39.4Zm-21.3-1.5h19.8v-36.4h-26.3v30l6.4 6.3.1.1Z"/><path fill="#000" d="M304.4 785.7h-1.5V779h-7.1v-1.5h8.6v8.2ZM57.1 135.9V65.8l.2-.2c.3-.3 31.9-29.6 82.7-37.4l.2 1.1c-48.5 7.5-79.4 34.6-81.9 37v67.4c5.5-4.1 35.9-25.8 81.7-32.9v-.4l-.4-70.4h1.1l.4 71.7h-.5c-50.4 7.9-82.2 33.3-82.5 33.5l-.9.7h-.1Z"/></svg>