<svg xmlns="http://www.w3.org/2000/svg" id="Layer_1" version="1.1" viewBox="0 0 250 250"><defs><style>.st0{fill:#fff}</style></defs><path d="M23.4 57.4h152.1v126H23.4z"/><path d="M11.8 44.6h152.1v126H11.8z" class="st0"/><path d="M42.8 90.2h19.1v55.2H42.8zM78 67h19.1v78.4H78zm35.4 11h19.1v67.4h-19.1z" style="fill:#0ad0bc"/><path d="M164.9 171.6H10.8v-128h154.1v128Zm-152.1-2h150.1v-124H12.8v124Z"/><path d="M62.5 145.9H42.3V89.6h20.2v56.3Zm-19.1-1h18V90.8h-18v54.1Zm54.2 1H77.4V66.4h20.2v79.5Zm-19.1-1h18V67.6h-18v77.3Zm54.6 1h-20.2V77.4h20.2v68.5Zm-19.1-1h18V78.6h-18v66.3Z"/><path d="M28.5 144.8h122.4v1.1H28.5z"/><circle cx="189.1" cy="174.5" r="50.8"/><circle cx="181.8" cy="163.7" r="50.8" class="st0"/><path d="M181.8 215.5c-28.6 0-51.8-23.2-51.8-51.8s23.2-51.8 51.8-51.8 51.8 23.2 51.8 51.8-23.2 51.8-51.8 51.8Zm0-101.7c-27.5 0-49.8 22.3-49.8 49.8s22.3 49.8 49.8 49.8 49.8-22.3 49.8-49.8-22.3-49.8-49.8-49.8Z"/><path d="M181.8 215.5c-28.6 0-51.8-23.2-51.8-51.8s23.2-51.8 51.8-51.8 51.8 23.2 51.8 51.8-23.2 51.8-51.8 51.8Zm0-101.7c-27.5 0-49.8 22.3-49.8 49.8s22.3 49.8 49.8 49.8 49.8-22.3 49.8-49.8-22.3-49.8-49.8-49.8Z"/><path d="m221.5 181.4-1-.4c2.4-5.4 3.7-11.2 3.7-17.3 0-23.4-19-42.4-42.4-42.4s-14.5 1.9-20.8 5.4l-.5-.9c6.5-3.6 13.8-5.6 21.3-5.6 24 0 43.5 19.5 43.5 43.5s-1.3 12.1-3.8 17.7Zm-39.7 25.8c-24 0-43.5-19.5-43.5-43.5s1.8-14.5 5.3-20.9l1 .5c-3.4 6.2-5.2 13.3-5.2 20.4 0 23.4 19 42.4 42.4 42.4s10.8-1 15.8-3l.4 1c-5.2 2.1-10.6 3.1-16.2 3.1Z"/><path d="M195 170.4c0 3.3-1.1 6-3.2 8.1s-4.9 3.4-8.4 3.8v5.2h-3.8v-5.2c-3.3-.2-6-1.1-8.3-2.6-2.3-1.6-4-3.7-5-6.4l5.8-3.4c1.4 3.5 3.9 5.4 7.5 5.8v-12.2c-1.8-.7-3.2-1.3-4.3-1.8-1.1-.5-2.3-1.3-3.5-2.2-1.2-.9-2.2-2.1-2.8-3.4-.6-1.4-.9-2.9-.9-4.7 0-3.3 1.1-6 3.3-8 2.2-2 4.9-3.2 8.2-3.5v-5.2h3.8v5.2c5.3.7 8.9 3.4 10.9 8.1l-5.7 3.3c-1-2.5-2.8-4.1-5.2-4.6v11.6c1.3.5 2.2.8 2.9 1.1.6.3 1.5.7 2.6 1.2s1.9 1.1 2.5 1.6c.6.5 1.2 1.2 1.9 2 .6.8 1.1 1.7 1.4 2.7.3 1 .4 2.2.4 3.4Zm-20.1-19.1c0 1.2.4 2.2 1.1 3 .7.8 1.9 1.6 3.6 2.4v-10.2c-1.5.2-2.6.8-3.4 1.6-.8.9-1.3 1.9-1.3 3.2Zm8.5 24.4c1.6-.3 2.8-.9 3.6-1.9.8-.9 1.2-2.1 1.2-3.4s-.4-2.3-1.2-3.1c-.8-.8-2-1.6-3.6-2.3v10.7Z"/></svg>