<svg xmlns="http://www.w3.org/2000/svg" id="Layer_1" version="1.1" viewBox="0 0 250 250"><defs><style>.st2{fill:#0ad0bc}</style></defs><path d="M66.2 184.6V68.1c0-4.3 3.5-7.9 7.9-7.9l.5-.3H34.8c-3.6 0-6.4 2.9-6.4 6.4v119.6c0 3.6 2.9 6.4 6.4 6.4h38.3c-3.8-.5-6.8-3.8-6.8-7.8Z" class="st2"/><path d="M154.1 192.9h-119c-3.8 0-7-3.1-7-7V66.3c0-3.8 3.1-7 7-7H154c3.8 0 7 3.1 7 7v119.6c0 3.8-3.1 7-7 7ZM35.1 60.5c-3.2 0-5.9 2.6-5.9 5.9V186c0 3.2 2.6 5.9 5.9 5.9H154c3.2 0 5.9-2.6 5.9-5.9V66.4c0-3.2-2.6-5.9-5.9-5.9H35.1Z"/><path d="M117.6 17.8h-40v-11h40.2c1.2 0 2.4.6 3 1.7s.9 2 .9 3.6-.5 3.1-1 4-1.8 1.7-3 1.7Z" class="st2"/><path d="M117.6 18.8h-41v-13h41.2c1.6 0 3.1.8 3.9 2.2.7 1.1 1 2.5 1 4.1s-.4 3.2-1.2 4.5c-.8 1.3-2.2 2.2-3.8 2.2Zm-38.9-2h39c.9 0 1.7-.4 2.1-1.2.6-1 .9-2.2.9-3.5s-.2-2.2-.7-3.1c-.4-.7-1.2-1.2-2.1-1.2H78.7v9Z"/><path d="M86.6 18h2v41.6h-2zm21.4 0h2v41.6h-2zM78.5 193h-4.1c-4.6 0-8.4-3.8-8.4-8.4V68.1c0-4.6 3.8-8.4 8.4-8.4h2.4v1h-2.4c-4.1 0-7.4 3.3-7.4 7.4v116.5c0 4.1 3.3 7.4 7.4 7.4h4.1v1ZM51 138.3h-4.1c-2.5 0-4.6-2.1-4.6-4.6v-22.8c0-2.5 2.1-4.6 4.6-4.6h4.2v3h-4.2c-.9 0-1.6.7-1.6 1.6v22.8c0 .9.7 1.6 1.6 1.6H51v3Z"/><path d="M90.6 79.6h3.9v95.1h-3.9zm39.1 0h3.9v95.1h-3.9z" class="st2"/><path d="M55.8 192.5c-.5 1-.7 2-.7 3.2 0 4.2 3.4 7.5 7.5 7.5s7.5-3.4 7.5-7.5-.3-2.5-.9-3.6"/><path d="M62.6 204.2c-4.7 0-8.5-3.8-8.5-8.5s.3-2.5.8-3.6l1.8.8c-.4.9-.6 1.8-.6 2.8 0 3.6 2.9 6.5 6.5 6.5s6.5-2.9 6.5-6.5-.3-2.2-.8-3.1l1.8-1c.7 1.2 1 2.7 1 4.1 0 4.7-3.8 8.5-8.5 8.5Zm64.1-11.7c-.5 1-.7 2-.7 3.2 0 4.2 3.4 7.5 7.5 7.5s7.5-3.4 7.5-7.5-.3-2.5-.9-3.6"/><path d="M133.6 204.2c-4.7 0-8.5-3.8-8.5-8.5s.3-2.5.8-3.6l1.8.8c-.4.9-.6 1.8-.6 2.8 0 3.6 2.9 6.5 6.5 6.5s6.5-2.9 6.5-6.5-.3-2.2-.8-3.1l1.8-1c.7 1.2 1 2.7 1 4.1 0 4.7-3.8 8.5-8.5 8.5Z"/><path d="M154.1 193.4h-119c-4.1 0-7.4-3.3-7.4-7.4V66.4c0-4.1 3.3-7.4 7.4-7.4H154c4.1 0 7.4 3.3 7.4 7.4V186c0 4.1-3.3 7.4-7.4 7.4ZM35.1 60.9c-3 0-5.4 2.4-5.4 5.4v119.6c0 3 2.4 5.4 5.4 5.4H154c3 0 5.4-2.4 5.4-5.4V66.3c0-3-2.4-5.4-5.4-5.4H35.1Z"/><ellipse cx="76.7" cy="12.2" rx="3.4" ry="6.4"/><rect width="104.3" height="103.7" x="122.7" y="137.2" rx="9.8" ry="9.8"/><rect width="104.3" height="103.7" x="111.9" y="125.3" rx="9.8" ry="9.8" style="fill:#fff"/><path d="M206.4 230h-84.7c-6 0-10.8-4.9-10.8-10.8v-84.1c0-6 4.9-10.8 10.8-10.8h84.7c6 0 10.8 4.9 10.8 10.8v84.1c0 6-4.9 10.8-10.8 10.8Zm-84.7-103.7c-4.9 0-8.8 4-8.8 8.8v84.1c0 4.9 4 8.8 8.8 8.8h84.7c4.9 0 8.8-4 8.8-8.8v-84.1c0-4.9-4-8.8-8.8-8.8h-84.7Z"/><path d="m197.1 139.2-2.1.2c-2.4.2-4.7 1.3-6.4 3.1 0 0-6.2 6.2-13.8 13.9l-37.7-7.7-4.6 4.3 29.3 16.5c-6.3 6.4-11.8 11.9-13.7 13.9-3.5 3.7-5.4 6-5.4 6l-16.5-2.5-2.8 3.1 14.4 7 5.5 5.3 7.1 14.6 3.1-2.8-2.6-17.7c2-1.6 3.9-3.4 5.3-4.7l13.9-13.9 17 29.1 4.2-4.6-8-37.8c7.4-7.5 13.5-13.5 13.5-13.5 1.8-1.8 2.9-4.2 3-6.8V142c.2-1.5-1.1-2.8-2.6-2.6Z" style="fill:#dbe2ea"/><path d="m187.5 207.3-17.6-30.1 14.2-14.3 8.2 39.1-4.8 5.3Zm-16.3-30 16.5 28.3 3.6-3.9-7.8-36.8-12.3 12.4Zm-8.9-7.6-30.3-17 5.3-4.9h.3l38.7 7.9-13.9 14.1Zm-28.6-17.3 28.5 16 12-12.2-36.6-7.4-3.9 3.6Zm4.7 44.7-15.4-7.5 3.4-3.8 17.5 2.7-5.6 8.5Zm-13.7-7.7 13.4 6.5 4.3-6.5-15.5-2.4-2.2 2.4Zm26 27.8-7.4-15.3 8.5-6.7 2.8 18.6-3.8 3.4Zm-6.2-15 6.5 13.4 2.4-2.2-2.4-16.3-6.5 5.1Z"/><path d="m143.8 202.5-6.1-6 .2-.3s4.4-7.4 10.3-13.5c5.6-5.8 40.1-40.6 40.5-40.9 1.8-1.8 4.2-3 6.7-3.2l2.1-.2c.9 0 1.8.2 2.4.8.6.6 1 1.5.9 2.4v2.2c-.3 2.7-1.4 5.2-3.3 7.1-.4.4-36.6 36.9-40.6 40.8-4 3.9-12.7 10.7-12.8 10.8l-.3.3Zm-4.8-6.2 4.9 4.8c1.7-1.3 8.9-7 12.4-10.4 3.9-3.9 40.2-40.4 40.6-40.7 1.7-1.7 2.7-4 2.9-6.4v-2.2c.2-.6 0-1.2-.5-1.6-.4-.4-1-.6-1.6-.5l-2.1.2c-2.3.2-4.5 1.3-6.1 2.9-.3.4-34.9 35.1-40.5 40.9-5.1 5.3-9 11.5-9.9 13Z"/><path d="m150.2 218.4-7.6-15.7-5.3-5-15.4-7.5 4.1-4.5 16.5 2.5c.7-.8 2.4-2.8 5.1-5.6 1.6-1.7 5.9-6.1 12.8-13L131 153.1l5.9-5.6 37.7 7.7c7.4-7.5 13.4-13.5 13.4-13.5 1.9-1.9 4.4-3.1 7-3.4l2.1-.2c1-.1 2 .2 2.8 1 .7.7 1.1 1.7 1.1 2.7v2.2c-.3 2.8-1.5 5.4-3.4 7.4l-13.1 13.2 8 37.8-5.5 6-17-29.2c-7.4 7.4-11.7 11.8-13 13-1.2 1.1-2.8 2.6-4.9 4.4l2.6 17.7-4.5 4.1Zm-25.1-28.8 13.4 6.6 5.6 5.4 6.6 13.6 1.7-1.5-2.7-17.8.4-.4c2.3-1.9 4.1-3.5 5.3-4.7 1.3-1.2 5.9-5.9 13.9-13.9l.9-.9 17 29.1 2.9-3.2-8-37.9 13.8-13.9c1.6-1.6 2.6-3.8 2.7-6.1v-2.2c.1-.4 0-.9-.3-1.2-.3-.3-.8-.5-1.2-.4l-2.1.2c-2.2.2-4.3 1.2-5.8 2.8 0 0-6.2 6.2-13.8 13.9l-.4.4-37.8-7.7-3.2 3 29.3 16.4-.9.9c-7.4 7.5-12 12.1-13.7 13.9-3.4 3.6-5.3 5.9-5.3 5.9l-.4.5-16.5-2.5-1.5 1.7Z"/></svg>