<svg xmlns="http://www.w3.org/2000/svg" viewBox="0 0 250 250"><rect width="152.1" height="111" x="29.1" y="97.8" rx="10.5" ry="10.5"/><rect width="152.1" height="111" x="17.4" y="85.1" rx="10.5" ry="10.5" style="fill:#fff"/><path d="M159.1 197H27.9c-6.3 0-11.5-5.2-11.5-11.5V95.6c0-6.3 5.2-11.5 11.5-11.5H159c6.3 0 11.5 5.2 11.5 11.5v89.9c0 6.3-5.2 11.5-11.5 11.5ZM27.9 86.1c-5.2 0-9.5 4.3-9.5 9.5v89.9c0 5.2 4.3 9.5 9.5 9.5H159c5.2 0 9.5-4.3 9.5-9.5V95.6c0-5.2-4.3-9.5-9.5-9.5H27.9Z"/><path d="M134.2 60.7h91.7l5.6 107.7H127.6l6.6-107.7z" style="fill:#0ad0bc"/><path d="M232.9 169.8H126.1l6.7-110.5h94.3l5.7 110.5Zm-103.8-2.7H230l-5.4-104.9h-89.1l-6.4 104.9Z"/><path d="m148.797 61.162 1-.05 5.382 106.263-.999.05zM171.6 68.6c0-1.6-.5-38.2 16.4-40.1 2.8-.3 5.4.5 7.7 2.5 9.8 8.5 11 35.3 11.1 36.4h-1.9c0-.2-1.2-27.1-10.4-35-1.9-1.6-4-2.3-6.3-2.1-15.2 1.7-14.7 37.8-14.7 38.2h-1.9Z"/><path d="M159.2 60.8h-1.8c.8-11.6 4-31 16.1-32.3 12.5-1.4 16.7 19.2 18.2 31.6l-1.8.2c-1.1-9.4-4.9-31.3-16.2-30-4.6.5-12.6 5.1-14.4 30.4Z"/><circle cx="172.7" cy="71.3" r="4.2"/><circle cx="205.8" cy="71.3" r="4.2"/><path d="M61.9 130.4H32.8v-29.1h29.1v29.1Zm-27.6-1.5h26.1v-26.1H34.3v26.1Zm27.6 47.7H32.8v-29.1h29.1v29.1Zm-27.6-1.5h26.1V149H34.3v26.1Zm37.9-60.3h45.3v1.5H72.2zm0 45.6h45.3v1.5H72.2z"/></svg>