<svg xmlns="http://www.w3.org/2000/svg" id="Layer_1" version="1.1" viewBox="0 0 250 250"><defs><style>.st1{fill:#fff}.st2{fill:#0ad0bc}</style></defs><path d="M60.4 99.7H44.9c-2.1 0-3.9-1.7-3.9-3.9v-3.1c0-2.1 1.7-3.9 3.9-3.9h15.5c.3 0 .5.2.5.5v9.8c0 .3-.2.5-.5.5Zm-15.5-9.8c-1.6 0-2.9 1.3-2.9 2.9v3.1c0 1.6 1.3 2.9 2.9 2.9h15V90h-15Z" style="fill:#002f60"/><path d="M44.9 89.4h15.5v9.8H44.9c-1.8 0-3.4-1.5-3.4-3.4v-3.1c0-1.8 1.5-3.4 3.4-3.4Zm156.4 9.9h-15.5v-9.8h15.5c1.8 0 3.4 1.5 3.4 3.4V96c0 1.8-1.5 3.4-3.4 3.4Z" class="st2"/><path d="M201.4 100.2h-16.5V88.4h16.5c2.4 0 4.4 2 4.4 4.4v3.1c0 2.4-2 4.4-4.4 4.4Zm-14.5-2h14.5c1.3 0 2.4-1.1 2.4-2.4v-3.1c0-1.3-1.1-2.4-2.4-2.4h-14.5v7.8Zm-126.6 2H43.8c-2.4 0-4.4-2-4.4-4.4v-3.1c0-2.4 2-4.4 4.4-4.4h16.5v11.8Zm-16.5-9.8c-1.3 0-2.4 1.1-2.4 2.4v3.1c0 1.3 1.1 2.4 2.4 2.4h14.5v-7.8H43.8Z"/><path d="m204 112.9-10.8-10.8c-1-1-1.7-2.1-2.3-3.3l-14.8-35.5c-1.7-3.9-5.6-6.4-9.8-6.4H80.7c-4.3 0-8.1 2.5-9.8 6.4L56.1 98.8c-.5 1.2-1.3 2.4-2.3 3.3L43 112.9c-2.2 2.2-3.3 5.1-3.1 8.2l2.5 42.8c.1 2.5 1.1 4.9 2.8 6.7 1.1 1.1 2.5 2 4.4 2.5 4.2 1 25.5.8 47.8 1.3l4.6.3c3.4 0 5.2-.3 9.7-.3 3.8 0 7 1.6 10.3 1.6v-.2c30.2-.4 71.1-1.5 75.5-2.6 1.9-.5 3.3-1.4 4.4-2.5 1.8-1.8 2.7-4.2 2.8-6.7l2.5-42.8c.2-3-1-6-3.1-8.2Z" class="st1"/><path d="M196.3 103.1H50.8l2.4-2.9c.5-.6 1-1.4 1.3-2.1l14.8-35.4c2-4.6 6.5-7.5 11.4-7.5h85.6c5 0 9.4 2.9 11.4 7.5l14.9 35.5c.3.8.8 1.5 1.3 2.1l2.4 2.9ZM57.6 99.6h131.8v-.1L174.5 64c-1.4-3.3-4.6-5.4-8.2-5.4H80.7c-3.6 0-6.8 2.1-8.2 5.4L57.7 99.4v.1Zm-15.5 68.2h25.7v21.4c0 3.2-2.6 5.7-5.7 5.7H47.9c-3.2 0-5.7-2.6-5.7-5.7v-21.4Zm135.5 0h25.7v21.4c0 3.2-2.6 5.7-5.7 5.7h-14.2c-3.2 0-5.7-2.6-5.7-5.7v-21.4Z"/><path d="M112 174.6h8.3l4.9-.2c30.2-.4 67.9-.3 72.3-1.4 1.9-.5 3.3-1.4 4.4-2.5 1.8-1.8 2.7-4.2 2.8-6.7l2.5-42.8c.2-3-1-6-3.1-8.2L193.3 102c-.8-.8-1.5-1.8-2-2.9H55.9c-.5 1.1-1.2 2-2 2.9l-10.8 10.8c-2.2 2.2-3.3 5.1-3.1 8.2l2.5 42.8c.1 2.5 1.1 4.9 2.8 6.7 1.1 1.1 2.5 2 4.4 2.5 4.2 1 25.4 1 47.7 1.5h4.8" class="st2"/><path d="m41.5 154 164.1.2s-.8 16.6-6.3 18.3c-5.5 1.7-70.6 3.4-70.6 3.4l-55.2-1.7s-25.3-1.2-28.3-3.6c-3.1-2.5-3.7-16.6-3.7-16.6Z" class="st2"/><path d="M123.5 175.4c-35.9 0-71.9-.3-74.3-.9s-3.6-1.4-5.1-2.9c-2-2-3.1-4.7-3.3-7.7l-2.5-42.8c-.2-3.5 1.1-6.9 3.6-9.3L52.7 101c.7-.7 1.3-1.5 1.7-2.5l.4-.8H192l.4.8c.5.9 1 1.8 1.7 2.5l10.8 10.8c2.5 2.5 3.7 5.8 3.6 9.3l-2.5 42.8c-.2 3-1.3 5.7-3.3 7.7-1.4 1.4-3.1 2.4-5.1 2.9-2.4.6-38.4.9-74.3.9Zm-66.7-74.7c-.5.9-1.2 1.7-1.9 2.4l-10.8 10.8c-1.8 1.8-2.8 4.4-2.7 7l2.5 42.8c.1 2.3 1 4.3 2.4 5.7 1 1 2.3 1.7 3.7 2.1 4.9 1 142.4 1 147.2 0 1.4-.3 2.6-1 3.7-2.1s2.3-3.5 2.4-5.7l2.5-42.8c.1-2.6-.8-5.2-2.7-7l-10.8-10.8c-.7-.7-1.3-1.5-1.9-2.4H56.8Z"/><circle cx="61" cy="124.8" r="9.9" class="st1"/><circle cx="183" cy="124.8" r="9.9" class="st1"/><path d="M61 135.7c-6 0-10.9-4.9-10.9-10.9S55 113.9 61 113.9s10.9 4.9 10.9 10.9S67 135.7 61 135.7Zm0-19.9c-4.9 0-8.9 4-8.9 8.9s4 8.9 8.9 8.9 8.9-4 8.9-8.9-4-8.9-8.9-8.9Zm122 19.9c-6 0-10.9-4.9-10.9-10.9s4.9-10.9 10.9-10.9 10.9 4.9 10.9 10.9-4.9 10.9-10.9 10.9Zm0-19.9c-4.9 0-8.9 4-8.9 8.9s4 8.9 8.9 8.9 8.9-4 8.9-8.9-4-8.9-8.9-8.9Z"/><rect width="84.3" height="12.8" x="79.8" y="118.8" rx="4.7" ry="4.7"/><path d="M42.7 152.6H203v2H42.7z"/></svg>