<svg xmlns="http://www.w3.org/2000/svg" viewBox="0 0 250 250"><path d="M211.8 125.8v-1.4c0-18.6-15.1-33.6-33.6-33.6s-10 1.2-14.4 3.2c-7-22.1-27.6-38.2-52.1-38.2s-54.6 24.4-54.6 54.6.1 4.4.4 6.6h-.6c-18.6 0-33.6 15.1-33.6 33.6s14.7 33.3 33.1 33.6h153.1c16.2 0 29.3-13.1 29.3-29.3s-11.9-28.1-27.1-29.2Z"/><path d="M195 112.5v-1.4c0-18.6-15.1-33.6-33.6-33.6s-10 1.2-14.4 3.2c-7-22.1-27.6-38.2-52.1-38.2S40.3 66.9 40.3 97.1s.1 4.4.4 6.6h-.6c-18.6 0-33.6 15.1-33.6 33.6s14.7 33.3 33.1 33.6h153.1c16.2 0 29.3-13.1 29.3-29.3s-11.9-28.1-27.1-29.2Z" style="fill:#0ad0bc"/><path d="M192.8 172.1H38.6c-18.3-.8-33.1-16.2-33.1-34.6s15.2-34.3 34.1-34.6c-.2-1.9-.3-3.7-.3-5.6 0-30.6 24.9-55.6 55.6-55.6s45 15.1 52.7 37.8c4.4-1.9 9-2.9 13.8-2.9 19.1 0 34.6 15.5 34.6 34.6v.5c15.2 1.6 27 14.7 27 30.1s-13.6 30.3-30.3 30.3ZM40.6 170h152.1c15.6 0 28.3-12.7 28.3-28.3s-11.5-27.1-26.2-28.2h-1v-2.3c0-18-14.6-32.6-32.6-32.6s-9.6 1.1-14 3.1l-1 .5-.3-1.1c-7.1-22.4-27.6-37.5-51.1-37.5s-53.6 24-53.6 53.6.1 4.3.4 6.4v1.1H40c-18 0-32.6 14.6-32.6 32.6s14.4 32.3 32.1 32.6h1Z"/><circle cx="121.5" cy="163.5" r="50.8"/><circle cx="114.2" cy="152.7" r="50.8" style="fill:#fff"/><path d="M114.2 204.5c-28.6 0-51.8-23.2-51.8-51.8s23.2-51.8 51.8-51.8 51.8 23.2 51.8 51.8-23.2 51.8-51.8 51.8Zm0-101.6c-27.5 0-49.8 22.3-49.8 49.8s22.3 49.8 49.8 49.8 49.8-22.3 49.8-49.8-22.3-49.8-49.8-49.8Z"/><path d="M114.2 205c-28.8 0-52.3-23.5-52.3-52.3s23.5-52.3 52.3-52.3 52.3 23.5 52.3 52.3S143 205 114.2 205Zm0-101.6c-27.2 0-49.3 22.1-49.3 49.3S87 202 114.2 202s49.3-22.1 49.3-49.3-22.1-49.3-49.3-49.3Z"/><path d="m154 170.4-1-.4c2.4-5.4 3.7-11.2 3.7-17.3 0-23.4-19-42.4-42.4-42.4s-14.5 1.9-20.8 5.4l-.5-.9c6.5-3.6 13.8-5.6 21.3-5.6 24 0 43.5 19.5 43.5 43.5s-1.3 12.1-3.8 17.7Zm-39.8 25.8c-24 0-43.5-19.5-43.5-43.5s1.8-14.5 5.3-20.9l1 .5c-3.4 6.2-5.2 13.3-5.2 20.4 0 23.4 19 42.4 42.4 42.4s10.8-1 15.8-3l.4 1c-5.2 2.1-10.6 3.1-16.2 3.1Z"/><path d="M127.4 159.4c0 3.3-1.1 6-3.2 8.1-2.1 2.1-4.9 3.4-8.4 3.8v5.2H112v-5.2c-3.3-.2-6-1.1-8.3-2.6-2.3-1.6-4-3.7-5-6.4l5.8-3.4c1.4 3.5 3.9 5.4 7.5 5.8v-12.2c-1.8-.7-3.2-1.3-4.3-1.8-1.1-.5-2.3-1.3-3.5-2.2-1.2-.9-2.2-2.1-2.8-3.4-.6-1.4-.9-2.9-.9-4.7 0-3.3 1.1-6 3.3-8 2.2-2 4.9-3.2 8.2-3.5v-5.2h3.8v5.2c5.3.7 8.9 3.4 10.9 8.1l-5.7 3.3c-1-2.5-2.8-4.1-5.2-4.6v11.6c1.3.5 2.2.8 2.9 1.1.6.3 1.5.7 2.6 1.2s1.9 1.1 2.5 1.6c.6.5 1.2 1.2 1.9 2 .6.8 1.1 1.7 1.4 2.7.3 1 .4 2.2.4 3.4Zm-20.1-19.1c0 1.2.4 2.2 1.1 3 .7.8 1.9 1.6 3.6 2.4v-10.2c-1.5.2-2.6.8-3.4 1.6-.8.9-1.3 1.9-1.3 3.2Zm8.6 24.4c1.6-.3 2.8-.9 3.6-1.9.8-.9 1.2-2.1 1.2-3.4s-.4-2.3-1.2-3.1c-.8-.8-2-1.6-3.6-2.3v10.7Z"/></svg>