<svg xmlns="http://www.w3.org/2000/svg" id="Layer_1" version="1.1" viewBox="0 0 250 250"><defs><style>.st0{fill:#fff}.st1{fill:#0ad0bc}</style></defs><rect width="107.5" height="107.5" x="107.4" y="93.1" rx="4.9" ry="4.9"/><rect width="107.5" height="107.5" x="96.1" y="82.9" class="st0" rx="4.9" ry="4.9"/><path d="M198.7 191.4h-97.8c-3.2 0-5.9-2.6-5.9-5.9V87.7c0-3.2 2.6-5.9 5.9-5.9h97.8c3.2 0 5.9 2.6 5.9 5.9v97.8c0 3.2-2.6 5.9-5.9 5.9ZM100.9 83.9c-2.1 0-3.9 1.7-3.9 3.9v97.8c0 2.1 1.7 3.9 3.9 3.9h97.8c2.1 0 3.9-1.7 3.9-3.9V87.8c0-2.1-1.7-3.9-3.9-3.9h-97.8Z"/><path d="M159.6 122.9c-.3-2.6-1.5-4.7-3.7-6.1-2.1-1.5-4.9-2.2-8.1-2.2s-4.4.4-6.1 1.1c-1.7.7-3 1.7-4 3-.9 1.3-1.4 2.7-1.4 4.3s.3 2.5 1 3.5 1.5 1.8 2.5 2.5 2.2 1.2 3.4 1.6c1.2.4 2.4.8 3.5 1.1l5.6 1.4c1.8.4 3.7 1 5.6 1.8 1.9.8 3.7 1.8 5.3 3 1.6 1.2 2.9 2.8 4 4.6 1 1.8 1.5 4 1.5 6.6s-.8 6.1-2.5 8.6-4.1 4.5-7.2 5.9c-3.1 1.4-6.9 2.2-11.4 2.2s-7.9-.7-11.1-2c-3.1-1.4-5.5-3.3-7.3-5.8s-2.7-5.4-2.9-8.9h8.6c.2 2.1.8 3.8 2 5.1s2.7 2.4 4.5 3c1.8.7 3.9 1 6.1 1s4.6-.4 6.5-1.2c1.9-.8 3.4-1.8 4.5-3.2 1.1-1.4 1.6-3 1.6-4.8s-.5-3.1-1.4-4.1c-1-1.1-2.2-2-3.9-2.7-1.6-.7-3.4-1.3-5.5-1.9l-6.7-1.8c-4.6-1.2-8.2-3.1-10.8-5.5-2.7-2.4-4-5.6-4-9.6s.9-6.1 2.7-8.6c1.8-2.4 4.2-4.3 7.2-5.7 3-1.4 6.5-2 10.3-2s7.3.7 10.2 2c3 1.4 5.3 3.2 7 5.6 1.7 2.4 2.6 5.1 2.7 8.1h-8.3ZM144.9 172l.2-71.1h5.2l-.2 71.1h-5.2Z" class="st0"/><path d="M169.1 146.9c0 4.5-1.4 8.1-4.3 10.9-2.9 2.8-6.6 4.5-11.2 5.1v7h-5.1V163c-4.4-.3-8.1-1.4-11.2-3.5-3.1-2.1-5.3-5-6.7-8.6l7.8-4.5c1.8 4.6 5.2 7.2 10.1 7.7v-16.4c-2.4-.9-4.3-1.7-5.7-2.4-1.5-.7-3-1.7-4.7-2.9s-2.9-2.8-3.7-4.6c-.8-1.8-1.2-3.9-1.2-6.3 0-4.4 1.5-8 4.4-10.7 2.9-2.7 6.6-4.3 10.9-4.7v-6.9h5.1v7c7 .9 11.9 4.5 14.6 10.8l-7.6 4.4c-1.4-3.4-3.7-5.5-7-6.2v15.6c1.7.6 3 1.1 3.8 1.5.9.4 2 .9 3.5 1.7 1.4.7 2.6 1.5 3.3 2.2.8.7 1.6 1.6 2.5 2.7.9 1 1.5 2.3 1.8 3.7.4 1.4.6 2.9.6 4.6Zm-26.9-25.4c0 1.6.5 3 1.5 4s2.6 2.1 4.8 3.1v-13.7c-1.9.3-3.5 1-4.6 2.2-1.1 1.2-1.7 2.6-1.7 4.3Zm11.4 32.5c2.1-.4 3.7-1.3 4.8-2.5 1.1-1.3 1.7-2.8 1.7-4.5s-.5-3.1-1.6-4.2c-1-1.1-2.7-2.1-4.9-3.1V154Z"/><path d="M61.1 23.7h5.7c4.6 0 8.3 3.7 8.3 8.3v192.4H52.9V32c0-4.6 3.7-8.3 8.3-8.3Z" class="st1"/><path d="M76.3 225.7H51.6V32c0-5.3 4.3-9.5 9.5-9.5h5.7c5.3 0 9.5 4.3 9.5 9.5v193.7Zm-22.2-2.5h19.7V32c0-3.9-3.2-7-7-7h-5.7c-3.9 0-7 3.2-7 7v191.2Z"/><rect width="22.2" height="177.4" x="105.3" y="-33.9" class="st1" rx="5.4" ry="5.4" transform="rotate(90 116.4 54.8)"/><path d="M199.7 67.1H33.1c-3.7 0-6.7-3-6.7-6.7V49c0-3.7 3-6.7 6.7-6.7h166.6c3.7 0 6.7 3 6.7 6.7v11.4c0 3.7-3 6.7-6.7 6.7ZM33.1 44.9c-2.3 0-4.2 1.9-4.2 4.2v11.4c0 2.3 1.9 4.2 4.2 4.2h166.6c2.3 0 4.2-1.9 4.2-4.2V49.1c0-2.3-1.9-4.2-4.2-4.2H33.1Z"/><path d="M110.2 66.5h3v16h-3zm75.4 0h3v16h-3zm-132 .1h21V75h-21z"/></svg>