<svg xmlns="http://www.w3.org/2000/svg" id="Layer_1" version="1.1" viewBox="0 0 250 250"><defs><style>.st1{fill:#fff}</style></defs><path d="M217.4 78.4h11.7v122.1H36.8V78.4h180.6z"/><path d="M207.4 68.4h11.7v122.1H26.8V68.4h180.6z" style="fill:#0ad0bc"/><path d="M39.7 157.4h167.4v21.9H39.7z" style="fill:#dbe2ea"/><path d="M220.3 191.8H25.6V67.2h194.8v124.6Zm-192.2-2.5h189.8V69.7H28.1v119.6Z"/><path d="M123.3 171.6V62.4c0-7.7-6.2-13.9-13.9-13.9H39.1v111.9h70.2c7.7 0 13.9 6.2 13.9 13.9v-2.7Z" class="st1"/><path d="M123.2 171.6V62.4c0-7.7 6.2-13.9 13.9-13.9h70.2v111.9h-70.2c-7.7 0-13.9 6.2-13.9 13.9v-2.7Z" class="st1"/><path d="M124.3 174.3h-2c0-7.1-5.8-12.9-12.9-12.9H38.1V47.5h71.2c8.2 0 14.9 6.7 14.9 14.9v111.9Zm-84.2-14.9h69.2c5.5 0 10.3 3 12.9 7.5V62.4c0-7.1-5.8-12.9-12.9-12.9H40.1v109.9Z"/><path d="M124.2 174.3h-2V62.4c0-8.2 6.7-14.9 14.9-14.9h71.2v113.9h-71.2c-7.1 0-12.9 5.8-12.9 12.9Zm12.9-124.8c-7.1 0-12.9 5.8-12.9 12.9v104.4c2.6-4.5 7.4-7.5 12.9-7.5h69.2V49.5h-69.2Z"/><path d="M208.3 180.2H38.1v-19.8h2v17.8h166.2v-17.8h2v19.8z"/><path d="M122.2 174.3h2v16.3h-2zM57.6 70.7H103v2H57.6zm0 16.1H103v2H57.6zm0 16.1H103v2H57.6zm0 16.1H103v2H57.6zm0 16.1H103v2H57.6zm84.1-64.4h45.4v2h-45.4zm0 16.1h45.4v2h-45.4zm0 16.1h45.4v2h-45.4zm0 16.1h45.4v2h-45.4zm0 16.1h45.4v2h-45.4z"/></svg>