<svg xmlns="http://www.w3.org/2000/svg" viewBox="0 0 250 250"><path d="M212.7 126.3v-1.4c0-18.6-15.1-33.6-33.6-33.6s-10 1.2-14.4 3.2c-7-22.1-27.6-38.2-52.1-38.2S58 80.7 58 110.9s.1 4.4.4 6.6h-.6c-18.6 0-33.6 15.1-33.6 33.6s14.7 33.3 33.1 33.6h153.1c16.2 0 29.3-13.1 29.3-29.3s-11.9-28.1-27.1-29.2Z"/><path d="M196 113v-1.4C196 93 180.9 78 162.4 78s-10 1.2-14.4 3.2C141 59.1 120.4 43 95.9 43S41.3 67.4 41.3 97.6s.1 4.4.4 6.6h-.6c-18.6 0-33.6 15.1-33.6 33.6s14.7 33.3 33.1 33.6h153.1c16.2 0 29.3-13.1 29.3-29.3s-11.9-28.1-27.1-29.2Z" style="fill:#fff"/><path d="M193.7 172.6H39.6c-18.3-.8-33.1-16.2-33.1-34.6s15.2-34.3 34.1-34.6c-.2-1.8-.3-3.7-.3-5.6 0-30.6 24.9-55.6 55.6-55.6s45 15.1 52.7 37.8c4.4-1.9 9-2.9 13.8-2.9 19.1 0 34.6 15.5 34.6 34.6v.5c15.2 1.6 27 14.7 27 30.1s-13.6 30.3-30.3 30.3Zm-152.1-2.1h152.1c15.6 0 28.3-12.7 28.3-28.3s-11.5-27.1-26.2-28.2h-1v-2.3c0-18-14.6-32.6-32.6-32.6s-9.6 1.1-14 3.1l-1 .5-.3-1.1c-7.1-22.4-27.6-37.5-51.1-37.5s-53.6 24-53.6 53.6.1 4.3.4 6.4v1.1H41c-18 0-32.6 14.6-32.6 32.6s14.4 32.3 32.1 32.6h1Z"/><path d="m164.9 142.5-7.5-.5c-1.3 0-2.3-.9-2.7-2.1-.6-1.8-1.3-3.5-2.1-5.2-.6-1.1-.4-2.5.4-3.4l4.9-5.6c.9-1.1.9-2.7-.1-3.7l-9.7-9.7c-1-1-2.6-1.1-3.7-.1l-5.7 5c-.9.8-2.3 1-3.4.5-1.6-.8-3.3-1.5-5.1-2.1-1.2-.4-2-1.5-2.1-2.7l-.5-7.6c0-1.4-1.3-2.5-2.7-2.5h-13.7c-1.4 0-2.6 1.1-2.7 2.5l-.5 8c0 1.1-.8 2.1-1.8 2.4-1.9.6-3.6 1.4-5.4 2.3-1 .5-2.2.3-3-.4l-6.1-5.3c-1.1-.9-2.7-.9-3.7.1l-9.7 9.7c-1 1-1.1 2.6-.1 3.7l5.5 6.3c.7.8.8 1.8.4 2.7-.9 1.8-1.7 3.6-2.3 5.6-.3 1-1.2 1.6-2.2 1.7l-8.4.6c-1.4 0-2.5 1.3-2.5 2.7v13.7c0 1.4 1.1 2.6 2.5 2.7l8.3.6c1 0 2 .8 2.3 1.8.6 1.9 1.3 3.6 2.2 5.4.5.9.3 2.1-.4 2.9l-5.5 6.3c-.9 1.1-.9 2.7.1 3.7l9.7 9.7c1 1 2.6 1.1 3.7.1l6.3-5.5c.7-.7 1.8-.8 2.7-.3 1.8.9 3.7 1.7 5.6 2.4.9.3 1.6 1.2 1.6 2.1l.6 8.3c0 1.4 1.3 2.5 2.7 2.5h13.7c1.4 0 2.6-1.1 2.7-2.5l.5-8.1c0-1 .7-1.9 1.7-2.2 2-.6 3.9-1.4 5.7-2.3.9-.5 2-.3 2.8.4l6.1 5.3c1.1.9 2.7.9 3.7-.1l9.7-9.7c1-1 1.1-2.6.1-3.7l-5.1-5.8c-.7-.9-.9-2.1-.4-3.1.9-1.8 1.7-3.6 2.3-5.5.4-1.1 1.3-1.8 2.4-1.9l7.7-.5c1.4 0 2.5-1.3 2.5-2.7v-13.7c0-1.4-1.1-2.6-2.5-2.7Zm-47.1 29.8c-10.9 0-19.8-8.9-19.8-19.8s8.9-19.8 19.8-19.8 19.8 8.9 19.8 19.8-8.9 19.8-19.8 19.8Z"/><path d="m159.3 135.7-7.5-.5c-1.3 0-2.3-.9-2.7-2.1-.6-1.8-1.3-3.5-2.1-5.2-.6-1.1-.4-2.5.4-3.4l4.9-5.6c.9-1.1.9-2.7-.1-3.7l-9.7-9.7c-1-1-2.6-1.1-3.7-.1l-5.7 5c-.9.8-2.3 1-3.4.5-1.6-.8-3.3-1.5-5.1-2.1-1.2-.4-2-1.5-2.1-2.7l-.5-7.6c0-1.4-1.3-2.5-2.7-2.5h-13.7c-1.4 0-2.6 1.1-2.7 2.5l-.5 8c0 1.1-.8 2.1-1.8 2.4-1.9.6-3.6 1.4-5.4 2.3-1 .5-2.2.3-3-.4l-6.1-5.3c-1.1-.9-2.7-.9-3.7.1l-9.7 9.7c-1 1-1.1 2.6-.1 3.7l5.5 6.3c.7.8.8 1.8.4 2.7-.9 1.8-1.7 3.6-2.3 5.6-.3 1-1.2 1.6-2.2 1.7l-8.4.6c-1.4 0-2.5 1.3-2.5 2.7v13.7c0 1.4 1.1 2.6 2.5 2.7l8.3.6c1 0 2 .8 2.3 1.8.6 1.9 1.3 3.6 2.2 5.4.5.9.3 2.1-.4 2.9l-5.5 6.3c-.9 1.1-.9 2.7.1 3.7l9.7 9.7c1 1 2.6 1.1 3.7.1l6.3-5.5c.7-.7 1.8-.8 2.7-.3 1.8.9 3.7 1.7 5.6 2.4.9.3 1.6 1.2 1.6 2.1l.6 8.3c0 1.4 1.3 2.5 2.7 2.5h13.7c1.4 0 2.6-1.1 2.7-2.5l.5-8.1c0-1 .7-1.9 1.7-2.2 2-.6 3.9-1.4 5.7-2.3.9-.5 2-.3 2.8.4l6.1 5.3c1.1.9 2.7.9 3.7-.1l9.7-9.7c1-1 1.1-2.6.1-3.7l-5.1-5.8c-.7-.9-.9-2.1-.4-3.1.9-1.8 1.7-3.6 2.3-5.5.4-1.1 1.3-1.8 2.4-1.9l7.7-.5c1.4 0 2.5-1.3 2.5-2.7v-13.7c0-1.4-1.1-2.6-2.5-2.7Zm-47.1 29.8c-10.9 0-19.8-8.9-19.8-19.8s8.9-19.8 19.8-19.8 19.8 8.9 19.8 19.8-8.9 19.8-19.8 19.8Z" style="fill:#0ad0bc"/><path d="M119.3 195.6h-13.7c-1.9 0-3.6-1.5-3.7-3.5l-.6-8.3c0-.6-.4-1.1-.9-1.3-2-.7-3.9-1.5-5.8-2.4-.5-.3-1.1-.2-1.6.2l-6.3 5.5c-1.5 1.3-3.7 1.2-5.1-.2l-9.7-9.7c-1.4-1.4-1.4-3.6-.2-5.1l5.5-6.3c.4-.5.5-1.2.2-1.8-.9-1.8-1.7-3.6-2.3-5.5-.2-.6-.8-1-1.4-1.1l-8.3-.6c-1.9-.1-3.5-1.8-3.5-3.7v-13.7c0-1.9 1.5-3.6 3.5-3.7l8.4-.6c.6 0 1.1-.4 1.3-1 .6-2 1.4-3.9 2.3-5.7.3-.5.2-1.2-.2-1.6l-5.5-6.3c-1.3-1.5-1.2-3.7.2-5.1l9.7-9.7c1.4-1.4 3.6-1.4 5.1-.2l6.1 5.3c.5.5 1.3.6 1.9.3 1.8-.9 3.6-1.7 5.5-2.3.7-.2 1.1-.8 1.2-1.5l.5-8c.1-1.9 1.8-3.5 3.7-3.5h13.7c1.9 0 3.6 1.5 3.7 3.5l.5 7.6c0 .9.6 1.6 1.4 1.9 1.8.6 3.5 1.3 5.2 2.1.8.4 1.7.3 2.3-.3l5.7-5c1.5-1.3 3.7-1.2 5.1.2l9.7 9.7c1.4 1.4 1.4 3.6.2 5.1l-4.9 5.6c-.6.6-.7 1.6-.3 2.3.9 1.7 1.6 3.5 2.2 5.3.3.8 1 1.4 1.9 1.4l7.5.5c1.9.1 3.5 1.8 3.5 3.7v13.7c0 1.9-1.5 3.6-3.5 3.7l-7.7.5c-.7 0-1.3.5-1.6 1.2-.6 1.9-1.4 3.8-2.4 5.7-.3.6-.2 1.4.3 2l5.1 5.8c1.3 1.5 1.2 3.7-.2 5.1l-9.7 9.7c-1.4 1.4-3.6 1.4-5.1.2l-6.1-5.3c-.5-.4-1.1-.5-1.7-.2-1.9 1-3.9 1.8-5.9 2.4-.6.2-1 .7-1 1.4l-.5 8.1c-.1 1.9-1.8 3.5-3.7 3.5ZM94 178c.5 0 1.1.1 1.5.4 1.8.9 3.6 1.7 5.5 2.3 1.3.4 2.2 1.6 2.3 3l.6 8.3c0 .9.8 1.6 1.7 1.6h13.7c.9 0 1.6-.7 1.7-1.6l.5-8.1c0-1.4 1.1-2.7 2.4-3.1 1.9-.6 3.8-1.4 5.6-2.3 1.3-.6 2.8-.4 3.9.5l6.1 5.3c.7.6 1.7.6 2.3 0l9.7-9.7c.6-.6.7-1.7 0-2.3l-5.1-5.8c-1-1.2-1.2-2.8-.5-4.2.9-1.7 1.6-3.5 2.2-5.4.5-1.4 1.8-2.5 3.3-2.6l7.7-.5c.9 0 1.6-.8 1.6-1.7v-13.7c0-.9-.7-1.6-1.6-1.7l-7.5-.5c-1.7-.1-3.1-1.2-3.6-2.8-.6-1.7-1.3-3.4-2.1-5-.8-1.5-.5-3.3.6-4.5l4.9-5.6c.6-.7.6-1.7 0-2.3l-9.7-9.7c-.6-.6-1.7-.7-2.3 0l-5.7 5c-1.3 1.1-3 1.3-4.5.6-1.6-.8-3.3-1.5-5-2-1.6-.5-2.7-1.9-2.8-3.6l-.5-7.6c0-.9-.8-1.6-1.7-1.6h-13.7c-.9 0-1.6.7-1.7 1.6l-.5 8c-.1 1.5-1.1 2.8-2.5 3.3-1.8.6-3.5 1.3-5.2 2.2-1.4.7-3 .5-4.1-.5l-6.1-5.3c-.7-.6-1.7-.6-2.3 0l-9.7 9.7c-.6.6-.7 1.7 0 2.3l5.5 6.3c.9 1.1 1.1 2.6.5 3.8-.9 1.7-1.6 3.6-2.2 5.4-.4 1.3-1.7 2.3-3.1 2.4l-8.4.6c-.9 0-1.6.8-1.6 1.7v13.7c0 .9.7 1.6 1.6 1.7l8.3.6c1.5.1 2.7 1.1 3.2 2.4.6 1.8 1.3 3.5 2.2 5.2.7 1.3.5 2.9-.5 4l-5.5 6.3c-.6.7-.6 1.7 0 2.3l9.7 9.7c.6.6 1.7.7 2.3 0l6.3-5.5c.6-.6 1.5-.9 2.3-.9Zm18.2-11.5c-11.5 0-20.8-9.3-20.8-20.8s9.3-20.8 20.8-20.8 20.8 9.3 20.8 20.8-9.3 20.8-20.8 20.8Zm0-39.6c-10.4 0-18.8 8.4-18.8 18.8s8.4 18.8 18.8 18.8 18.8-8.4 18.8-18.8-8.4-18.8-18.8-18.8Z"/></svg>