<svg xmlns="http://www.w3.org/2000/svg" id="Layer_1" version="1.1" viewBox="0 0 250 250"><defs><style>.st0{fill:#fff}</style></defs><path d="M223.8 84.3c-15.3-15.3-40.1-15.3-55.4 0l-2.4 2.4-2.4-2.4c-15.3-15.3-40.1-15.3-55.4 0-15.3 15.3-15.3 40.1 0 55.4l57.7 57.7 57.7-57.7c15.3-15.3 15.3-40.1 0-55.4Z"/><rect width="99.9" height="144.5" x="26.7" y="59.1" rx="8.3" ry="8.3"/><rect width="99.9" height="144.5" x="18.9" y="51.6" class="st0" rx="8.3" ry="8.3"/><path d="M110.4 197.1H27.2c-5.1 0-9.3-4.2-9.3-9.3V59.9c0-5.1 4.2-9.3 9.3-9.3h83.2c5.1 0 9.3 4.2 9.3 9.3v127.9c0 5.1-4.2 9.3-9.3 9.3ZM27.2 52.6c-4 0-7.3 3.3-7.3 7.3v127.9c0 4 3.3 7.3 7.3 7.3h83.2c4 0 7.3-3.3 7.3-7.3V59.9c0-4-3.3-7.3-7.3-7.3H27.2Z"/><path d="M211.6 77.9c-15.3-15.3-40.1-15.3-55.4 0l-2.4 2.4-2.4-2.4c-15.3-15.3-40.1-15.3-55.4 0-15.3 15.3-15.3 40.1 0 55.4l57.7 57.7 57.7-57.7c15.3-15.3 15.3-40.1 0-55.4Z" style="fill:#0ad0bc"/><path d="m153.8 192.5-58.4-58.4c-7.6-7.6-11.8-17.7-11.8-28.4s4.2-20.8 11.8-28.4c7.6-7.6 17.7-11.8 28.4-11.8s20.8 4.2 28.4 11.8l1.7 1.7 1.7-1.7c7.6-7.6 17.7-11.8 28.4-11.8s20.8 4.2 28.4 11.8c7.6 7.6 11.8 17.7 11.8 28.4s-4.2 20.8-11.8 28.4L154 192.5Zm.1-2.9 57-56.9c7.2-7.2 11.2-16.8 11.2-27s-4-19.8-11.2-27c-7.2-7.2-16.8-11.2-27-11.2s-19.8 4-27 11.2l-3.1 3.1-3.1-3.1c-7.2-7.2-16.8-11.2-27-11.2s-19.8 4-27 11.2c-7.2 7.2-11.2 16.8-11.2 27s4 19.8 11.2 27l57 57Z"/><path d="M141.9 94.5H165v60.7h-23.1z" class="st0"/><path d="M183.9 113.3v23.1h-60.7v-23.1z" class="st0"/><path d="M63.8 80.5h-30c-1.4 0-2.5-1.1-2.5-2.5s1.1-2.5 2.5-2.5h30c1.4 0 2.5 1.1 2.5 2.5s-1.1 2.5-2.5 2.5Zm0 39.1h-30c-1.4 0-2.5-1.1-2.5-2.5s1.1-2.5 2.5-2.5h30c1.4 0 2.5 1.1 2.5 2.5s-1.1 2.5-2.5 2.5Zm0 40.5h-30c-1.4 0-2.5-1.1-2.5-2.5s1.1-2.5 2.5-2.5h30c1.4 0 2.5 1.1 2.5 2.5s-1.1 2.5-2.5 2.5ZM32.6 92.8h52.6v1.1H32.6zm0 41.4h63.5v1.1H32.6zm0 39.4h60.7v1.1H32.6z"/></svg>