<svg xmlns="http://www.w3.org/2000/svg" id="Layer_1" version="1.1" viewBox="0 0 250 250"><defs><style>.st0{fill:#0ad0bc}</style></defs><path d="M195 51.7 133.2 63l-6 4.2-7.7-1.8-62.6 11.2c-3.7.7-7.1-1.8-7.8-5.4-.7-3.7 1.8-7.1 5.4-7.8l138-24.9c3.7-.7 7.1 1.8 7.8 5.4.7 3.7-1.8 7.1-5.4 7.8Z" class="st0"/><circle cx="126.1" cy="59.1" r="8.6" class="st0"/><path d="M120 66.5h12.1v120.7H120zm-95.1 87h73.3s-12.1 13.1-36.5 13.1-36.8-13.1-36.8-13.1Z" class="st0"/><path d="M150.4 132h73.3s-12.1 13.1-36.5 13.1-36.8-13.1-36.8-13.1Z"/><path d="M172.1 209.3c-10.5-13.5-27-22.2-45.4-22.2s-34.9 8.7-45.4 22.2h90.9Z" class="st0"/><path d="M61.7 167.8c-23.4 0-36.2-12-37.5-13.3l-.6-.6.3-.9c.2-.5.7-.8 1.2-.8H98c.5 0 1 .3 1.2.8l.3.8-.6.7c-1.3 1.4-13.8 13.4-37.3 13.4Zm-33.5-13.1c4.6 3.6 15.9 10.6 33.5 10.6s28.7-7 33.2-10.6H28.2Zm159-8.3c-23.4 0-36.2-12-37.5-13.3l-.6-.6.3-.9c.2-.5.7-.8 1.2-.8h72.9c.5 0 1 .3 1.2.8l.3.8-.6.7c-1.3 1.4-13.8 13.4-37.3 13.4Zm-33.5-13.2c4.6 3.6 15.8 10.6 33.5 10.6s28.7-7 33.2-10.6h-66.7Zm20.9 77.3h-96l1.6-2c11.3-14.4 28.2-22.7 46.4-22.7s35.2 8.3 46.4 22.7l1.6 2ZM83.9 208h85.6c-10.7-12.6-26.2-19.7-42.8-19.7s-32.1 7.1-42.8 19.7Z"/><path d="m64.046 74.573 2.305-.969 33.171 78.912-2.305.968zm-40.256 78.19 37.308-78.926 2.26 1.068-37.308 78.927zM188.878 52.424l2.313-.949 32.52 79.29-2.314.95zm-40.505 79.174 37.65-79.65 2.26 1.068-37.65 79.65zM117.8 64.4h2.5v123.9h-2.5zm14.2 0h2.5v123.9H132z"/><path d="M126.1 68.9H125c-5.4-.6-9.2-5.5-8.6-10.9.6-5.4 5.5-9.3 10.9-8.6 2.6.3 4.9 1.6 6.6 3.6 1.6 2.1 2.4 4.6 2.1 7.2-.3 2.6-1.6 4.9-3.6 6.6-1.8 1.4-3.9 2.1-6.1 2.1Zm0-17.1c-3.7 0-6.8 2.8-7.3 6.5-.5 4 2.4 7.6 6.4 8.1 1.9.2 3.9-.3 5.4-1.5 1.5-1.2 2.5-3 2.7-4.9.2-1.9-.3-3.9-1.5-5.4-1.2-1.5-3-2.5-4.9-2.7h-.8Z"/><path d="M55.2 77.6c-1.5 0-3-.5-4.3-1.4-1.6-1.2-2.7-2.9-3-4.9-.6-3.9 2-7.6 6-8.3l66.9-12.1.4 2.5-66.9 12.1c-2.6.5-4.3 2.9-3.9 5.5.2 1.3.9 2.5 2 3.2 1.1.8 2.4 1.1 3.7.8l62.2-11.1.4 2.5-62.2 11.1c-.4 0-.9.1-1.3.1Zm79.6-13.7-.5-2.5 62.3-12c2.6-.5 4.3-2.9 4-5.5-.2-1.3-.9-2.5-2-3.2-1.1-.8-2.4-1.1-3.7-.8l-65.4 12.2-.5-2.5 65.4-12.2c2-.4 4 0 5.6 1.3 1.6 1.2 2.7 2.9 3 4.9.6 3.9-2 7.6-6 8.3l-62.2 12Zm-15 2.8h12.9V75h-12.9z"/></svg>